<svg id="svg" version="1.1" xmlns="http://www.w3.org/2000/svg" xmlns:xlink="http://www.w3.org/1999/xlink" width="400" height="400" viewBox="0, 0, 400,400"><g id="svgg"><path id="path0" d="M187.600 52.257 C 100.855 60.155,39.730 138.759,53.828 224.283 C 67.125 304.955,143.409 359.503,224.283 346.172 C 304.955 332.875,359.503 256.591,346.172 175.717 C 335.542 111.228,284.972 62.353,219.178 52.979 C 214.766 52.351,192.232 51.835,187.600 52.257 M201.600 84.024 C 201.600 84.257,201.765 84.345,201.967 84.220 C 202.413 83.945,208.145 85.954,208.334 86.452 C 208.408 86.646,208.609 86.718,208.782 86.611 C 209.224 86.338,214.000 87.998,214.000 88.424 C 214.000 88.617,214.270 88.671,214.600 88.545 C 214.930 88.418,215.200 88.508,215.200 88.745 C 215.200 88.981,215.470 89.071,215.800 88.945 C 216.130 88.818,216.400 88.924,216.400 89.181 C 216.400 89.437,216.565 89.545,216.767 89.420 C 217.213 89.145,222.945 91.154,223.134 91.652 C 223.208 91.846,223.418 91.912,223.601 91.799 C 224.023 91.539,229.754 93.577,229.934 94.052 C 230.008 94.246,230.209 94.318,230.382 94.211 C 230.824 93.938,235.600 95.598,235.600 96.024 C 235.600 96.217,235.870 96.271,236.200 96.145 C 236.530 96.018,236.800 96.108,236.800 96.345 C 236.800 96.581,237.070 96.671,237.400 96.545 C 237.730 96.418,238.000 96.524,238.000 96.781 C 238.000 97.037,238.165 97.145,238.367 97.020 C 238.813 96.745,244.545 98.754,244.734 99.252 C 244.808 99.446,245.018 99.512,245.201 99.399 C 245.623 99.139,251.354 101.177,251.534 101.652 C 251.608 101.846,251.818 101.912,252.001 101.799 C 252.423 101.539,258.154 103.577,258.334 104.052 C 258.408 104.246,258.618 104.312,258.801 104.199 C 259.223 103.939,264.954 105.977,265.134 106.452 C 265.208 106.646,265.409 106.718,265.581 106.612 C 266.023 106.339,272.000 108.398,272.000 108.824 C 272.000 109.017,272.270 109.071,272.600 108.945 C 272.930 108.818,273.200 108.924,273.200 109.181 C 273.200 109.437,273.365 109.545,273.567 109.420 C 274.013 109.145,279.745 111.154,279.934 111.652 C 280.008 111.846,280.218 111.912,280.401 111.799 C 280.823 111.539,286.554 113.577,286.734 114.052 C 286.808 114.246,287.009 114.318,287.181 114.212 C 287.646 113.925,293.600 116.009,293.600 116.460 C 293.600 116.673,293.756 116.751,293.946 116.633 C 294.435 116.331,300.400 118.389,300.400 118.860 C 300.400 119.073,300.556 119.151,300.746 119.033 C 301.235 118.731,307.200 120.789,307.200 121.260 C 307.200 121.473,307.356 121.551,307.546 121.433 C 308.012 121.145,314.000 123.178,314.000 123.624 C 314.000 123.817,314.270 123.871,314.600 123.745 C 314.930 123.618,315.200 123.724,315.200 123.981 C 315.200 124.237,315.350 124.354,315.534 124.241 C 315.718 124.127,316.525 124.236,317.329 124.483 L 318.790 124.931 318.621 127.166 C 318.528 128.394,318.372 130.120,318.276 131.000 C 318.179 131.880,317.974 134.034,317.820 135.787 C 317.666 137.540,317.452 139.116,317.345 139.289 C 317.238 139.462,317.058 140.992,316.945 142.689 C 316.832 144.386,316.652 145.916,316.545 146.089 C 316.438 146.262,316.258 147.792,316.145 149.489 C 316.032 151.186,315.857 152.708,315.756 152.871 C 315.655 153.035,315.486 154.481,315.381 156.084 C 315.275 157.688,315.076 159.358,314.937 159.795 C 314.799 160.233,314.645 161.223,314.595 161.995 C 314.362 165.604,313.921 169.804,313.745 170.089 C 313.638 170.262,313.458 171.792,313.345 173.489 C 313.232 175.186,313.052 176.716,312.945 176.889 C 312.838 177.062,312.658 178.592,312.545 180.289 C 312.432 181.986,312.252 183.516,312.145 183.689 C 312.038 183.862,311.858 185.392,311.745 187.089 C 311.632 188.786,311.453 190.314,311.348 190.484 C 311.243 190.655,311.069 192.100,310.963 193.697 C 310.857 195.294,310.655 196.960,310.515 197.400 C 310.374 197.840,310.303 198.767,310.357 199.460 C 310.410 200.152,310.255 200.843,310.011 200.993 C 309.767 201.144,309.663 201.569,309.780 201.937 C 309.897 202.305,309.820 203.865,309.610 205.403 C 309.400 206.941,309.118 209.544,308.984 211.187 C 308.849 212.830,308.653 214.314,308.548 214.484 C 308.443 214.655,308.269 216.100,308.163 217.697 C 308.057 219.294,307.863 220.951,307.733 221.380 C 307.602 221.810,307.434 222.890,307.360 223.780 C 307.286 224.671,307.144 226.075,307.045 226.901 C 306.945 227.727,306.784 229.077,306.685 229.901 C 306.587 230.725,306.378 232.925,306.222 234.789 C 306.065 236.653,305.850 238.319,305.744 238.491 C 305.637 238.663,305.458 240.192,305.345 241.889 C 305.232 243.586,305.053 245.114,304.948 245.284 C 304.843 245.455,304.669 246.900,304.563 248.497 C 304.457 250.094,304.260 251.760,304.125 252.200 C 303.990 252.640,303.826 253.630,303.760 254.400 C 303.626 255.978,303.394 258.144,303.076 260.800 C 302.957 261.790,302.746 263.939,302.608 265.575 C 302.469 267.211,302.272 268.684,302.170 268.849 C 302.068 269.014,301.884 270.638,301.761 272.459 C 301.638 274.279,301.378 276.067,301.183 276.432 C 300.988 276.796,300.930 277.196,301.054 277.320 C 302.325 278.591,298.911 282.686,297.078 282.090 C 296.893 282.030,296.837 282.137,296.956 282.328 C 297.185 282.699,293.284 284.676,292.691 284.490 C 292.498 284.430,292.427 284.520,292.533 284.692 C 292.745 285.034,281.377 291.333,280.549 291.333 C 280.266 291.333,280.111 291.456,280.203 291.605 C 280.400 291.923,276.409 293.852,275.891 293.690 C 275.698 293.630,275.637 293.737,275.756 293.928 C 275.985 294.299,272.084 296.276,271.491 296.090 C 271.298 296.030,271.237 296.137,271.356 296.328 C 271.602 296.726,267.662 298.670,267.021 298.467 C 266.789 298.393,266.736 298.470,266.903 298.636 C 267.313 299.046,263.218 301.253,262.650 300.928 C 262.402 300.787,262.339 300.825,262.509 301.012 C 262.887 301.427,255.191 305.641,254.657 305.311 C 254.447 305.182,254.388 305.256,254.524 305.477 C 254.792 305.910,250.911 307.885,250.221 307.667 C 249.989 307.593,249.937 307.671,250.105 307.838 C 250.502 308.236,245.609 310.853,245.080 310.526 C 244.858 310.389,244.789 310.459,244.927 310.682 C 245.196 311.116,242.092 312.690,241.408 312.467 C 241.184 312.393,241.136 312.470,241.303 312.636 C 241.713 313.046,237.618 315.253,237.050 314.928 C 236.802 314.787,236.736 314.822,236.903 315.006 C 237.291 315.433,233.236 317.670,232.688 317.331 C 232.462 317.191,232.378 317.240,232.501 317.440 C 232.734 317.817,221.455 324.133,220.549 324.133 C 220.266 324.133,220.111 324.256,220.203 324.405 C 220.416 324.750,216.386 326.646,215.821 326.467 C 215.589 326.393,215.536 326.470,215.703 326.636 C 216.113 327.046,212.018 329.253,211.450 328.928 C 211.202 328.787,211.136 328.822,211.303 329.006 C 211.700 329.443,207.635 331.663,207.050 331.328 C 206.802 331.187,206.736 331.222,206.903 331.406 C 207.291 331.833,203.236 334.070,202.688 333.731 C 202.462 333.591,202.389 333.658,202.526 333.880 C 202.808 334.336,201.155 335.200,200.000 335.200 C 198.845 335.200,197.192 334.336,197.474 333.880 C 197.611 333.658,197.538 333.591,197.312 333.731 C 196.764 334.070,192.709 331.833,193.097 331.406 C 193.264 331.222,193.198 331.187,192.950 331.328 C 192.365 331.663,188.300 329.443,188.697 329.006 C 188.864 328.822,188.798 328.787,188.550 328.928 C 187.982 329.253,183.887 327.046,184.297 326.636 C 184.464 326.470,184.411 326.393,184.179 326.467 C 183.614 326.646,179.584 324.750,179.797 324.405 C 179.889 324.256,179.734 324.133,179.451 324.133 C 178.545 324.133,167.266 317.817,167.499 317.440 C 167.622 317.240,167.538 317.191,167.312 317.331 C 166.764 317.670,162.709 315.433,163.097 315.006 C 163.264 314.822,163.198 314.787,162.950 314.928 C 162.382 315.253,158.287 313.046,158.697 312.636 C 158.864 312.470,158.816 312.393,158.592 312.467 C 157.908 312.690,154.804 311.116,155.073 310.682 C 155.211 310.459,155.142 310.389,154.920 310.526 C 154.391 310.853,149.498 308.236,149.895 307.838 C 150.063 307.671,150.011 307.593,149.779 307.667 C 149.089 307.885,145.208 305.910,145.476 305.477 C 145.612 305.256,145.553 305.182,145.343 305.311 C 144.809 305.641,137.113 301.427,137.491 301.012 C 137.661 300.825,137.598 300.787,137.350 300.928 C 136.782 301.253,132.687 299.046,133.097 298.636 C 133.264 298.470,133.211 298.393,132.979 298.467 C 132.338 298.670,128.398 296.726,128.644 296.328 C 128.763 296.137,128.702 296.030,128.509 296.090 C 127.916 296.276,124.015 294.299,124.244 293.928 C 124.363 293.737,124.302 293.630,124.109 293.690 C 123.591 293.852,119.600 291.923,119.797 291.605 C 119.889 291.456,119.734 291.333,119.451 291.333 C 118.623 291.333,107.255 285.034,107.467 284.692 C 107.573 284.520,107.502 284.430,107.309 284.490 C 106.716 284.676,102.815 282.699,103.044 282.328 C 103.163 282.137,103.107 282.030,102.922 282.090 C 101.089 282.686,97.675 278.591,98.946 277.320 C 99.070 277.196,99.012 276.795,98.816 276.429 C 98.620 276.064,98.359 274.422,98.236 272.782 C 98.113 271.142,97.818 268.477,97.580 266.860 C 97.342 265.243,97.238 263.829,97.348 263.719 C 97.459 263.608,97.389 263.098,97.194 262.585 C 96.889 261.781,96.494 258.447,96.203 254.200 C 96.158 253.540,96.010 252.640,95.875 252.200 C 95.740 251.760,95.543 250.094,95.437 248.497 C 95.331 246.900,95.158 245.456,95.053 245.286 C 94.948 245.117,94.762 243.486,94.639 241.663 C 94.516 239.840,94.332 238.214,94.231 238.050 C 94.070 237.790,93.652 233.822,93.403 230.200 C 93.358 229.540,93.210 228.640,93.075 228.200 C 92.940 227.760,92.743 226.094,92.637 224.497 C 92.531 222.900,92.357 221.455,92.252 221.284 C 92.147 221.114,91.934 219.540,91.780 217.787 C 91.626 216.034,91.413 213.790,91.307 212.800 C 91.201 211.810,91.083 210.370,91.045 209.600 C 91.006 208.830,90.833 207.971,90.658 207.691 C 90.484 207.411,90.387 206.691,90.443 206.091 C 90.499 205.491,90.429 204.640,90.287 204.200 C 90.146 203.760,89.943 202.094,89.837 200.497 C 89.731 198.900,89.557 197.455,89.452 197.284 C 89.347 197.114,89.168 195.586,89.055 193.889 C 88.942 192.192,88.762 190.662,88.655 190.489 C 88.548 190.316,88.368 188.786,88.255 187.089 C 88.142 185.392,87.962 183.862,87.855 183.689 C 87.679 183.404,87.238 179.204,87.005 175.595 C 86.955 174.823,86.805 173.833,86.672 173.395 C 86.539 172.958,86.343 171.294,86.237 169.697 C 86.131 168.100,85.957 166.655,85.852 166.484 C 85.747 166.314,85.568 164.786,85.455 163.089 C 85.342 161.392,85.162 159.862,85.055 159.689 C 84.948 159.516,84.768 157.986,84.655 156.289 C 84.542 154.592,84.362 153.062,84.255 152.889 C 84.148 152.716,83.934 151.140,83.780 149.387 C 83.506 146.267,83.357 144.832,82.928 141.200 C 82.811 140.210,82.670 138.768,82.615 137.995 C 82.560 137.223,82.405 136.233,82.272 135.795 C 82.139 135.358,81.911 133.650,81.765 132.000 C 81.619 130.350,81.417 128.077,81.316 126.948 L 81.132 124.897 83.618 124.057 C 84.985 123.595,86.245 123.304,86.418 123.411 C 86.591 123.518,86.792 123.443,86.866 123.244 C 87.051 122.746,93.986 120.344,94.436 120.622 C 94.636 120.746,94.800 120.673,94.800 120.460 C 94.800 120.009,100.754 117.925,101.219 118.212 C 101.391 118.318,101.592 118.243,101.666 118.044 C 101.851 117.546,108.786 115.144,109.236 115.422 C 109.436 115.546,109.600 115.473,109.600 115.260 C 109.600 114.809,115.554 112.725,116.019 113.012 C 116.191 113.118,116.392 113.043,116.466 112.844 C 116.651 112.346,123.586 109.944,124.036 110.222 C 124.236 110.346,124.400 110.273,124.400 110.060 C 124.400 109.609,130.354 107.525,130.819 107.812 C 130.991 107.918,131.192 107.846,131.266 107.652 C 131.446 107.177,137.177 105.139,137.599 105.399 C 137.782 105.512,137.992 105.454,138.066 105.269 C 138.252 104.803,145.186 102.344,145.598 102.599 C 145.781 102.712,145.992 102.646,146.066 102.452 C 146.246 101.977,151.977 99.939,152.399 100.199 C 152.582 100.312,152.798 100.207,152.878 99.966 C 152.959 99.724,153.514 99.498,154.112 99.463 C 154.710 99.428,155.200 99.282,155.200 99.137 C 155.200 98.771,160.032 97.173,160.418 97.411 C 160.591 97.518,160.792 97.446,160.866 97.252 C 161.055 96.754,166.787 94.745,167.233 95.020 C 167.435 95.145,167.600 95.037,167.600 94.781 C 167.600 94.524,167.858 94.414,168.174 94.535 C 168.490 94.656,168.805 94.607,168.874 94.427 C 169.050 93.969,174.791 91.947,175.199 92.199 C 175.382 92.312,175.592 92.254,175.666 92.069 C 175.852 91.603,182.786 89.144,183.198 89.399 C 183.381 89.512,183.592 89.446,183.666 89.252 C 183.855 88.754,189.587 86.745,190.033 87.020 C 190.235 87.145,190.400 87.037,190.400 86.781 C 190.400 86.524,190.670 86.418,191.000 86.545 C 191.330 86.671,191.600 86.581,191.600 86.345 C 191.600 86.108,191.870 86.018,192.200 86.145 C 192.530 86.271,192.800 86.217,192.800 86.024 C 192.800 85.578,197.587 83.945,198.052 84.232 C 198.243 84.350,198.400 84.257,198.400 84.024 C 198.400 83.791,199.120 83.600,200.000 83.600 C 200.880 83.600,201.600 83.791,201.600 84.024 M199.400 113.600 C 199.260 114.040,198.968 114.400,198.749 114.400 C 198.531 114.400,198.457 114.568,198.584 114.774 C 198.862 115.224,197.186 118.800,196.697 118.800 C 196.508 118.800,196.451 118.959,196.572 119.154 C 196.829 119.571,193.693 126.538,193.159 126.734 C 192.959 126.808,192.890 127.021,193.005 127.208 C 193.268 127.634,191.564 131.200,191.097 131.200 C 190.908 131.200,190.856 131.368,190.983 131.573 C 191.264 132.027,189.991 134.800,189.502 134.800 C 189.310 134.800,189.257 134.968,189.384 135.174 C 189.662 135.624,187.986 139.200,187.497 139.200 C 187.308 139.200,187.257 139.368,187.384 139.574 C 187.662 140.024,185.986 143.600,185.497 143.600 C 185.308 143.600,185.256 143.768,185.383 143.973 C 185.664 144.427,184.391 147.200,183.902 147.200 C 183.710 147.200,183.657 147.368,183.784 147.574 C 184.062 148.024,182.386 151.600,181.897 151.600 C 181.708 151.600,181.656 151.768,181.783 151.973 C 182.033 152.377,180.817 155.200,180.393 155.200 C 180.250 155.200,180.133 155.464,180.133 155.787 C 180.133 156.663,178.733 159.600,178.316 159.600 C 178.116 159.600,178.057 159.768,178.184 159.974 C 178.462 160.424,176.786 164.000,176.297 164.000 C 176.108 164.000,176.056 164.168,176.183 164.373 C 176.464 164.827,175.191 167.600,174.702 167.600 C 174.510 167.600,174.457 167.768,174.584 167.974 C 174.862 168.424,173.186 172.000,172.697 172.000 C 172.508 172.000,172.451 172.159,172.572 172.354 C 172.829 172.771,169.693 179.738,169.159 179.934 C 168.959 180.008,168.890 180.221,169.005 180.408 C 169.268 180.834,167.564 184.400,167.097 184.400 C 166.908 184.400,166.853 184.562,166.976 184.761 C 167.234 185.179,164.126 192.137,163.598 192.326 C 163.404 192.395,163.355 192.740,163.490 193.091 C 163.667 193.551,163.587 193.639,163.206 193.404 C 162.866 193.193,162.772 193.232,162.945 193.511 C 163.253 194.009,162.029 196.800,161.502 196.800 C 161.310 196.800,161.256 196.968,161.383 197.173 C 161.664 197.627,160.391 200.400,159.902 200.400 C 159.710 200.400,159.657 200.568,159.784 200.774 C 160.062 201.224,158.386 204.800,157.897 204.800 C 157.708 204.800,157.651 204.959,157.772 205.154 C 158.029 205.571,154.893 212.538,154.359 212.734 C 154.159 212.808,154.090 213.021,154.205 213.208 C 154.468 213.634,152.764 217.200,152.297 217.200 C 152.108 217.200,152.053 217.362,152.176 217.561 C 152.442 217.991,149.319 224.940,148.773 225.134 C 148.565 225.208,148.490 225.421,148.605 225.608 C 148.868 226.034,147.164 229.600,146.697 229.600 C 146.508 229.600,146.453 229.762,146.576 229.961 C 146.842 230.391,143.719 237.340,143.173 237.534 C 142.965 237.608,142.890 237.821,143.005 238.008 C 143.268 238.434,141.564 242.000,141.097 242.000 C 140.908 242.000,140.856 242.168,140.983 242.373 C 141.264 242.827,139.991 245.600,139.502 245.600 C 139.310 245.600,139.257 245.768,139.384 245.974 C 139.662 246.424,137.986 250.000,137.497 250.000 C 137.308 250.000,137.253 250.163,137.376 250.361 C 137.692 250.873,135.786 254.846,135.395 254.492 C 135.217 254.331,135.194 254.413,135.342 254.673 C 135.649 255.207,134.440 258.000,133.902 258.000 C 133.710 258.000,133.657 258.168,133.784 258.374 C 134.062 258.824,132.386 262.400,131.897 262.400 C 131.708 262.400,131.653 262.562,131.776 262.761 C 132.042 263.191,128.919 270.140,128.373 270.334 C 128.165 270.408,128.093 270.627,128.213 270.820 C 128.465 271.229,126.906 274.459,126.246 274.894 C 126.001 275.056,132.010 275.190,139.600 275.192 L 153.400 275.196 155.994 268.632 C 157.420 265.022,158.723 262.152,158.889 262.255 C 159.055 262.358,159.093 262.185,158.972 261.872 C 158.852 261.559,159.026 261.031,159.358 260.699 C 159.690 260.367,159.882 260.016,159.785 259.919 C 159.454 259.588,163.049 251.182,163.389 251.492 C 163.576 251.661,163.607 251.588,163.459 251.330 C 163.120 250.738,164.531 247.064,164.940 247.474 C 165.106 247.640,165.132 247.489,164.998 247.139 C 164.864 246.789,165.004 246.253,165.309 245.948 C 165.614 245.643,165.797 245.190,165.714 244.943 C 165.632 244.695,165.797 244.247,166.082 243.946 C 166.367 243.646,166.600 243.220,166.601 243.000 C 166.601 242.780,166.951 241.655,167.380 240.500 L 168.158 238.400 200.000 238.400 L 231.842 238.400 232.620 240.500 C 233.049 241.655,233.399 242.780,233.399 243.000 C 233.400 243.220,233.635 243.648,233.923 243.952 C 234.211 244.255,234.336 244.789,234.202 245.139 C 234.068 245.489,234.091 245.642,234.254 245.479 C 234.417 245.316,235.504 247.559,236.670 250.464 C 237.835 253.368,238.710 255.823,238.614 255.920 C 238.517 256.016,238.710 256.367,239.042 256.699 C 239.374 257.031,239.536 257.589,239.402 257.939 C 239.268 258.289,239.291 258.442,239.454 258.279 C 239.617 258.116,240.704 260.359,241.870 263.264 C 243.035 266.168,243.910 268.623,243.814 268.720 C 243.717 268.816,243.910 269.167,244.242 269.499 C 244.574 269.831,244.748 270.359,244.628 270.672 C 244.507 270.988,244.586 271.133,244.805 270.997 C 245.169 270.772,245.360 271.432,245.303 272.727 C 245.290 273.016,245.385 273.148,245.513 273.020 C 245.642 272.892,245.975 273.330,246.254 273.993 L 246.761 275.200 260.008 275.200 L 273.254 275.200 272.976 274.300 C 272.823 273.805,272.354 272.719,271.934 271.886 C 271.513 271.054,271.277 270.199,271.408 269.986 C 271.540 269.774,271.492 269.600,271.303 269.600 C 270.814 269.600,269.138 266.024,269.416 265.574 C 269.543 265.368,269.490 265.200,269.298 265.200 C 268.760 265.200,267.551 262.407,267.858 261.873 C 268.006 261.613,267.980 261.534,267.799 261.698 C 267.376 262.082,265.918 258.856,266.263 258.298 C 266.428 258.032,266.328 257.997,265.994 258.204 C 265.613 258.439,265.533 258.351,265.710 257.891 C 265.845 257.540,265.796 257.195,265.602 257.126 C 265.074 256.937,261.966 249.979,262.224 249.561 C 262.347 249.362,262.292 249.200,262.103 249.200 C 261.636 249.200,259.932 245.634,260.195 245.208 C 260.310 245.021,260.235 244.808,260.027 244.734 C 259.508 244.550,256.352 237.601,256.603 237.195 C 256.714 237.015,256.635 236.808,256.427 236.734 C 255.881 236.540,252.758 229.591,253.024 229.161 C 253.147 228.962,253.092 228.800,252.903 228.800 C 252.436 228.800,250.732 225.234,250.995 224.808 C 251.110 224.621,251.041 224.408,250.841 224.334 C 250.307 224.138,247.171 217.171,247.428 216.754 C 247.549 216.559,247.492 216.400,247.303 216.400 C 246.814 216.400,245.138 212.824,245.416 212.374 C 245.543 212.168,245.490 212.000,245.298 212.000 C 244.809 212.000,243.536 209.227,243.817 208.773 C 243.944 208.568,243.892 208.400,243.703 208.400 C 243.214 208.400,241.538 204.824,241.816 204.374 C 241.943 204.168,241.890 204.000,241.698 204.000 C 241.209 204.000,239.936 201.227,240.217 200.773 C 240.344 200.568,240.292 200.400,240.103 200.400 C 239.614 200.400,237.938 196.824,238.216 196.374 C 238.343 196.168,238.292 196.000,238.103 196.000 C 237.614 196.000,235.938 192.424,236.216 191.974 C 236.343 191.768,236.290 191.600,236.098 191.600 C 235.609 191.600,234.336 188.827,234.617 188.373 C 234.744 188.168,234.692 188.000,234.503 188.000 C 234.014 188.000,232.338 184.424,232.616 183.974 C 232.743 183.768,232.690 183.600,232.498 183.600 C 232.009 183.600,230.736 180.827,231.017 180.373 C 231.144 180.168,231.092 180.000,230.903 180.000 C 230.414 180.000,228.738 176.424,229.016 175.974 C 229.143 175.768,229.092 175.600,228.903 175.600 C 228.414 175.600,226.738 172.024,227.016 171.574 C 227.143 171.368,227.090 171.200,226.898 171.200 C 226.409 171.200,225.136 168.427,225.417 167.973 C 225.544 167.768,225.492 167.600,225.303 167.600 C 224.836 167.600,223.132 164.034,223.395 163.608 C 223.510 163.421,223.438 163.208,223.234 163.134 C 222.651 162.923,219.976 156.762,220.265 156.295 C 220.428 156.032,220.327 155.998,219.994 156.204 C 219.613 156.439,219.533 156.351,219.710 155.891 C 219.845 155.540,219.802 155.195,219.616 155.126 C 219.099 154.934,215.978 147.959,216.228 147.554 C 216.349 147.359,216.292 147.200,216.103 147.200 C 215.614 147.200,213.938 143.624,214.216 143.174 C 214.343 142.968,214.290 142.800,214.098 142.800 C 213.609 142.800,212.336 140.027,212.617 139.573 C 212.744 139.368,212.692 139.200,212.503 139.200 C 212.036 139.200,210.332 135.634,210.595 135.208 C 210.710 135.021,210.641 134.808,210.441 134.734 C 209.907 134.538,206.771 127.571,207.028 127.154 C 207.149 126.959,207.092 126.800,206.903 126.800 C 206.414 126.800,204.738 123.224,205.016 122.774 C 205.143 122.568,205.090 122.400,204.898 122.400 C 204.409 122.400,203.136 119.627,203.417 119.173 C 203.544 118.968,203.492 118.800,203.303 118.800 C 202.814 118.800,201.138 115.224,201.416 114.774 C 201.543 114.568,201.469 114.400,201.251 114.400 C 201.032 114.400,200.740 114.040,200.600 113.600 C 200.460 113.160,200.190 112.800,200.000 112.800 C 199.810 112.800,199.540 113.160,199.400 113.600 M200.860 165.600 C 200.893 165.820,200.938 166.225,200.960 166.500 C 200.982 166.775,201.124 167.094,201.276 167.209 C 201.804 167.608,204.400 174.076,204.177 174.437 C 204.054 174.637,204.117 174.800,204.317 174.800 C 204.798 174.800,207.660 181.580,207.374 182.042 C 207.252 182.239,207.315 182.400,207.512 182.400 C 208.000 182.400,208.867 184.369,208.581 184.830 C 208.456 185.033,208.519 185.200,208.723 185.200 C 209.204 185.200,210.860 189.179,210.573 189.644 C 210.452 189.840,210.515 190.000,210.712 190.000 C 211.200 190.000,212.067 191.969,211.781 192.430 C 211.656 192.633,211.719 192.800,211.923 192.800 C 212.404 192.800,214.060 196.779,213.773 197.244 C 213.652 197.440,213.715 197.600,213.912 197.600 C 214.400 197.600,215.267 199.569,214.981 200.030 C 214.856 200.233,214.919 200.400,215.123 200.400 C 215.604 200.400,217.260 204.379,216.973 204.844 C 216.852 205.040,216.915 205.200,217.112 205.200 C 217.536 205.200,218.519 207.214,218.234 207.499 C 218.126 207.607,218.310 207.967,218.642 208.299 C 218.974 208.631,219.136 209.189,219.002 209.539 C 218.868 209.889,218.890 210.043,219.052 209.881 C 219.416 209.517,220.481 211.945,220.174 212.441 C 220.053 212.639,220.124 212.800,220.334 212.800 C 220.794 212.800,221.241 213.811,221.438 215.300 L 221.584 216.400 200.000 216.400 L 178.416 216.400 178.562 215.300 C 178.759 213.811,179.206 212.800,179.666 212.800 C 179.876 212.800,179.947 212.639,179.826 212.441 C 179.519 211.945,180.584 209.517,180.948 209.881 C 181.110 210.043,181.132 209.889,180.998 209.539 C 180.864 209.189,181.026 208.631,181.358 208.299 C 181.690 207.967,181.874 207.607,181.766 207.499 C 181.481 207.214,182.464 205.200,182.888 205.200 C 183.085 205.200,183.148 205.040,183.027 204.844 C 182.740 204.379,184.396 200.400,184.877 200.400 C 185.081 200.400,185.144 200.233,185.019 200.030 C 184.733 199.569,185.600 197.600,186.088 197.600 C 186.285 197.600,186.348 197.440,186.227 197.244 C 185.940 196.779,187.596 192.800,188.077 192.800 C 188.281 192.800,188.344 192.633,188.219 192.430 C 187.933 191.969,188.800 190.000,189.288 190.000 C 189.485 190.000,189.548 189.840,189.427 189.644 C 189.140 189.179,190.796 185.200,191.277 185.200 C 191.481 185.200,191.544 185.033,191.419 184.830 C 191.133 184.369,192.000 182.400,192.488 182.400 C 192.685 182.400,192.748 182.239,192.626 182.042 C 192.340 181.580,195.202 174.800,195.683 174.800 C 195.883 174.800,195.946 174.637,195.823 174.437 C 195.600 174.076,198.196 167.608,198.724 167.209 C 198.876 167.094,199.018 166.775,199.040 166.500 C 199.133 165.343,199.238 165.200,200.000 165.200 C 200.440 165.200,200.827 165.380,200.860 165.600 " stroke="none" fill="#000000" fill-rule="evenodd"></path></g></svg>