<svg id="svg" version="1.1" xmlns="http://www.w3.org/2000/svg" xmlns:xlink="http://www.w3.org/1999/xlink" width="400" height="400" viewBox="0, 0, 400,400"><g id="svgg"><path id="path0" d="M187.600 52.257 C 100.855 60.155,39.730 138.759,53.828 224.283 C 67.125 304.955,143.409 359.503,224.283 346.172 C 304.955 332.875,359.503 256.591,346.172 175.717 C 335.542 111.228,284.972 62.353,219.178 52.979 C 214.766 52.351,192.232 51.835,187.600 52.257 M277.115 100.414 C 286.533 101.943,294.368 109.118,297.048 118.668 C 297.561 120.497,297.769 123.975,298.012 134.800 C 298.648 163.103,302.504 177.753,311.765 187.047 C 315.839 191.136,318.456 192.520,324.500 193.785 L 325.600 194.015 325.600 200.200 L 325.600 206.385 324.500 206.615 C 318.409 207.890,315.334 209.533,311.465 213.584 C 307.049 218.205,304.405 223.338,301.846 232.254 C 299.162 241.607,298.403 248.207,298.012 265.600 C 297.680 280.396,297.497 281.810,295.351 286.192 C 291.570 293.914,284.491 299.038,276.220 300.038 C 274.206 300.281,244.758 300.385,197.600 300.314 L 122.200 300.200 119.600 299.315 C 106.822 294.963,102.335 286.951,102.176 268.200 C 101.928 239.146,97.508 222.193,87.713 212.738 C 84.155 209.302,81.155 207.798,75.500 206.615 L 74.400 206.385 74.400 200.200 L 74.400 194.015 75.500 193.785 C 81.702 192.487,84.698 190.863,88.707 186.622 C 97.787 177.017,101.947 160.089,102.167 131.853 C 102.250 121.153,102.267 120.952,103.371 117.600 C 106.392 108.425,113.699 101.930,122.705 100.413 C 125.616 99.923,274.094 99.924,277.115 100.414 M161.600 200.178 L 161.600 253.600 185.900 253.598 C 212.138 253.595,214.291 253.462,221.323 251.416 C 249.637 243.174,250.339 204.928,222.304 198.026 L 217.800 196.918 220.200 196.223 C 239.835 190.543,243.562 164.097,226.377 152.390 C 218.859 147.267,217.473 147.073,187.300 146.902 L 161.600 146.757 161.600 200.178 M208.583 161.391 C 218.088 164.093,222.568 172.456,219.229 181.262 C 216.030 189.697,209.884 192.000,190.574 192.000 L 178.800 192.000 178.800 176.154 L 178.800 160.309 192.500 160.511 C 203.723 160.677,206.631 160.836,208.583 161.391 M211.800 206.168 C 222.510 209.284,227.463 217.607,224.470 227.460 C 221.454 237.389,216.043 239.545,193.300 239.880 L 178.800 240.094 178.800 222.617 L 178.800 205.141 194.100 205.306 C 207.139 205.446,209.755 205.573,211.800 206.168 " stroke="none" fill="#000000" fill-rule="evenodd"></path></g></svg>