<svg id="svg" version="1.1" xmlns="http://www.w3.org/2000/svg" xmlns:xlink="http://www.w3.org/1999/xlink" width="400" height="400" viewBox="0, 0, 400,400"><g id="svgg"><path id="path0" d="M187.600 52.257 C 100.855 60.155,39.730 138.759,53.828 224.283 C 67.125 304.955,143.409 359.503,224.283 346.172 C 304.955 332.875,359.503 256.591,346.172 175.717 C 335.542 111.228,284.972 62.353,219.178 52.979 C 214.766 52.351,192.232 51.835,187.600 52.257 M207.200 116.787 C 237.039 124.643,244.798 161.003,220.600 179.585 C 213.078 185.362,202.252 187.958,193.038 186.195 C 188.636 185.352,181.652 182.811,181.267 181.911 C 181.193 181.740,180.961 181.600,180.750 181.600 C 178.254 181.600,169.621 172.383,166.701 166.600 C 153.642 140.740,179.126 109.396,207.200 116.787 M194.800 123.857 C 171.924 127.488,163.260 155.438,180.056 171.421 C 183.382 174.586,185.471 175.834,191.178 178.070 C 194.533 179.385,204.266 179.218,207.839 177.784 C 229.565 169.063,233.657 144.055,215.818 129.029 C 214.829 128.196,211.148 126.239,207.800 124.766 C 206.929 124.383,202.685 123.676,199.929 123.455 C 198.978 123.379,196.670 123.560,194.800 123.857 M123.274 146.202 C 126.306 146.826,126.486 146.887,129.800 148.411 C 146.479 156.077,150.587 178.667,137.643 191.535 C 133.747 195.408,133.264 195.738,127.572 198.421 C 119.361 202.291,106.058 199.580,98.583 192.514 C 78.809 173.821,96.475 140.686,123.274 146.202 M288.521 146.224 C 296.243 147.897,303.235 153.007,306.939 159.684 C 317.034 177.882,303.763 200.064,282.780 200.064 C 262.360 200.064,249.137 179.231,257.987 161.000 C 261.081 154.626,265.595 150.569,273.400 147.147 C 276.743 145.682,283.980 145.240,288.521 146.224 M113.000 153.763 C 103.460 156.122,96.889 165.797,98.279 175.439 C 100.617 191.670,120.038 198.241,131.634 186.725 C 145.554 172.902,132.068 149.047,113.000 153.763 M278.400 153.657 C 269.902 155.409,263.200 163.850,263.200 172.800 C 263.200 190.403,284.395 199.201,296.600 186.665 C 310.344 172.549,297.729 149.671,278.400 153.657 M207.266 193.395 C 207.780 193.468,209.100 193.654,210.200 193.808 C 213.357 194.250,220.732 196.257,221.380 196.851 C 221.589 197.043,221.995 197.200,222.282 197.200 C 223.423 197.200,230.819 201.068,234.631 203.658 C 248.419 213.028,257.638 227.284,260.422 243.540 C 261.594 250.379,261.497 254.794,260.145 256.145 L 259.091 257.200 199.981 257.200 L 140.871 257.200 139.790 255.915 C 137.618 253.334,139.616 239.717,143.534 230.392 C 147.013 222.113,153.951 212.697,160.281 207.664 C 161.205 206.929,162.375 205.987,162.881 205.571 C 163.386 205.155,163.980 204.669,164.200 204.490 C 165.561 203.384,172.275 199.559,174.800 198.451 C 179.005 196.605,179.165 196.542,181.400 195.869 C 186.606 194.302,189.752 193.687,194.400 193.329 C 196.050 193.202,197.490 193.012,197.600 192.908 C 197.787 192.730,205.214 193.104,207.266 193.395 M194.200 201.012 C 176.414 202.945,161.464 213.148,152.850 229.233 C 149.974 234.603,147.200 244.037,147.200 248.446 L 147.200 250.003 200.100 249.901 L 253.000 249.800 252.876 247.600 C 251.864 229.618,238.400 212.293,219.000 204.008 C 212.639 201.291,202.690 200.089,194.200 201.012 M125.059 208.064 C 128.407 208.572,132.935 209.658,133.380 210.058 C 133.589 210.246,133.995 210.400,134.282 210.400 C 135.405 210.400,142.381 214.050,143.167 215.049 C 146.017 218.672,141.560 222.239,137.121 219.889 C 129.262 215.727,116.840 213.915,110.264 215.969 C 109.569 216.186,108.010 216.657,106.800 217.015 C 95.936 220.232,86.425 229.306,82.422 240.274 C 81.139 243.790,80.010 248.704,80.302 249.500 C 80.446 249.893,85.875 250.000,105.607 250.000 L 130.729 250.000 131.764 251.231 C 133.088 252.804,133.088 254.396,131.764 255.969 L 130.729 257.200 102.400 257.200 L 74.071 257.200 72.981 255.904 C 71.907 254.628,71.894 254.547,72.138 250.560 C 73.760 224.047,98.658 204.053,125.059 208.064 M289.562 208.030 C 290.133 208.202,291.590 208.559,292.800 208.823 C 311.713 212.942,325.940 229.059,328.370 249.119 C 329.431 257.872,331.871 257.222,297.954 257.215 L 269.800 257.208 268.657 255.949 C 267.261 254.413,267.393 252.426,268.996 250.822 L 270.018 249.800 295.224 249.686 L 320.431 249.571 320.182 248.086 C 317.752 233.602,306.938 220.890,293.800 217.071 C 292.480 216.688,290.800 216.183,290.066 215.949 C 288.276 215.378,279.545 215.162,276.800 215.620 C 274.849 215.945,273.677 216.191,270.550 216.933 C 269.435 217.198,265.846 218.742,263.679 219.889 C 260.074 221.797,256.618 220.518,256.618 217.274 C 256.618 215.150,257.473 214.256,261.292 212.383 C 265.733 210.206,268.523 209.307,274.800 208.028 C 276.966 207.586,288.099 207.588,289.562 208.030 " stroke="none" fill="#000000" fill-rule="evenodd"></path></g></svg>