<svg id="svg" version="1.1" xmlns="http://www.w3.org/2000/svg" xmlns:xlink="http://www.w3.org/1999/xlink" width="400" height="400" viewBox="0, 0, 400,400"><g id="svgg"><path id="path0" d="M187.600 52.257 C 100.855 60.155,39.730 138.759,53.828 224.283 C 67.125 304.955,143.409 359.503,224.283 346.172 C 304.955 332.875,359.503 256.591,346.172 175.717 C 335.542 111.228,284.972 62.353,219.178 52.979 C 214.766 52.351,192.232 51.835,187.600 52.257 M208.024 100.971 C 250.466 103.981,286.441 135.796,296.824 179.502 C 300.472 194.854,300.615 214.485,297.150 223.874 C 287.375 250.355,252.019 258.194,232.414 238.227 C 229.774 235.538,229.899 235.548,227.850 237.875 C 216.121 251.205,192.588 253.407,177.400 242.597 C 169.455 236.942,164.508 228.943,161.323 216.600 C 159.471 209.424,160.404 195.084,163.273 186.634 C 170.769 164.557,195.923 153.986,216.665 164.196 C 221.038 166.348,220.782 166.327,221.881 164.630 C 225.858 158.488,235.161 159.134,238.729 165.800 L 239.800 167.800 240.008 191.200 C 240.189 211.518,240.302 214.814,240.865 216.228 C 248.205 234.649,273.209 234.238,279.087 215.600 C 280.478 211.187,279.843 194.650,277.950 186.000 C 269.354 146.726,237.969 120.364,199.858 120.404 C 162.153 120.444,129.212 147.132,121.854 183.600 C 108.904 247.784,171.730 298.487,232.400 272.816 C 239.894 269.645,243.046 269.800,246.754 273.524 C 251.776 278.567,250.106 286.115,243.200 289.587 C 216.036 303.242,178.746 302.333,151.846 287.361 C 124.668 272.234,108.460 249.571,101.793 217.375 C 100.454 210.909,100.053 196.801,100.984 188.908 C 107.326 135.127,153.600 97.111,208.024 100.971 M195.000 180.564 C 183.672 183.376,177.438 197.622,180.806 213.000 C 185.812 235.855,214.188 235.855,219.194 213.000 C 223.655 192.635,211.581 176.449,195.000 180.564 " stroke="none" fill="#000000" fill-rule="evenodd"></path></g></svg>