<?xml version="1.0" standalone="no"?>
<!DOCTYPE svg PUBLIC "-//W3C//DTD SVG 20010904//EN"
 "http://www.w3.org/TR/2001/REC-SVG-20010904/DTD/svg10.dtd">
<svg version="1.0" xmlns="http://www.w3.org/2000/svg"
 width="1000.000000pt" height="1000.000000pt" viewBox="0 0 1000.000000 1000.000000"
 preserveAspectRatio="xMidYMid meet">

<g transform="translate(0.000000,1000.000000) scale(0.100000,-0.100000)"
fill="#000000" stroke="none">
<path d="M4765 8494 c-886 -70 -1660 -430 -2270 -1055 -557 -571 -876 -1249
-977 -2074 -7 -56 -12 -217 -12 -365 0 -268 7 -362 45 -588 96 -577 346 -1135
715 -1597 113 -141 408 -436 549 -549 456 -364 985 -604 1565 -710 231 -42
341 -51 620 -51 279 0 389 9 620 51 580 106 1108 345 1565 710 147 117 459
431 569 574 411 530 643 1103 728 1795 16 130 16 600 0 730 -42 345 -117 648
-232 935 -318 794 -936 1462 -1705 1840 -357 175 -704 279 -1125 335 -110 15
-546 27 -655 19z m-365 -2299 l0 -265 -555 0 -555 0 0 -290 0 -290 525 0 525
0 0 -265 0 -265 -525 0 -525 0 0 -335 0 -335 585 0 585 0 0 -265 0 -265 -910
0 -910 0 0 1420 0 1420 880 0 880 0 0 -265z m1671 -287 c336 -593 527 -961
654 -1260 44 -102 80 -186 81 -185 1 1 -4 65 -12 142 -26 282 -34 544 -34
1193 l0 662 295 0 295 0 0 -1420 0 -1420 -342 2 -343 3 -337 610 c-352 635
-547 1008 -680 1305 l-79 175 5 -75 c3 -41 8 -513 12 -1047 l6 -973 -296 0
-296 0 0 1420 0 1420 379 0 379 0 313 -552z"/>
</g>
</svg>
