<?xml version="1.0" standalone="no"?>
<!DOCTYPE svg PUBLIC "-//W3C//DTD SVG 20010904//EN"
 "http://www.w3.org/TR/2001/REC-SVG-20010904/DTD/svg10.dtd">
<svg version="1.0" xmlns="http://www.w3.org/2000/svg"
 width="1000.000000pt" height="1000.000000pt" viewBox="0 0 1000.000000 1000.000000"
 preserveAspectRatio="xMidYMid meet">

<g transform="translate(0.000000,1000.000000) scale(0.100000,-0.100000)"
fill="#000000" stroke="none">
<path d="M4765 8984 c-886 -70 -1660 -430 -2270 -1055 -557 -571 -876 -1249
-977 -2074 -7 -56 -12 -217 -12 -365 0 -268 7 -362 45 -588 96 -577 346 -1135
715 -1597 113 -141 408 -436 549 -549 456 -364 985 -604 1565 -710 231 -42
341 -51 620 -51 279 0 389 9 620 51 580 106 1108 345 1565 710 147 117 459
431 569 574 411 530 643 1103 728 1795 16 130 16 600 0 730 -42 345 -117 648
-232 935 -318 794 -936 1462 -1705 1840 -357 175 -704 279 -1125 335 -110 15
-546 27 -655 19z m1928 -2113 c104 -21 241 -62 320 -96 28 -11 37 -20 33 -33
-3 -9 -35 -125 -71 -257 -37 -132 -68 -241 -70 -243 -2 -2 -39 9 -82 26 -189
72 -308 95 -488 96 -136 1 -208 -11 -280 -46 -175 -87 -201 -292 -52 -410 69
-54 165 -101 397 -193 300 -118 436 -199 564 -336 136 -144 196 -304 196 -519
0 -185 -46 -338 -144 -473 -140 -197 -358 -322 -671 -384 -140 -28 -528 -25
-685 4 -179 34 -427 114 -445 143 -4 6 99 450 121 522 4 14 13 13 77 -16 274
-125 628 -176 834 -122 125 33 210 103 237 197 33 109 11 193 -70 274 -62 63
-219 144 -404 210 -237 84 -417 189 -546 319 -145 145 -204 281 -212 483 -6
155 12 243 78 379 55 114 148 223 256 300 127 91 321 165 507 193 34 5 159 8
277 7 172 -3 237 -8 323 -25z m-1973 -276 l0 -265 -555 0 -555 0 0 -290 0
-290 523 -2 522 -3 3 -262 2 -263 -525 0 -525 0 0 -335 0 -335 585 0 585 0 0
-265 0 -265 -910 0 -910 0 0 1420 0 1420 880 0 880 0 0 -265z"/>
</g>
</svg>
