<svg id="svg" version="1.1" xmlns="http://www.w3.org/2000/svg" xmlns:xlink="http://www.w3.org/1999/xlink" width="400" height="400" viewBox="0, 0, 400,400"><g id="svgg"><path id="path0" d="M187.600 52.257 C 100.855 60.155,39.730 138.759,53.828 224.283 C 67.125 304.955,143.409 359.503,224.283 346.172 C 304.955 332.875,359.503 256.591,346.172 175.717 C 335.542 111.228,284.972 62.353,219.178 52.979 C 214.766 52.351,192.232 51.835,187.600 52.257 M195.587 113.637 C 198.010 115.392,211.249 129.609,212.494 131.792 C 212.824 132.371,201.453 145.739,197.090 149.900 C 193.892 152.951,192.203 153.258,189.991 151.192 C 188.090 149.416,188.459 148.050,192.388 142.303 C 196.576 136.179,197.034 136.686,187.500 136.896 C 164.636 137.399,155.235 146.329,153.838 168.869 C 153.110 180.630,146.680 192.695,137.800 198.967 C 132.856 202.458,128.291 203.579,117.800 203.874 C 106.929 204.181,103.200 203.195,103.200 200.013 C 103.200 196.374,107.357 194.952,120.200 194.197 C 130.347 193.601,133.040 192.624,137.328 187.983 C 142.042 182.882,144.180 177.987,145.620 169.000 C 146.043 166.360,146.677 162.431,147.030 160.269 C 149.112 147.514,156.469 136.245,165.800 131.516 C 172.036 128.357,176.120 127.610,187.867 127.483 C 194.992 127.406,196.788 127.178,195.773 126.478 C 194.882 125.865,191.596 121.290,190.832 119.600 C 188.438 114.307,191.394 110.599,195.587 113.637 M250.137 128.757 C 265.144 132.724,273.508 144.372,276.420 165.356 C 278.382 179.504,281.591 185.938,289.144 190.869 C 294.030 194.058,298.621 194.730,315.876 194.781 C 323.464 194.803,323.454 194.810,320.782 191.518 C 316.157 185.818,315.904 179.992,320.282 180.003 C 322.848 180.009,340.331 198.084,339.338 199.704 C 338.398 201.238,325.062 216.424,323.623 217.600 C 320.062 220.509,318.398 220.650,317.346 218.133 C 316.475 216.047,317.218 213.301,319.372 210.653 C 321.823 207.638,322.659 206.099,322.131 205.571 C 320.375 203.815,281.035 203.578,270.203 205.258 C 256.270 207.419,249.208 217.426,247.616 237.264 C 245.865 259.086,229.149 273.751,208.842 271.279 C 204.484 270.748,203.446 270.027,203.276 267.411 C 203.046 263.867,206.059 262.134,213.080 261.772 C 230.846 260.855,236.732 254.073,240.381 230.311 C 242.200 218.466,246.530 208.281,251.662 203.775 C 257.816 198.372,266.806 194.800,274.252 194.800 C 278.853 194.800,278.808 194.904,276.105 190.582 C 270.990 182.406,268.989 176.365,268.359 167.200 C 267.051 148.173,257.934 138.137,240.760 136.817 C 232.819 136.207,230.432 134.192,232.626 129.950 C 233.959 127.371,242.655 126.779,250.137 128.757 M214.916 180.454 C 218.640 182.343,233.256 198.801,232.253 199.977 C 231.961 200.320,229.225 203.570,226.173 207.200 C 214.702 220.842,212.608 222.189,210.525 217.266 C 209.578 215.027,210.401 213.231,214.878 207.765 C 216.155 206.206,217.200 204.719,217.200 204.460 C 217.200 204.106,211.948 203.992,195.900 203.996 C 162.020 204.005,160.398 203.745,162.085 198.577 C 163.220 195.101,165.865 194.789,194.072 194.804 C 206.741 194.810,215.236 194.666,215.375 194.441 C 215.502 194.235,214.848 192.926,213.921 191.533 C 210.160 185.882,209.343 181.471,211.800 180.078 C 212.883 179.464,212.988 179.477,214.916 180.454 M71.088 196.023 C 81.147 198.841,89.000 205.763,93.103 215.428 C 94.608 218.973,95.281 221.931,96.799 231.660 C 99.962 251.936,105.858 259.673,119.284 261.168 C 123.112 261.594,167.200 261.808,167.200 261.401 C 167.200 261.291,166.591 260.346,165.846 259.301 C 160.531 251.838,160.883 244.547,166.420 247.410 C 169.829 249.173,184.775 266.097,183.866 267.165 C 183.569 267.514,180.662 270.950,177.407 274.800 C 167.112 286.973,165.492 288.385,163.721 286.731 C 160.492 283.715,160.962 281.689,166.465 274.931 C 169.012 271.803,169.203 271.401,167.999 271.716 C 167.559 271.831,167.300 271.762,167.423 271.563 C 167.556 271.348,159.199 271.200,146.881 271.200 C 113.111 271.200,109.295 270.552,101.805 263.545 C 94.808 256.999,90.434 247.109,89.182 235.000 C 87.373 217.501,80.538 207.929,67.600 204.772 C 61.475 203.278,60.075 201.959,60.511 198.092 C 60.915 194.506,63.717 193.958,71.088 196.023 " stroke="none" fill="#000000" fill-rule="evenodd"></path></g></svg>