<svg id="svg" version="1.1" xmlns="http://www.w3.org/2000/svg" xmlns:xlink="http://www.w3.org/1999/xlink" width="400" height="400" viewBox="0, 0, 400,400"><g id="svgg"><path id="path0" d="M187.600 52.257 C 100.855 60.155,39.730 138.759,53.828 224.283 C 67.125 304.955,143.409 359.503,224.283 346.172 C 304.955 332.875,359.503 256.591,346.172 175.717 C 335.542 111.228,284.972 62.353,219.178 52.979 C 214.766 52.351,192.232 51.835,187.600 52.257 M203.985 74.896 C 204.967 75.147,206.587 75.793,207.585 76.331 C 210.470 77.889,322.424 189.983,323.709 192.600 C 326.136 197.544,326.180 202.296,323.844 206.936 C 321.630 211.332,211.683 321.633,207.557 323.596 C 202.857 325.832,197.704 325.896,193.252 323.773 C 190.058 322.249,78.290 210.705,76.457 207.212 C 73.846 202.234,73.763 197.492,76.198 192.464 C 77.650 189.466,78.502 188.584,115.890 151.400 C 136.904 130.500,154.217 113.353,154.363 113.295 C 154.509 113.238,160.886 119.576,168.534 127.381 L 182.439 141.572 181.820 143.659 C 179.427 151.716,183.988 162.578,191.100 165.761 L 192.800 166.521 192.800 201.004 L 192.800 235.486 190.475 236.921 C 170.431 249.293,185.721 280.224,207.616 271.594 C 222.068 265.897,224.033 243.958,210.700 237.150 L 209.200 236.384 209.200 202.293 L 209.200 168.202 222.016 181.018 L 234.833 193.834 234.216 196.201 C 229.124 215.751,253.569 228.869,267.352 213.983 C 280.233 200.070,266.198 177.181,247.988 182.403 C 246.975 182.694,246.057 181.861,233.018 168.818 L 219.127 154.923 219.638 151.881 C 221.951 138.115,207.464 125.242,195.200 130.166 C 194.785 130.333,190.163 125.968,180.229 116.030 L 165.858 101.654 171.087 96.127 C 191.027 75.052,194.870 72.572,203.985 74.896 " stroke="none" fill="#000000" fill-rule="evenodd"></path></g></svg>