<svg id="svg" xmlns="http://www.w3.org/2000/svg" xmlns:xlink="http://www.w3.org/1999/xlink" width="400" height="400" viewBox="0, 0, 400,400"><g id="svgg"><path id="path0" d="M187.600 52.257 C 100.855 60.155,39.730 138.759,53.828 224.283 C 67.125 304.955,143.409 359.503,224.283 346.172 C 304.955 332.875,359.503 256.591,346.172 175.717 C 335.542 111.228,284.972 62.353,219.178 52.979 C 214.766 52.351,192.232 51.835,187.600 52.257 M137.361 123.663 C 137.151 124.002,137.630 124.061,139.150 123.880 C 140.614 123.707,141.145 123.765,140.953 124.076 C 140.767 124.377,141.016 124.433,141.740 124.251 C 142.351 124.097,142.800 124.152,142.800 124.380 C 142.800 124.597,143.100 124.660,143.466 124.519 C 143.939 124.338,144.040 124.412,143.816 124.775 C 143.579 125.158,143.726 125.214,144.400 125.000 C 144.965 124.821,145.208 124.864,145.052 125.115 C 144.750 125.605,145.907 126.105,146.498 125.739 C 146.732 125.595,146.811 125.658,146.674 125.880 C 146.537 126.102,146.881 126.491,147.438 126.745 C 148.201 127.092,148.381 127.092,148.166 126.745 C 147.418 125.535,150.898 128.128,153.609 130.800 C 156.511 133.661,159.243 137.047,157.965 136.200 C 157.634 135.980,157.821 136.225,158.381 136.744 C 158.941 137.263,159.157 137.556,158.860 137.396 C 158.424 137.160,158.408 137.267,158.774 137.952 C 159.024 138.418,159.322 138.800,159.438 138.800 C 159.553 138.800,159.519 138.592,159.362 138.338 C 159.182 138.046,159.252 137.985,159.554 138.172 C 159.828 138.341,159.922 138.816,159.773 139.284 C 159.596 139.843,159.659 140.011,159.973 139.817 C 160.298 139.616,160.352 139.852,160.158 140.626 C 160.003 141.242,160.040 141.623,160.242 141.498 C 160.440 141.375,160.600 142.579,160.600 144.199 C 160.600 145.819,160.440 147.024,160.242 146.901 C 160.044 146.780,159.994 147.122,160.130 147.664 C 160.358 148.572,158.824 151.600,158.137 151.600 C 158.008 151.600,158.059 151.366,158.251 151.081 C 158.443 150.796,158.238 150.970,157.795 151.469 C 157.231 152.103,156.722 152.305,156.095 152.141 C 155.563 152.002,155.200 152.088,155.200 152.353 C 155.200 152.599,154.829 152.800,154.376 152.800 C 153.854 152.800,153.658 152.630,153.839 152.337 C 154.037 152.016,153.845 151.947,153.212 152.113 C 152.100 152.404,150.695 151.545,149.505 149.847 C 148.987 149.107,148.877 148.763,149.235 149.000 C 149.566 149.220,149.379 148.975,148.819 148.456 C 148.259 147.937,148.070 147.651,148.400 147.822 C 148.730 147.992,148.505 147.660,147.900 147.085 C 146.795 146.033,146.420 145.318,147.240 145.825 C 147.549 146.016,147.545 145.844,147.226 145.248 C 146.750 144.360,146.166 144.031,146.606 144.900 C 146.745 145.175,146.572 145.045,146.221 144.611 C 145.870 144.178,145.668 143.599,145.774 143.324 C 145.879 143.050,145.765 142.702,145.521 142.551 C 145.233 142.373,145.190 142.461,145.400 142.800 C 145.621 143.157,145.568 143.227,145.235 143.021 C 144.966 142.855,144.840 142.473,144.955 142.172 C 145.071 141.872,144.965 141.502,144.721 141.351 C 144.430 141.171,144.387 141.270,144.597 141.638 C 144.840 142.064,144.800 142.092,144.431 141.752 C 144.163 141.506,143.907 141.056,143.861 140.752 C 143.732 139.901,143.180 139.165,142.831 139.381 C 142.659 139.487,142.176 139.297,141.759 138.958 C 141.342 138.618,141.253 138.472,141.562 138.632 C 141.922 138.819,142.025 138.764,141.849 138.479 C 141.698 138.235,141.281 138.148,140.922 138.285 C 140.488 138.452,140.365 138.380,140.555 138.073 C 140.742 137.770,140.626 137.692,140.221 137.847 C 139.879 137.978,139.600 137.903,139.600 137.680 C 139.600 137.457,139.212 137.376,138.737 137.500 C 138.146 137.655,137.965 137.580,138.161 137.263 C 138.362 136.938,137.903 136.800,136.624 136.800 C 135.598 136.800,134.800 136.987,134.800 137.227 C 134.800 137.472,134.459 137.546,134.000 137.400 C 133.551 137.258,133.200 137.328,133.200 137.560 C 133.200 137.788,132.900 137.860,132.534 137.719 C 132.141 137.568,131.969 137.627,132.115 137.862 C 132.250 138.081,131.546 138.655,130.551 139.139 C 129.480 139.659,128.849 139.810,129.006 139.509 C 129.151 139.229,128.939 139.395,128.535 139.877 C 128.131 140.359,127.146 141.267,126.348 141.895 C 125.549 142.523,122.939 144.919,120.549 147.218 C 118.158 149.518,116.733 150.950,117.383 150.400 C 118.768 149.227,115.819 153.082,114.018 154.800 C 113.441 155.350,113.246 155.620,113.584 155.400 C 114.464 154.828,113.419 156.269,112.029 157.544 C 111.463 158.063,111.251 158.351,111.558 158.185 C 111.961 157.965,111.922 158.209,111.415 159.067 C 110.685 160.303,108.937 162.574,109.389 161.700 C 109.531 161.425,109.553 161.200,109.438 161.200 C 109.322 161.200,109.024 161.582,108.774 162.048 C 108.426 162.700,108.432 162.828,108.800 162.600 C 109.168 162.372,109.174 162.500,108.826 163.152 C 108.576 163.618,108.278 164.000,108.162 164.000 C 108.047 164.000,108.064 163.820,108.200 163.600 C 108.336 163.380,108.353 163.200,108.238 163.200 C 108.122 163.200,107.824 163.582,107.574 164.048 C 107.228 164.695,107.233 164.827,107.593 164.604 C 107.870 164.433,107.800 164.827,107.423 165.556 C 107.069 166.240,106.683 166.800,106.566 166.800 C 106.449 166.800,106.481 166.592,106.638 166.338 C 106.816 166.050,106.748 165.985,106.455 166.166 C 106.198 166.325,106.087 166.617,106.209 166.814 C 106.434 167.179,104.961 170.400,104.568 170.400 C 104.450 170.400,104.467 170.175,104.606 169.900 C 104.745 169.625,104.572 169.755,104.221 170.189 C 103.870 170.622,103.674 171.217,103.787 171.509 C 103.899 171.802,103.839 171.948,103.654 171.833 C 103.469 171.719,103.109 172.081,102.855 172.638 C 102.592 173.216,102.565 173.545,102.792 173.405 C 103.022 173.263,103.090 173.420,102.954 173.777 C 102.823 174.117,102.581 174.312,102.417 174.210 C 102.034 173.974,101.120 175.947,101.402 176.403 C 101.698 176.882,100.343 179.612,99.934 179.359 C 99.750 179.246,99.573 179.388,99.541 179.676 C 99.508 179.964,99.445 180.470,99.400 180.800 C 99.355 181.130,99.292 181.636,99.259 181.924 C 99.226 182.216,98.993 182.320,98.732 182.158 C 98.417 181.964,98.348 182.087,98.519 182.534 C 98.854 183.405,98.435 184.469,97.890 184.132 C 97.623 183.967,97.559 184.117,97.719 184.534 C 98.046 185.386,97.640 186.472,97.115 186.148 C 96.864 185.992,96.821 186.235,97.000 186.800 C 97.208 187.454,97.153 187.618,96.800 187.400 C 96.447 187.182,96.392 187.346,96.600 188.000 C 96.793 188.608,96.744 188.812,96.447 188.629 C 96.173 188.460,96.098 188.590,96.247 188.979 C 96.378 189.321,96.292 189.600,96.055 189.600 C 95.819 189.600,95.729 189.870,95.855 190.200 C 95.982 190.530,95.892 190.800,95.655 190.800 C 95.419 190.800,95.329 191.070,95.455 191.400 C 95.582 191.730,95.503 192.000,95.280 192.000 C 95.057 192.000,94.976 192.388,95.100 192.863 C 95.265 193.491,95.188 193.640,94.820 193.412 C 94.443 193.180,94.387 193.329,94.600 194.000 C 94.808 194.654,94.753 194.818,94.400 194.600 C 94.051 194.384,93.990 194.540,94.184 195.150 C 94.351 195.676,94.281 196.000,94.000 196.000 C 93.719 196.000,93.649 196.324,93.816 196.850 C 94.014 197.473,93.952 197.617,93.585 197.390 C 93.208 197.158,93.152 197.352,93.358 198.174 C 93.557 198.966,93.501 199.186,93.158 198.974 C 92.816 198.762,92.757 198.976,92.949 199.740 C 93.109 200.377,93.049 200.800,92.800 200.800 C 92.551 200.800,92.491 201.223,92.651 201.860 C 92.853 202.664,92.793 202.843,92.403 202.602 C 92.003 202.354,91.951 202.615,92.170 203.782 C 92.382 204.908,92.331 205.204,91.965 204.978 C 91.597 204.751,91.544 205.091,91.749 206.368 C 91.916 207.413,91.872 207.968,91.636 207.822 C 91.399 207.676,91.255 209.429,91.259 212.396 C 91.263 215.152,91.420 217.111,91.627 216.983 C 91.832 216.857,91.877 217.314,91.732 218.042 C 91.536 219.018,91.596 219.250,91.980 219.012 C 92.357 218.780,92.413 218.930,92.200 219.600 C 92.028 220.143,92.067 220.406,92.299 220.263 C 92.715 220.005,93.772 221.962,93.411 222.322 C 92.991 222.742,94.878 224.345,95.508 224.103 C 95.916 223.947,96.032 224.024,95.845 224.327 C 95.658 224.630,95.774 224.708,96.179 224.553 C 96.521 224.422,96.800 224.514,96.800 224.757 C 96.800 225.001,97.441 225.200,98.224 225.200 C 99.192 225.200,99.557 225.053,99.364 224.742 C 99.164 224.418,99.401 224.364,100.174 224.558 C 100.775 224.709,101.171 224.676,101.053 224.486 C 100.794 224.067,104.308 222.296,104.798 222.599 C 104.989 222.717,105.275 222.602,105.434 222.345 C 105.615 222.052,105.550 221.984,105.262 222.162 C 103.977 222.956,105.032 221.953,106.500 220.985 C 107.583 220.271,107.982 220.129,107.600 220.595 C 107.270 220.998,108.520 219.903,110.378 218.163 C 114.350 214.444,124.674 204.143,122.970 205.600 L 121.800 206.600 122.779 205.400 C 123.318 204.740,124.398 203.589,125.179 202.842 C 125.961 202.095,126.240 201.732,125.800 202.035 C 124.759 202.752,125.940 201.174,127.580 199.656 C 128.141 199.137,128.330 198.838,128.000 198.991 C 127.670 199.144,127.850 198.878,128.400 198.400 C 128.950 197.922,129.157 197.658,128.860 197.814 C 128.425 198.042,128.408 197.932,128.774 197.248 C 129.024 196.782,129.322 196.400,129.438 196.400 C 129.553 196.400,129.519 196.608,129.362 196.862 C 129.184 197.150,129.252 197.215,129.545 197.034 C 129.802 196.875,129.918 196.591,129.801 196.402 C 129.483 195.887,130.459 193.989,130.901 194.263 C 131.133 194.406,131.172 194.143,131.000 193.600 C 130.792 192.946,130.847 192.782,131.200 193.000 C 131.549 193.216,131.610 193.060,131.416 192.450 C 131.259 191.957,131.320 191.600,131.560 191.600 C 131.788 191.600,131.871 191.330,131.745 191.000 C 131.618 190.670,131.726 190.400,131.984 190.400 C 132.281 190.400,132.355 190.087,132.184 189.550 C 131.990 188.940,132.051 188.784,132.400 189.000 C 132.753 189.218,132.808 189.054,132.600 188.400 C 132.392 187.746,132.447 187.582,132.800 187.800 C 133.153 188.018,133.208 187.854,133.000 187.200 C 132.792 186.546,132.847 186.382,133.200 186.600 C 133.549 186.816,133.610 186.660,133.416 186.050 C 133.267 185.581,133.320 185.200,133.536 185.200 C 133.750 185.200,133.824 184.812,133.700 184.337 C 133.535 183.709,133.612 183.560,133.980 183.788 C 134.357 184.020,134.413 183.871,134.200 183.200 C 133.992 182.546,134.047 182.382,134.400 182.600 C 134.753 182.818,134.808 182.654,134.600 182.000 C 134.392 181.346,134.447 181.182,134.800 181.400 C 135.153 181.618,135.208 181.454,135.000 180.800 C 134.792 180.146,134.847 179.982,135.200 180.200 C 135.549 180.416,135.610 180.260,135.416 179.650 C 135.249 179.124,135.319 178.800,135.600 178.800 C 135.881 178.800,135.951 178.476,135.784 177.950 C 135.590 177.340,135.651 177.184,136.000 177.400 C 136.353 177.618,136.408 177.454,136.200 176.800 C 136.005 176.187,136.055 175.987,136.357 176.174 C 136.777 176.433,136.866 176.274,136.960 175.100 C 136.982 174.825,137.270 174.362,137.600 174.070 C 138.133 173.600,138.133 173.575,137.600 173.853 C 137.086 174.121,137.090 174.030,137.629 173.212 C 138.311 172.179,140.427 170.575,139.835 171.540 C 139.566 171.978,139.664 171.994,140.352 171.626 C 140.818 171.376,141.200 171.078,141.200 170.962 C 141.200 170.847,140.992 170.881,140.738 171.038 C 140.484 171.195,140.384 171.150,140.515 170.937 C 141.790 168.874,149.710 171.762,148.991 174.027 C 148.857 174.452,148.906 174.800,149.101 174.800 C 149.297 174.800,149.489 175.981,149.529 177.424 C 149.582 179.326,149.474 179.969,149.138 179.762 C 148.799 179.552,148.743 179.975,148.929 181.337 C 149.098 182.571,149.037 183.200,148.749 183.200 C 148.484 183.200,148.412 183.592,148.564 184.200 C 148.721 184.824,148.646 185.200,148.364 185.200 C 148.079 185.200,148.009 185.580,148.173 186.234 C 148.355 186.959,148.295 187.182,147.973 186.983 C 147.652 186.785,147.600 186.971,147.800 187.600 C 148.008 188.254,147.953 188.418,147.600 188.200 C 147.251 187.984,147.190 188.140,147.384 188.750 C 147.541 189.243,147.480 189.600,147.240 189.600 C 147.012 189.600,146.929 189.870,147.055 190.200 C 147.182 190.530,147.092 190.800,146.855 190.800 C 146.619 190.800,146.529 191.070,146.655 191.400 C 146.782 191.730,146.667 192.000,146.400 192.000 C 146.133 192.000,146.018 192.270,146.145 192.600 C 146.451 193.399,146.020 194.460,145.515 194.148 C 145.264 193.992,145.221 194.235,145.400 194.800 C 145.614 195.474,145.558 195.621,145.175 195.384 C 144.812 195.160,144.738 195.261,144.919 195.734 C 145.246 196.586,144.840 197.672,144.315 197.348 C 144.064 197.192,144.021 197.435,144.200 198.000 C 144.408 198.654,144.353 198.818,144.000 198.600 C 143.647 198.382,143.592 198.546,143.800 199.200 C 144.014 199.874,143.958 200.021,143.575 199.784 C 143.212 199.560,143.138 199.661,143.319 200.134 C 143.460 200.500,143.406 200.800,143.200 200.800 C 142.994 200.800,142.929 201.070,143.055 201.400 C 143.182 201.730,143.092 202.000,142.855 202.000 C 142.618 202.000,142.540 202.299,142.681 202.666 C 142.852 203.113,142.783 203.236,142.468 203.042 C 142.184 202.867,142.000 203.008,142.000 203.400 C 142.000 203.771,141.811 203.931,141.557 203.774 C 141.255 203.587,141.205 203.787,141.400 204.400 C 141.608 205.054,141.553 205.218,141.200 205.000 C 140.847 204.782,140.792 204.946,141.000 205.600 C 141.208 206.254,141.153 206.418,140.800 206.200 C 140.447 205.982,140.392 206.146,140.600 206.800 C 140.808 207.454,140.753 207.618,140.400 207.400 C 140.047 207.182,139.992 207.346,140.200 208.000 C 140.408 208.654,140.353 208.818,140.000 208.600 C 139.647 208.382,139.592 208.546,139.800 209.200 C 140.008 209.854,139.953 210.018,139.600 209.800 C 139.251 209.584,139.190 209.740,139.384 210.350 C 139.541 210.843,139.480 211.200,139.240 211.200 C 139.012 211.200,138.929 211.470,139.055 211.800 C 139.182 212.130,139.074 212.400,138.816 212.400 C 138.519 212.400,138.445 212.713,138.616 213.250 C 138.810 213.860,138.749 214.016,138.400 213.800 C 138.047 213.582,137.992 213.746,138.200 214.400 C 138.408 215.054,138.353 215.218,138.000 215.000 C 137.651 214.784,137.590 214.940,137.784 215.550 C 137.951 216.076,137.881 216.400,137.600 216.400 C 137.319 216.400,137.249 216.724,137.416 217.250 C 137.610 217.860,137.549 218.016,137.200 217.800 C 136.847 217.582,136.792 217.746,137.000 218.400 C 137.208 219.054,137.153 219.218,136.800 219.000 C 136.451 218.784,136.390 218.940,136.584 219.550 C 136.751 220.076,136.681 220.400,136.400 220.400 C 136.119 220.400,136.049 220.724,136.216 221.250 C 136.410 221.860,136.349 222.016,136.000 221.800 C 135.647 221.582,135.592 221.746,135.800 222.400 C 136.008 223.054,135.953 223.218,135.600 223.000 C 135.251 222.784,135.190 222.940,135.384 223.550 C 135.551 224.076,135.481 224.400,135.200 224.400 C 134.919 224.400,134.849 224.724,135.016 225.250 C 135.210 225.860,135.149 226.016,134.800 225.800 C 134.447 225.582,134.392 225.746,134.600 226.400 C 134.808 227.054,134.753 227.218,134.400 227.000 C 134.047 226.782,133.992 226.946,134.200 227.600 C 134.408 228.254,134.353 228.418,134.000 228.200 C 133.651 227.984,133.590 228.140,133.784 228.750 C 133.951 229.276,133.881 229.600,133.600 229.600 C 133.319 229.600,133.249 229.924,133.416 230.450 C 133.610 231.060,133.549 231.216,133.200 231.000 C 132.847 230.782,132.792 230.946,133.000 231.600 C 133.200 232.229,133.148 232.415,132.827 232.217 C 132.502 232.016,132.448 232.252,132.642 233.026 C 132.848 233.848,132.792 234.042,132.415 233.810 C 132.044 233.580,131.988 233.733,132.200 234.400 C 132.408 235.054,132.353 235.218,132.000 235.000 C 131.651 234.784,131.590 234.940,131.784 235.550 C 131.951 236.076,131.881 236.400,131.600 236.400 C 131.319 236.400,131.249 236.724,131.416 237.250 C 131.610 237.860,131.549 238.016,131.200 237.800 C 130.851 237.584,130.790 237.740,130.984 238.350 C 131.151 238.876,131.081 239.200,130.800 239.200 C 130.519 239.200,130.449 239.524,130.616 240.050 C 130.810 240.660,130.749 240.816,130.400 240.600 C 130.051 240.384,129.990 240.540,130.184 241.150 C 130.351 241.676,130.281 242.000,130.000 242.000 C 129.719 242.000,129.649 242.324,129.816 242.850 C 130.010 243.460,129.949 243.616,129.600 243.400 C 129.251 243.184,129.190 243.340,129.384 243.950 C 129.551 244.476,129.481 244.800,129.200 244.800 C 128.919 244.800,128.849 245.124,129.016 245.650 C 129.210 246.260,129.149 246.416,128.800 246.200 C 128.451 245.984,128.390 246.140,128.584 246.750 C 128.741 247.243,128.680 247.600,128.440 247.600 C 128.212 247.600,128.140 247.900,128.281 248.266 C 128.467 248.752,128.392 248.842,128.000 248.600 C 127.604 248.355,127.534 248.450,127.731 248.963 C 128.049 249.792,127.429 251.122,126.253 252.135 C 125.784 252.539,125.643 252.742,125.940 252.586 C 126.911 252.078,125.751 253.785,124.201 255.145 C 122.765 256.406,122.143 256.740,122.597 256.005 C 122.737 255.778,122.577 255.711,122.223 255.846 C 121.883 255.977,121.692 256.226,121.799 256.399 C 121.906 256.572,121.088 256.665,119.982 256.605 C 117.781 256.486,116.297 255.535,116.695 254.497 C 116.844 254.107,116.773 253.970,116.505 254.135 C 116.227 254.307,116.154 254.097,116.300 253.538 C 116.424 253.063,116.363 252.776,116.163 252.900 C 115.955 253.028,115.800 251.433,115.800 249.163 C 115.800 246.984,115.947 245.201,116.127 245.200 C 116.307 245.200,116.340 244.840,116.200 244.400 C 116.048 243.921,116.128 243.600,116.400 243.600 C 116.672 243.600,116.752 243.279,116.600 242.800 C 116.448 242.321,116.528 242.000,116.800 242.000 C 117.081 242.000,117.151 241.676,116.984 241.150 C 116.786 240.527,116.848 240.383,117.215 240.610 C 117.592 240.842,117.648 240.648,117.442 239.826 C 117.248 239.052,117.302 238.816,117.627 239.017 C 117.948 239.215,118.000 239.029,117.800 238.400 C 117.588 237.733,117.644 237.580,118.015 237.810 C 118.392 238.042,118.448 237.848,118.242 237.026 C 118.048 236.252,118.102 236.016,118.427 236.217 C 118.748 236.415,118.800 236.229,118.600 235.600 C 118.392 234.946,118.447 234.782,118.800 235.000 C 119.149 235.216,119.210 235.060,119.016 234.450 C 118.849 233.924,118.919 233.600,119.200 233.600 C 119.481 233.600,119.551 233.276,119.384 232.750 C 119.190 232.140,119.251 231.984,119.600 232.200 C 119.953 232.418,120.008 232.254,119.800 231.600 C 119.592 230.946,119.647 230.782,120.000 231.000 C 120.349 231.216,120.410 231.060,120.216 230.450 C 120.049 229.924,120.119 229.600,120.400 229.600 C 120.681 229.600,120.751 229.276,120.584 228.750 C 120.390 228.140,120.451 227.984,120.800 228.200 C 121.153 228.418,121.208 228.254,121.000 227.600 C 120.792 226.946,120.847 226.782,121.200 227.000 C 121.553 227.218,121.608 227.054,121.400 226.400 C 121.192 225.746,121.247 225.582,121.600 225.800 C 121.949 226.016,122.010 225.860,121.816 225.250 C 121.659 224.757,121.720 224.400,121.960 224.400 C 122.188 224.400,122.271 224.130,122.145 223.800 C 122.018 223.470,122.126 223.200,122.384 223.200 C 122.681 223.200,122.755 222.887,122.584 222.350 C 122.403 221.778,122.459 221.589,122.757 221.774 C 123.001 221.924,123.200 221.857,123.200 221.624 C 123.200 221.391,123.009 221.200,122.776 221.200 C 122.543 221.200,122.466 221.017,122.604 220.793 C 122.742 220.570,123.023 220.491,123.228 220.617 C 123.432 220.744,123.600 220.531,123.600 220.145 C 123.600 219.599,123.293 219.741,122.216 220.785 C 121.454 221.523,120.905 222.247,120.996 222.393 C 121.294 222.876,114.054 229.597,110.200 232.415 C 109.488 232.936,109.444 232.932,109.800 232.381 C 110.020 232.041,109.775 232.221,109.256 232.781 C 108.737 233.341,108.438 233.530,108.591 233.200 C 108.744 232.870,108.519 233.031,108.090 233.558 C 107.661 234.084,107.118 234.396,106.883 234.251 C 106.648 234.106,106.325 234.198,106.166 234.455 C 105.985 234.748,106.050 234.816,106.338 234.638 C 106.592 234.481,106.800 234.447,106.800 234.562 C 106.800 234.678,106.418 234.976,105.952 235.226 C 105.300 235.574,105.172 235.568,105.400 235.200 C 105.628 234.832,105.500 234.826,104.848 235.174 C 104.382 235.424,104.000 235.798,104.000 236.006 C 104.000 236.628,100.905 238.015,100.158 237.728 C 99.650 237.533,99.556 237.605,99.800 238.000 C 100.042 238.392,99.952 238.467,99.466 238.281 C 99.100 238.140,98.800 238.212,98.800 238.440 C 98.800 238.680,98.443 238.741,97.950 238.584 C 97.363 238.398,97.188 238.456,97.383 238.773 C 97.584 239.098,97.348 239.152,96.574 238.958 C 95.958 238.803,95.577 238.840,95.702 239.042 C 95.827 239.243,94.277 239.400,92.163 239.400 C 90.094 239.400,88.401 239.245,88.400 239.057 C 88.400 238.868,87.935 238.830,87.366 238.973 C 86.703 239.139,86.424 239.085,86.587 238.821 C 86.738 238.576,86.590 238.506,86.221 238.647 C 85.879 238.778,85.600 238.691,85.600 238.453 C 85.600 238.215,85.040 237.731,84.356 237.377 C 83.440 236.904,83.190 236.875,83.409 237.267 C 83.572 237.560,83.187 237.250,82.553 236.578 C 81.919 235.906,81.664 235.726,81.988 236.178 C 82.311 236.630,81.675 236.145,80.574 235.100 C 78.516 233.146,76.581 230.421,77.642 230.970 C 77.949 231.129,77.888 231.003,77.506 230.690 C 77.125 230.377,76.930 230.004,77.073 229.860 C 77.216 229.717,77.113 229.600,76.843 229.600 C 76.573 229.600,76.454 229.436,76.578 229.236 C 76.925 228.675,76.370 227.571,75.890 227.868 C 75.623 228.033,75.559 227.883,75.719 227.466 C 75.860 227.100,75.788 226.800,75.560 226.800 C 75.320 226.800,75.259 226.443,75.416 225.950 C 75.602 225.363,75.544 225.188,75.227 225.383 C 74.902 225.584,74.848 225.348,75.042 224.574 C 75.235 223.807,75.181 223.564,74.863 223.761 C 74.537 223.963,74.482 223.514,74.668 222.158 C 74.818 221.063,74.774 220.369,74.563 220.499 C 74.354 220.628,74.200 218.805,74.200 216.200 C 74.200 213.599,74.354 211.772,74.562 211.900 C 74.773 212.030,74.827 211.173,74.691 209.856 C 74.528 208.280,74.589 207.669,74.889 207.855 C 75.185 208.038,75.251 207.598,75.099 206.461 C 74.964 205.457,75.037 204.800,75.283 204.800 C 75.533 204.800,75.585 204.246,75.419 203.361 C 75.222 202.310,75.275 201.999,75.617 202.211 C 75.958 202.422,76.008 202.147,75.800 201.200 C 75.582 200.209,75.634 199.974,76.016 200.210 C 76.390 200.441,76.450 200.252,76.251 199.460 C 76.091 198.823,76.151 198.400,76.400 198.400 C 76.649 198.400,76.709 197.977,76.549 197.340 C 76.357 196.576,76.416 196.362,76.758 196.574 C 77.101 196.786,77.157 196.566,76.958 195.774 C 76.752 194.952,76.808 194.758,77.185 194.990 C 77.552 195.217,77.614 195.073,77.416 194.450 C 77.249 193.924,77.319 193.600,77.600 193.600 C 77.881 193.600,77.951 193.276,77.784 192.750 C 77.586 192.127,77.648 191.983,78.015 192.210 C 78.392 192.442,78.448 192.248,78.242 191.426 C 78.048 190.652,78.102 190.416,78.427 190.617 C 78.748 190.815,78.800 190.629,78.600 190.000 C 78.392 189.346,78.447 189.182,78.800 189.400 C 79.153 189.618,79.208 189.454,79.000 188.800 C 78.792 188.146,78.847 187.982,79.200 188.200 C 79.549 188.416,79.610 188.260,79.416 187.650 C 79.259 187.157,79.320 186.800,79.560 186.800 C 79.788 186.800,79.871 186.530,79.745 186.200 C 79.618 185.870,79.708 185.600,79.945 185.600 C 80.182 185.600,80.260 185.301,80.119 184.934 C 79.938 184.461,80.012 184.360,80.375 184.584 C 80.758 184.821,80.814 184.674,80.600 184.000 C 80.392 183.346,80.447 183.182,80.800 183.400 C 81.153 183.618,81.208 183.454,81.000 182.800 C 80.786 182.126,80.842 181.979,81.225 182.216 C 81.588 182.440,81.662 182.339,81.481 181.866 C 81.340 181.500,81.394 181.200,81.600 181.200 C 81.806 181.200,81.860 180.900,81.719 180.534 C 81.533 180.048,81.608 179.958,82.000 180.200 C 82.392 180.442,82.467 180.352,82.281 179.866 C 81.946 178.995,82.365 177.931,82.910 178.268 C 83.177 178.433,83.241 178.283,83.081 177.866 C 82.940 177.500,83.010 177.200,83.236 177.200 C 83.462 177.200,83.546 177.036,83.422 176.836 C 83.075 176.275,83.630 175.171,84.110 175.468 C 84.377 175.633,84.441 175.483,84.281 175.066 C 84.140 174.700,84.210 174.400,84.436 174.400 C 84.662 174.400,84.744 174.233,84.619 174.030 C 84.325 173.555,85.220 171.565,85.617 171.810 C 86.031 172.067,86.462 170.824,86.139 170.302 C 85.972 170.032,86.070 169.996,86.406 170.204 C 86.794 170.444,86.865 170.347,86.673 169.845 C 86.495 169.382,86.560 169.252,86.873 169.445 C 87.185 169.638,87.250 169.507,87.073 169.045 C 86.928 168.667,86.961 168.452,87.146 168.567 C 87.331 168.681,87.691 168.319,87.945 167.762 C 88.262 167.066,88.270 166.833,87.970 167.019 C 87.241 167.469,88.825 164.652,89.743 163.865 C 90.214 163.461,90.360 163.256,90.067 163.409 C 89.672 163.616,89.701 163.365,90.177 162.444 C 90.531 161.760,90.917 161.200,91.034 161.200 C 91.151 161.200,91.136 161.380,91.000 161.600 C 90.864 161.820,90.847 162.000,90.962 162.000 C 91.078 162.000,91.376 161.618,91.626 161.152 C 91.945 160.556,91.949 160.384,91.640 160.575 C 90.820 161.082,91.195 160.367,92.300 159.315 C 92.905 158.740,93.175 158.399,92.900 158.558 C 92.039 159.056,92.353 158.407,93.500 157.315 C 94.105 156.740,94.347 156.416,94.038 156.596 C 93.360 156.991,93.425 156.874,96.142 152.800 C 97.242 151.150,98.786 149.180,99.571 148.422 C 100.357 147.664,100.640 147.300,100.200 147.615 C 99.044 148.441,100.368 146.779,102.603 144.600 C 103.505 143.720,103.793 143.360,103.243 143.800 C 101.321 145.337,106.206 139.879,109.589 136.711 C 114.437 132.169,122.494 126.230,121.396 128.007 C 121.173 128.367,121.305 128.372,121.952 128.026 C 122.418 127.776,122.800 127.478,122.800 127.362 C 122.800 127.247,122.592 127.281,122.338 127.438 C 122.043 127.621,121.985 127.547,122.179 127.235 C 122.345 126.966,122.733 126.842,123.040 126.960 C 123.348 127.078,123.600 126.990,123.600 126.764 C 123.600 126.538,123.764 126.454,123.964 126.578 C 124.452 126.880,125.647 126.399,125.400 126.000 C 125.118 125.543,126.283 125.180,127.066 125.481 C 127.539 125.662,127.640 125.588,127.416 125.225 C 127.179 124.842,127.326 124.786,128.000 125.000 C 128.654 125.208,128.818 125.153,128.600 124.800 C 128.382 124.447,128.546 124.392,129.200 124.600 C 129.854 124.807,130.018 124.753,129.800 124.400 C 129.576 124.037,129.829 123.987,130.800 124.200 C 131.680 124.393,132.015 124.348,131.837 124.060 C 131.657 123.769,132.230 123.712,133.650 123.880 C 135.170 124.061,135.649 124.002,135.439 123.663 C 135.246 123.350,135.557 123.200,136.400 123.200 C 137.243 123.200,137.554 123.350,137.361 123.663 M153.400 131.200 C 154.483 132.300,155.460 133.200,155.570 133.200 C 155.680 133.200,154.883 132.300,153.800 131.200 C 152.717 130.100,151.740 129.200,151.630 129.200 C 151.520 129.200,152.317 130.100,153.400 131.200 M253.312 132.943 C 253.195 133.131,253.448 133.175,253.873 133.040 C 254.420 132.867,254.989 133.164,255.823 134.059 C 256.470 134.755,256.730 135.193,256.400 135.032 C 256.047 134.861,256.091 134.979,256.507 135.320 C 256.960 135.691,257.115 136.155,256.939 136.615 C 256.750 137.107,256.811 137.241,257.132 137.042 C 257.460 136.839,257.600 137.244,257.600 138.400 C 257.600 139.545,257.459 139.960,257.138 139.761 C 256.806 139.557,256.748 139.839,256.932 140.758 C 257.115 141.675,257.057 141.959,256.726 141.754 C 256.418 141.564,256.349 141.691,256.519 142.134 C 256.820 142.917,256.457 144.082,256.000 143.800 C 255.601 143.553,255.120 144.748,255.422 145.236 C 255.546 145.436,255.446 145.600,255.200 145.600 C 254.954 145.600,254.856 145.767,254.981 145.970 C 255.323 146.522,254.348 148.415,253.874 148.122 C 253.625 147.968,253.565 148.131,253.719 148.534 C 253.860 148.900,253.790 149.200,253.564 149.200 C 253.338 149.200,253.254 149.364,253.378 149.564 C 253.697 150.081,253.188 151.240,252.758 150.974 C 252.561 150.852,252.373 150.988,252.341 151.276 C 252.308 151.564,252.245 152.070,252.200 152.400 C 252.155 152.730,252.092 153.236,252.059 153.524 C 252.026 153.816,251.793 153.920,251.532 153.758 C 251.217 153.564,251.148 153.687,251.319 154.134 C 251.460 154.500,251.390 154.800,251.164 154.800 C 250.938 154.800,250.854 154.964,250.978 155.164 C 251.297 155.681,250.788 156.840,250.358 156.574 C 250.161 156.452,249.973 156.588,249.941 156.876 C 249.908 157.164,249.845 157.670,249.800 158.000 C 249.755 158.330,249.692 158.836,249.659 159.124 C 249.627 159.412,249.439 159.548,249.242 159.426 C 248.826 159.169,248.298 160.311,248.604 160.806 C 248.929 161.332,247.929 163.204,247.474 162.922 C 247.225 162.768,247.165 162.932,247.321 163.339 C 247.646 164.185,246.821 166.060,246.274 165.722 C 246.025 165.568,245.965 165.731,246.119 166.134 C 246.454 167.005,246.035 168.069,245.490 167.732 C 245.223 167.567,245.159 167.717,245.319 168.134 C 245.654 169.005,245.235 170.069,244.690 169.732 C 244.423 169.567,244.359 169.717,244.519 170.134 C 244.660 170.500,244.590 170.800,244.364 170.800 C 244.138 170.800,244.054 170.964,244.178 171.164 C 244.525 171.725,243.970 172.829,243.490 172.532 C 243.223 172.367,243.159 172.517,243.319 172.934 C 243.654 173.805,243.235 174.869,242.690 174.532 C 242.423 174.367,242.359 174.517,242.519 174.934 C 242.854 175.805,242.435 176.869,241.890 176.532 C 241.623 176.367,241.559 176.517,241.719 176.934 C 242.054 177.805,241.635 178.869,241.090 178.532 C 240.823 178.367,240.759 178.517,240.919 178.934 C 241.254 179.805,240.835 180.869,240.290 180.532 C 240.023 180.367,239.959 180.517,240.119 180.934 C 240.454 181.805,240.035 182.869,239.490 182.532 C 239.223 182.367,239.159 182.517,239.319 182.934 C 239.460 183.300,239.390 183.600,239.164 183.600 C 238.938 183.600,238.854 183.764,238.978 183.964 C 239.325 184.525,238.770 185.629,238.290 185.332 C 238.023 185.167,237.959 185.317,238.119 185.734 C 238.454 186.605,238.035 187.669,237.490 187.332 C 237.223 187.167,237.159 187.317,237.319 187.734 C 237.654 188.605,237.235 189.669,236.690 189.332 C 236.423 189.167,236.359 189.317,236.519 189.734 C 236.833 190.552,236.448 191.677,235.958 191.374 C 235.761 191.252,235.573 191.388,235.541 191.676 C 235.508 191.964,235.445 192.470,235.400 192.800 C 235.355 193.130,235.292 193.636,235.259 193.924 C 235.226 194.216,234.993 194.320,234.732 194.158 C 234.417 193.964,234.348 194.087,234.519 194.534 C 234.854 195.405,234.435 196.469,233.890 196.132 C 233.623 195.967,233.559 196.117,233.719 196.534 C 234.054 197.405,233.635 198.469,233.090 198.132 C 232.823 197.967,232.759 198.117,232.919 198.534 C 233.060 198.900,233.006 199.200,232.800 199.200 C 232.594 199.200,232.540 199.500,232.681 199.866 C 232.867 200.352,232.792 200.442,232.400 200.200 C 232.008 199.958,231.933 200.048,232.119 200.534 C 232.454 201.405,232.035 202.469,231.490 202.132 C 231.223 201.967,231.159 202.117,231.319 202.534 C 231.654 203.405,231.235 204.469,230.690 204.132 C 230.423 203.967,230.359 204.117,230.519 204.534 C 230.854 205.405,230.435 206.469,229.890 206.132 C 229.623 205.967,229.559 206.117,229.719 206.534 C 230.046 207.386,229.640 208.472,229.115 208.148 C 228.864 207.992,228.821 208.235,229.000 208.800 C 229.214 209.474,229.158 209.621,228.775 209.384 C 228.412 209.160,228.338 209.261,228.519 209.734 C 228.660 210.100,228.606 210.400,228.400 210.400 C 228.194 210.400,228.140 210.700,228.281 211.066 C 228.467 211.552,228.392 211.642,228.000 211.400 C 227.608 211.158,227.533 211.248,227.719 211.734 C 228.020 212.517,227.657 213.682,227.200 213.400 C 227.026 213.293,226.777 213.483,226.646 213.823 C 226.512 214.173,226.579 214.337,226.800 214.200 C 227.021 214.063,227.088 214.227,226.954 214.577 C 226.823 214.917,226.536 215.084,226.315 214.948 C 226.064 214.792,226.021 215.035,226.200 215.600 C 226.408 216.254,226.353 216.418,226.000 216.200 C 225.647 215.982,225.592 216.146,225.800 216.800 C 226.000 217.429,225.948 217.615,225.627 217.417 C 225.302 217.216,225.248 217.452,225.442 218.226 C 225.648 219.047,225.592 219.242,225.216 219.010 C 224.834 218.774,224.782 219.009,225.000 220.000 C 225.200 220.909,225.152 221.218,224.843 221.026 C 224.563 220.854,224.400 221.130,224.400 221.776 C 224.400 222.339,224.599 222.800,224.843 222.800 C 225.086 222.800,225.178 223.079,225.047 223.421 C 224.916 223.762,224.972 223.941,225.170 223.818 C 225.369 223.695,225.623 223.821,225.735 224.098 C 225.898 224.498,226.013 224.496,226.302 224.086 C 226.501 223.804,226.965 223.688,227.332 223.829 C 227.701 223.971,228.000 223.893,228.000 223.655 C 228.000 223.418,228.299 223.340,228.666 223.481 C 229.069 223.635,229.232 223.575,229.078 223.326 C 228.794 222.866,230.670 221.873,231.202 222.201 C 231.391 222.318,231.675 222.202,231.834 221.945 C 232.015 221.652,231.950 221.584,231.662 221.762 C 231.408 221.919,231.200 221.953,231.200 221.838 C 231.200 221.722,231.582 221.424,232.048 221.174 C 232.700 220.826,232.828 220.832,232.600 221.200 C 231.983 222.199,233.886 220.834,234.573 219.785 C 234.955 219.202,235.500 218.829,235.801 218.945 C 236.098 219.059,236.580 218.848,236.871 218.476 C 237.346 217.869,237.329 217.856,236.700 218.349 C 236.315 218.651,236.000 218.807,236.000 218.696 C 236.000 218.586,236.675 217.990,237.500 217.374 C 238.906 216.323,238.951 216.313,238.215 217.226 C 237.783 217.762,238.325 217.300,239.419 216.200 C 243.659 211.936,253.348 203.400,253.958 203.391 C 254.357 203.385,254.552 203.104,254.473 202.650 C 254.391 202.174,254.510 202.021,254.816 202.210 C 255.150 202.416,255.203 202.239,255.000 201.600 C 254.792 200.946,254.847 200.782,255.200 201.000 C 255.549 201.216,255.610 201.060,255.416 200.450 C 255.249 199.924,255.319 199.600,255.600 199.600 C 255.881 199.600,255.951 199.276,255.784 198.750 C 255.590 198.140,255.651 197.984,256.000 198.200 C 256.353 198.418,256.408 198.254,256.200 197.600 C 255.992 196.946,256.047 196.782,256.400 197.000 C 256.753 197.218,256.808 197.054,256.600 196.400 C 256.407 195.792,256.456 195.588,256.753 195.771 C 257.027 195.940,257.102 195.810,256.953 195.421 C 256.822 195.079,256.908 194.800,257.145 194.800 C 257.382 194.800,257.460 194.501,257.319 194.134 C 257.138 193.661,257.212 193.560,257.575 193.784 C 257.958 194.021,258.014 193.874,257.800 193.200 C 257.607 192.592,257.656 192.388,257.953 192.571 C 258.227 192.740,258.302 192.610,258.153 192.221 C 258.021 191.878,258.124 191.600,258.381 191.600 C 258.637 191.600,258.740 191.426,258.608 191.214 C 258.290 190.698,259.870 187.603,260.965 186.600 C 261.445 186.160,261.559 185.980,261.219 186.200 C 260.669 186.556,260.665 186.511,261.181 185.800 C 262.556 183.907,263.312 183.268,263.908 183.497 C 264.316 183.653,264.432 183.576,264.245 183.273 C 264.058 182.970,264.174 182.892,264.579 183.047 C 264.921 183.178,265.200 183.086,265.200 182.843 C 265.200 182.599,265.751 182.400,266.424 182.400 C 267.241 182.400,267.553 182.552,267.364 182.858 C 267.164 183.182,267.401 183.236,268.174 183.042 C 268.977 182.841,269.188 182.896,268.968 183.252 C 268.766 183.579,268.872 183.658,269.297 183.495 C 270.605 182.993,271.284 184.547,271.344 188.180 C 271.375 190.061,271.267 191.600,271.104 191.600 C 270.942 191.600,270.845 192.037,270.889 192.571 C 270.934 193.105,271.114 193.453,271.291 193.344 C 271.468 193.234,271.529 193.008,271.425 192.841 C 271.322 192.674,272.352 191.472,273.715 190.169 C 275.077 188.866,275.653 188.441,274.996 189.225 C 274.338 190.008,274.790 189.635,276.000 188.396 C 278.554 185.780,280.188 184.464,279.222 185.800 C 278.904 186.240,279.288 185.925,280.076 185.100 C 281.440 183.671,282.357 183.099,281.775 184.040 C 281.584 184.349,281.756 184.345,282.352 184.026 C 282.818 183.776,283.200 183.478,283.200 183.362 C 283.200 183.247,283.020 183.264,282.800 183.400 C 282.580 183.536,282.400 183.550,282.400 183.430 C 282.400 183.018,286.431 181.172,286.815 181.409 C 287.027 181.540,287.200 181.444,287.200 181.197 C 287.200 180.919,287.527 180.850,288.050 181.016 C 288.660 181.210,288.816 181.149,288.600 180.800 C 288.382 180.447,288.546 180.392,289.200 180.600 C 289.695 180.757,290.005 180.731,289.888 180.543 C 289.772 180.354,291.352 180.200,293.400 180.200 C 295.528 180.200,297.027 180.356,296.899 180.563 C 296.776 180.763,297.079 180.820,297.576 180.690 C 298.585 180.426,299.694 180.724,299.410 181.183 C 299.308 181.348,299.681 181.691,300.238 181.945 C 300.954 182.271,301.171 182.276,300.977 181.963 C 300.780 181.644,300.922 181.637,301.486 181.939 C 302.801 182.643,305.274 185.630,305.042 186.234 C 304.923 186.545,304.983 186.800,305.175 186.800 C 305.368 186.800,305.424 187.188,305.300 187.663 C 305.163 188.184,305.232 188.427,305.473 188.278 C 305.723 188.124,305.861 188.912,305.841 190.380 C 305.823 191.695,305.647 192.629,305.442 192.502 C 305.230 192.371,305.183 192.815,305.332 193.558 C 305.507 194.436,305.451 194.755,305.151 194.570 C 304.857 194.388,304.807 194.593,305.000 195.200 C 305.214 195.874,305.158 196.021,304.775 195.784 C 304.409 195.558,304.339 195.663,304.527 196.154 C 304.772 196.791,302.297 202.400,301.771 202.400 C 301.651 202.400,301.664 202.220,301.800 202.000 C 301.936 201.780,301.953 201.600,301.838 201.600 C 301.722 201.600,301.424 201.982,301.174 202.448 C 300.819 203.111,300.829 203.229,301.218 202.989 C 302.129 202.426,300.223 205.322,298.600 206.967 C 297.720 207.858,297.360 208.321,297.800 207.994 C 298.560 207.430,298.571 207.440,298.011 208.200 C 296.039 210.876,294.049 213.227,292.423 214.800 C 291.399 215.790,290.942 216.330,291.406 216.000 C 291.869 215.670,291.331 216.300,290.209 217.400 C 289.087 218.500,288.547 219.130,289.009 218.800 C 289.471 218.470,288.931 219.100,287.809 220.200 C 286.687 221.300,286.213 221.840,286.756 221.400 C 287.376 220.898,287.164 221.308,286.187 222.500 C 284.745 224.261,283.617 225.273,284.851 223.700 C 285.344 223.071,285.331 223.054,284.724 223.529 C 284.337 223.832,284.152 224.331,284.292 224.695 C 284.454 225.117,284.378 225.234,284.068 225.042 C 283.787 224.868,283.600 225.002,283.600 225.376 C 283.600 225.719,283.825 225.955,284.100 225.900 C 284.375 225.845,284.567 225.989,284.527 226.220 C 284.486 226.451,285.060 226.640,285.801 226.640 C 286.542 226.640,287.071 226.515,286.976 226.362 C 286.755 226.003,287.967 225.532,288.408 225.805 C 288.593 225.920,288.875 225.802,289.034 225.545 C 289.215 225.252,289.150 225.184,288.862 225.362 C 288.608 225.519,288.400 225.571,288.400 225.477 C 288.400 225.096,291.653 223.185,291.969 223.381 C 292.156 223.496,292.555 223.278,292.855 222.896 C 293.348 222.266,293.333 222.252,292.700 222.749 C 292.315 223.051,292.000 223.207,292.000 223.096 C 292.000 222.986,292.675 222.386,293.500 221.765 C 294.551 220.973,294.833 220.869,294.442 221.417 C 294.135 221.848,294.495 221.537,295.242 220.727 C 296.928 218.897,302.098 214.696,301.000 216.047 C 300.560 216.588,301.100 216.113,302.200 214.991 C 303.300 213.869,303.930 213.329,303.600 213.791 C 303.270 214.253,303.900 213.693,305.000 212.547 C 306.100 211.401,309.430 208.352,312.400 205.773 C 315.370 203.193,318.025 200.805,318.300 200.465 C 318.685 199.990,318.800 199.973,318.800 200.390 C 318.800 200.689,318.905 200.829,319.032 200.701 C 319.160 200.573,319.081 200.125,318.857 199.706 C 318.119 198.328,320.339 197.617,324.324 197.955 C 324.612 197.980,324.748 198.161,324.626 198.358 C 324.504 198.555,324.686 198.824,325.030 198.956 C 325.460 199.121,325.571 199.462,325.385 200.048 C 325.236 200.517,325.275 200.801,325.471 200.680 C 325.667 200.559,325.821 201.526,325.814 202.829 C 325.806 204.133,325.646 205.199,325.457 205.200 C 325.269 205.200,325.222 205.480,325.354 205.823 C 325.871 207.171,323.901 209.589,317.732 215.182 C 314.250 218.339,312.210 220.031,313.200 218.942 C 314.190 217.852,313.200 218.781,311.000 221.006 C 308.800 223.231,307.540 224.409,308.200 223.622 C 308.860 222.836,307.960 223.643,306.200 225.416 C 302.485 229.157,295.396 234.634,296.173 233.162 C 296.336 232.853,296.078 233.050,295.600 233.600 C 295.122 234.150,294.858 234.357,295.014 234.060 C 295.242 233.625,295.132 233.608,294.448 233.974 C 293.982 234.224,293.600 234.522,293.600 234.638 C 293.600 234.753,293.780 234.736,294.000 234.600 C 294.220 234.464,294.400 234.451,294.400 234.571 C 294.400 235.091,289.592 237.172,288.955 236.927 C 288.521 236.761,288.365 236.820,288.532 237.090 C 288.882 237.657,287.900 238.004,286.776 237.710 C 286.138 237.543,285.961 237.614,286.171 237.953 C 286.387 238.303,286.171 238.358,285.374 238.158 C 284.623 237.969,284.366 238.021,284.553 238.324 C 284.745 238.635,284.214 238.693,282.750 238.520 C 281.230 238.339,280.751 238.398,280.961 238.737 C 281.162 239.062,280.697 239.200,279.400 239.200 C 278.108 239.200,277.638 239.062,277.838 238.739 C 278.045 238.404,277.661 238.352,276.432 238.549 C 275.171 238.750,274.816 238.697,275.036 238.341 C 275.242 238.009,275.113 237.948,274.613 238.139 C 272.902 238.796,268.407 234.689,269.038 233.045 C 269.174 232.690,269.131 232.400,268.943 232.400 C 268.754 232.399,268.591 231.421,268.579 230.225 C 268.568 229.018,268.720 228.151,268.922 228.276 C 269.126 228.402,269.167 228.127,269.016 227.650 C 268.849 227.124,268.919 226.800,269.200 226.800 C 269.453 226.800,269.554 226.485,269.428 226.089 C 269.131 225.153,271.734 220.711,273.800 218.626 C 274.680 217.738,275.040 217.279,274.600 217.606 C 273.840 218.170,273.829 218.160,274.387 217.400 C 276.348 214.726,280.791 209.507,282.559 207.800 C 283.699 206.700,284.254 206.070,283.794 206.400 C 283.333 206.730,283.692 206.280,284.592 205.400 C 285.491 204.520,285.872 204.070,285.439 204.400 C 285.005 204.730,285.254 204.235,285.992 203.300 C 286.730 202.365,287.416 201.600,287.516 201.600 C 287.616 201.600,287.451 201.915,287.149 202.300 C 286.652 202.933,286.666 202.948,287.296 202.455 C 287.678 202.155,287.896 201.756,287.781 201.569 C 287.585 201.253,289.496 198.000,289.877 198.000 C 289.971 198.000,289.919 198.208,289.762 198.462 C 289.584 198.750,289.652 198.815,289.945 198.634 C 290.202 198.475,290.320 198.193,290.205 198.008 C 289.881 197.484,290.437 196.375,290.885 196.652 C 291.136 196.808,291.179 196.565,291.000 196.000 C 290.805 195.387,290.855 195.187,291.157 195.374 C 291.406 195.527,291.600 195.384,291.600 195.047 C 291.600 194.181,291.038 193.948,288.579 193.798 C 287.156 193.711,286.481 193.808,286.647 194.075 C 286.809 194.338,286.577 194.383,286.000 194.200 C 285.346 193.992,285.182 194.047,285.400 194.400 C 285.618 194.753,285.454 194.808,284.800 194.600 C 284.235 194.421,283.992 194.464,284.148 194.715 C 284.284 194.936,284.117 195.223,283.777 195.354 C 283.392 195.501,283.260 195.427,283.427 195.156 C 283.613 194.856,283.432 194.862,282.848 195.174 C 282.382 195.424,282.000 195.722,282.000 195.838 C 282.000 195.953,282.180 195.936,282.400 195.800 C 282.620 195.664,282.800 195.629,282.800 195.723 C 282.800 195.817,282.035 196.398,281.100 197.015 C 279.849 197.840,279.552 197.933,279.977 197.368 C 280.294 196.946,279.611 197.627,278.460 198.883 C 277.309 200.138,275.069 202.381,273.483 203.867 C 271.897 205.352,271.033 206.215,271.562 205.784 C 272.092 205.353,271.658 206.125,270.598 207.500 C 269.539 208.875,268.588 210.000,268.487 210.000 C 268.385 210.000,268.549 209.685,268.851 209.300 C 269.348 208.667,269.334 208.652,268.704 209.145 C 268.322 209.445,268.104 209.844,268.219 210.031 C 268.415 210.347,266.504 213.600,266.123 213.600 C 266.029 213.600,266.081 213.392,266.238 213.138 C 266.416 212.850,266.348 212.785,266.055 212.966 C 265.798 213.125,265.706 213.448,265.851 213.683 C 265.996 213.918,265.684 214.461,265.158 214.890 C 264.631 215.319,264.443 215.542,264.740 215.386 C 265.175 215.158,265.192 215.268,264.826 215.952 C 264.576 216.418,264.278 216.800,264.162 216.800 C 264.047 216.800,264.064 216.620,264.200 216.400 C 264.336 216.180,264.353 216.000,264.238 216.000 C 264.122 216.000,263.824 216.382,263.574 216.848 C 263.236 217.480,263.236 217.625,263.574 217.416 C 263.823 217.262,263.085 219.029,261.935 221.343 C 260.784 223.657,259.667 225.442,259.453 225.309 C 259.228 225.170,259.172 225.349,259.319 225.734 C 259.654 226.605,259.235 227.669,258.690 227.332 C 258.422 227.166,258.360 227.318,258.522 227.741 C 258.806 228.480,257.645 231.275,257.176 230.985 C 256.808 230.758,256.326 231.956,256.604 232.406 C 256.929 232.932,255.929 234.804,255.474 234.522 C 255.225 234.368,255.165 234.532,255.321 234.939 C 255.646 235.785,254.821 237.660,254.274 237.322 C 254.025 237.168,253.965 237.332,254.121 237.739 C 254.410 238.490,253.649 240.478,253.183 240.190 C 252.740 239.916,252.386 241.097,252.681 241.866 C 252.867 242.352,252.792 242.442,252.400 242.200 C 252.008 241.958,251.933 242.048,252.119 242.534 C 252.446 243.386,252.040 244.472,251.515 244.148 C 251.264 243.992,251.221 244.235,251.400 244.800 C 251.614 245.474,251.558 245.621,251.175 245.384 C 250.812 245.160,250.738 245.261,250.919 245.734 C 251.060 246.100,251.006 246.400,250.800 246.400 C 250.594 246.400,250.540 246.700,250.681 247.066 C 250.867 247.552,250.792 247.642,250.400 247.400 C 250.008 247.158,249.933 247.248,250.119 247.734 C 250.446 248.586,250.040 249.672,249.515 249.348 C 249.264 249.192,249.221 249.435,249.400 250.000 C 249.593 250.608,249.544 250.812,249.247 250.629 C 248.973 250.460,248.898 250.590,249.047 250.979 C 249.178 251.321,249.092 251.600,248.855 251.600 C 248.618 251.600,248.540 251.899,248.681 252.266 C 248.867 252.752,248.792 252.842,248.400 252.600 C 248.008 252.358,247.933 252.448,248.119 252.934 C 248.446 253.786,248.040 254.872,247.515 254.548 C 247.264 254.392,247.221 254.635,247.400 255.200 C 247.608 255.854,247.553 256.018,247.200 255.800 C 246.847 255.582,246.792 255.746,247.000 256.400 C 247.193 257.008,247.144 257.212,246.847 257.029 C 246.573 256.860,246.498 256.990,246.647 257.379 C 246.778 257.721,246.692 258.000,246.455 258.000 C 246.218 258.000,246.140 258.299,246.281 258.666 C 246.462 259.139,246.388 259.240,246.025 259.016 C 245.642 258.779,245.586 258.926,245.800 259.600 C 246.014 260.274,245.958 260.421,245.575 260.184 C 245.212 259.960,245.138 260.061,245.319 260.534 C 245.460 260.900,245.406 261.200,245.200 261.200 C 244.994 261.200,244.940 261.500,245.081 261.866 C 245.262 262.339,245.188 262.440,244.825 262.216 C 244.442 261.979,244.386 262.126,244.600 262.800 C 244.814 263.474,244.758 263.621,244.375 263.384 C 244.012 263.160,243.938 263.261,244.119 263.734 C 244.260 264.100,244.206 264.400,244.000 264.400 C 243.794 264.400,243.740 264.700,243.881 265.066 C 244.062 265.539,243.988 265.640,243.625 265.416 C 243.247 265.182,243.184 265.320,243.384 265.950 C 243.541 266.443,243.480 266.800,243.240 266.800 C 243.012 266.800,242.940 267.100,243.081 267.466 C 243.267 267.952,243.192 268.042,242.800 267.800 C 242.404 267.556,242.333 267.650,242.529 268.160 C 242.843 268.978,241.860 271.074,240.633 272.200 C 240.154 272.640,240.034 272.820,240.365 272.600 C 240.711 272.371,240.585 272.748,240.068 273.484 C 238.975 275.044,236.954 276.542,236.403 276.202 C 236.181 276.065,236.000 276.147,236.000 276.384 C 236.000 276.651,235.596 276.714,234.940 276.549 C 234.195 276.362,233.965 276.419,234.164 276.742 C 234.354 277.049,234.035 277.200,233.200 277.200 C 232.358 277.200,232.046 277.050,232.239 276.738 C 232.441 276.410,232.178 276.344,231.335 276.513 C 230.021 276.776,228.005 275.735,228.282 274.937 C 228.370 274.682,228.225 274.339,227.959 274.175 C 227.632 273.973,227.581 274.045,227.800 274.400 C 228.020 274.755,227.968 274.827,227.638 274.624 C 227.327 274.431,227.248 273.890,227.419 273.112 C 227.604 272.273,227.549 271.984,227.243 272.174 C 226.947 272.356,226.800 271.909,226.800 270.824 C 226.800 269.928,226.994 269.200,227.232 269.200 C 227.507 269.200,227.564 268.748,227.389 267.950 C 227.185 267.021,227.239 266.777,227.600 267.000 C 227.949 267.216,228.010 267.060,227.816 266.450 C 227.659 265.957,227.720 265.600,227.960 265.600 C 228.188 265.600,228.260 265.300,228.119 264.934 C 227.938 264.461,228.012 264.360,228.375 264.584 C 228.758 264.821,228.814 264.674,228.600 264.000 C 228.386 263.326,228.442 263.179,228.825 263.416 C 229.188 263.640,229.262 263.539,229.081 263.066 C 228.746 262.195,229.165 261.131,229.710 261.468 C 229.977 261.633,230.041 261.483,229.881 261.066 C 229.546 260.195,229.965 259.131,230.510 259.468 C 230.777 259.633,230.841 259.483,230.681 259.066 C 230.346 258.195,230.765 257.131,231.310 257.468 C 231.577 257.633,231.641 257.483,231.481 257.066 C 231.340 256.700,231.410 256.400,231.636 256.400 C 231.862 256.400,231.944 256.232,231.817 256.027 C 231.478 255.479,232.863 252.792,233.334 253.083 C 233.574 253.231,233.633 253.063,233.481 252.666 C 233.340 252.300,233.410 252.000,233.636 252.000 C 233.862 252.000,233.944 251.832,233.817 251.627 C 233.527 251.158,234.829 248.371,235.224 248.615 C 235.606 248.851,236.069 247.636,235.778 247.164 C 235.654 246.964,235.754 246.800,236.000 246.800 C 236.246 246.800,236.343 246.632,236.216 246.426 C 235.928 245.960,237.634 242.374,238.028 242.617 C 238.395 242.844,238.872 241.640,238.594 241.190 C 238.321 240.748,240.053 237.186,240.428 237.417 C 240.794 237.644,241.272 236.440,240.995 235.991 C 240.720 235.547,242.047 232.782,242.424 233.015 C 242.793 233.243,243.274 232.043,242.995 231.591 C 242.720 231.147,244.047 228.382,244.424 228.615 C 244.861 228.885,245.212 227.696,244.919 226.934 C 244.728 226.435,244.806 226.354,245.232 226.611 C 245.702 226.894,245.713 226.846,245.295 226.330 C 244.764 225.674,245.556 224.489,246.137 225.070 C 246.282 225.215,246.400 225.033,246.400 224.667 C 246.400 223.759,246.377 223.772,244.581 225.681 C 243.712 226.606,243.277 227.191,243.616 226.981 C 244.419 226.484,242.246 228.462,240.200 230.092 C 239.270 230.832,238.851 231.029,239.200 230.562 C 239.530 230.120,239.260 230.318,238.600 231.002 C 236.988 232.672,235.522 233.757,236.400 232.630 C 236.988 231.876,236.977 231.875,235.900 232.576 C 234.789 233.299,234.376 233.862,235.300 233.394 C 235.575 233.255,235.440 233.439,235.000 233.803 C 233.459 235.078,229.651 236.794,228.955 236.527 C 228.521 236.361,228.365 236.420,228.532 236.690 C 228.882 237.257,227.900 237.604,226.776 237.310 C 226.159 237.148,225.964 237.218,226.157 237.531 C 226.358 237.855,226.068 237.914,225.158 237.732 C 224.426 237.585,223.972 237.631,224.100 237.838 C 224.226 238.042,223.030 238.200,221.362 238.200 C 219.734 238.200,218.401 238.046,218.401 237.857 C 218.400 237.669,218.119 237.622,217.775 237.754 C 216.019 238.428,211.576 233.970,212.251 232.213 C 212.387 231.858,212.341 231.596,212.149 231.631 C 211.315 231.783,211.046 231.555,211.600 231.163 C 212.133 230.786,212.133 230.759,211.600 230.920 C 211.270 231.019,211.052 231.325,211.116 231.599 C 211.186 231.898,210.991 232.005,210.629 231.867 C 210.297 231.739,209.902 231.835,209.751 232.079 C 209.585 232.348,209.659 232.411,209.938 232.238 C 210.922 231.630,210.340 232.347,209.300 233.024 C 208.505 233.541,208.311 233.577,208.600 233.151 C 208.820 232.827,208.615 232.999,208.144 233.532 C 207.674 234.066,207.101 234.386,206.872 234.244 C 206.643 234.103,206.325 234.198,206.166 234.455 C 205.985 234.748,206.050 234.816,206.338 234.638 C 206.592 234.481,206.800 234.451,206.800 234.571 C 206.800 234.985,201.967 237.227,201.584 236.990 C 201.373 236.860,201.200 236.938,201.200 237.164 C 201.200 237.390,200.900 237.460,200.534 237.319 C 200.061 237.138,199.960 237.212,200.184 237.575 C 200.421 237.958,200.274 238.014,199.600 237.800 C 198.971 237.600,198.785 237.652,198.983 237.973 C 199.182 238.295,198.959 238.355,198.234 238.173 C 197.665 238.030,197.200 238.068,197.200 238.257 C 197.200 238.445,196.047 238.600,194.638 238.600 C 193.229 238.600,192.172 238.446,192.288 238.257 C 192.405 238.069,192.132 238.031,191.683 238.174 C 190.812 238.450,187.812 236.228,188.203 235.596 C 188.521 235.081,187.957 233.979,187.515 234.252 C 187.267 234.406,187.217 234.177,187.384 233.650 C 187.532 233.183,187.507 232.800,187.327 232.800 C 187.147 232.799,187.000 231.016,187.000 228.837 C 187.000 226.659,187.139 224.962,187.309 225.067 C 187.478 225.172,187.576 224.717,187.526 224.057 C 187.475 223.396,187.299 222.939,187.134 223.040 C 186.970 223.142,186.939 223.497,187.067 223.829 C 187.212 224.209,187.094 224.389,186.749 224.316 C 186.426 224.248,186.246 224.476,186.311 224.870 C 186.371 225.238,186.209 225.671,185.949 225.832 C 185.632 226.027,185.583 225.951,185.800 225.600 C 186.016 225.251,185.967 225.173,185.655 225.366 C 185.398 225.525,185.291 225.824,185.419 226.031 C 185.547 226.237,184.604 227.504,183.325 228.847 C 180.940 231.350,177.484 234.268,178.200 233.173 C 178.420 232.837,178.175 233.021,177.656 233.581 C 177.137 234.141,176.844 234.357,177.004 234.060 C 177.240 233.624,177.133 233.608,176.448 233.974 C 175.982 234.224,175.600 234.522,175.600 234.638 C 175.600 234.753,175.780 234.736,176.000 234.600 C 176.220 234.464,176.400 234.450,176.400 234.570 C 176.400 235.082,172.392 236.772,171.756 236.528 C 171.263 236.339,171.158 236.408,171.384 236.775 C 171.621 237.158,171.474 237.214,170.800 237.000 C 170.146 236.792,169.982 236.847,170.200 237.200 C 170.418 237.553,170.254 237.608,169.600 237.400 C 168.933 237.188,168.780 237.244,169.010 237.615 C 169.241 237.990,169.052 238.050,168.260 237.851 C 167.658 237.700,167.200 237.753,167.200 237.974 C 167.200 238.207,166.374 238.264,165.137 238.118 C 163.627 237.939,163.151 237.998,163.361 238.337 C 163.557 238.655,163.200 238.800,162.224 238.800 C 161.441 238.800,160.800 238.600,160.800 238.355 C 160.800 238.062,160.312 238.003,159.361 238.181 C 158.310 238.378,157.999 238.325,158.211 237.983 C 158.416 237.651,158.238 237.597,157.600 237.800 C 156.938 238.010,156.781 237.955,157.006 237.591 C 157.204 237.269,157.117 237.162,156.756 237.283 C 156.450 237.386,155.962 237.184,155.670 236.835 C 155.379 236.486,155.266 236.443,155.419 236.740 C 155.867 237.612,154.364 236.660,153.201 235.337 L 152.203 234.200 153.415 235.200 C 154.082 235.750,153.841 235.425,152.879 234.479 C 151.828 233.443,151.219 232.527,151.353 232.179 C 151.475 231.860,151.388 231.600,151.160 231.600 C 150.928 231.600,150.858 231.249,151.000 230.800 C 151.140 230.360,151.107 230.000,150.927 230.000 C 150.747 229.999,150.600 228.396,150.600 226.437 C 150.600 224.411,150.756 222.973,150.962 223.100 C 151.169 223.228,151.215 222.775,151.068 222.042 C 150.893 221.164,150.949 220.845,151.249 221.030 C 151.551 221.217,151.597 220.899,151.400 220.000 C 151.187 219.029,151.237 218.776,151.600 219.000 C 151.953 219.218,152.007 219.054,151.800 218.400 C 151.588 217.733,151.644 217.580,152.015 217.810 C 152.392 218.042,152.448 217.848,152.242 217.026 C 152.048 216.252,152.102 216.016,152.427 216.217 C 152.748 216.415,152.800 216.229,152.600 215.600 C 152.392 214.946,152.447 214.782,152.800 215.000 C 153.149 215.216,153.210 215.060,153.016 214.450 C 152.859 213.957,152.920 213.600,153.160 213.600 C 153.388 213.600,153.471 213.330,153.345 213.000 C 153.218 212.670,153.308 212.400,153.545 212.400 C 153.781 212.400,153.871 212.130,153.745 211.800 C 153.618 211.470,153.708 211.200,153.945 211.200 C 154.181 211.200,154.271 210.930,154.145 210.600 C 154.018 210.270,154.108 210.000,154.345 210.000 C 154.581 210.000,154.671 209.730,154.545 209.400 C 154.418 209.070,154.508 208.800,154.745 208.800 C 154.982 208.800,155.060 208.501,154.919 208.134 C 154.738 207.661,154.812 207.560,155.175 207.784 C 155.558 208.021,155.614 207.874,155.400 207.200 C 155.192 206.546,155.247 206.382,155.600 206.600 C 155.953 206.818,156.008 206.654,155.800 206.000 C 155.586 205.326,155.642 205.179,156.025 205.416 C 156.388 205.640,156.462 205.539,156.281 205.066 C 155.946 204.195,156.365 203.131,156.910 203.468 C 157.177 203.633,157.241 203.483,157.081 203.066 C 156.746 202.195,157.165 201.131,157.710 201.468 C 157.977 201.633,158.041 201.483,157.881 201.066 C 157.546 200.195,157.965 199.131,158.510 199.468 C 158.777 199.633,158.841 199.483,158.681 199.066 C 158.540 198.700,158.610 198.400,158.836 198.400 C 159.062 198.400,159.146 198.236,159.022 198.036 C 158.675 197.475,159.230 196.371,159.710 196.668 C 159.977 196.833,160.041 196.683,159.881 196.266 C 159.546 195.395,159.965 194.331,160.510 194.668 C 160.778 194.834,160.840 194.682,160.677 194.257 C 160.358 193.426,161.989 189.946,162.538 190.285 C 162.773 190.431,162.832 190.259,162.681 189.866 C 162.540 189.500,162.610 189.200,162.836 189.200 C 163.062 189.200,163.144 189.032,163.017 188.827 C 162.727 188.358,164.029 185.571,164.424 185.815 C 164.833 186.068,165.259 184.819,164.939 184.302 C 164.795 184.068,164.858 183.989,165.080 184.126 C 165.302 184.263,165.691 183.919,165.945 183.362 C 166.271 182.646,166.276 182.429,165.963 182.623 C 164.946 183.251,166.468 181.202,167.887 180.033 C 168.881 179.213,169.633 178.883,170.140 179.044 C 170.558 179.177,170.805 179.131,170.688 178.943 C 170.572 178.754,171.359 178.600,172.438 178.600 C 173.517 178.600,174.400 178.747,174.400 178.927 C 174.400 179.107,174.740 179.146,175.154 179.014 C 176.175 178.691,178.454 180.594,178.112 181.485 C 177.976 181.840,178.030 182.029,178.232 181.904 C 178.439 181.776,178.600 182.624,178.600 183.838 C 178.600 185.027,178.471 186.000,178.313 186.000 C 178.154 186.000,178.140 186.300,178.281 186.666 C 178.467 187.152,178.392 187.242,178.000 187.000 C 177.604 186.756,177.533 186.850,177.729 187.360 C 177.974 187.997,177.054 190.400,176.566 190.400 C 176.449 190.400,176.464 190.220,176.600 190.000 C 176.736 189.780,176.751 189.600,176.634 189.600 C 176.517 189.600,176.131 190.160,175.777 190.844 C 175.423 191.528,175.340 191.961,175.592 191.805 C 175.843 191.650,175.406 192.800,174.620 194.361 C 173.833 195.923,173.092 197.200,172.971 197.200 C 172.851 197.200,172.867 196.975,173.006 196.700 C 173.145 196.425,172.972 196.555,172.621 196.989 C 172.270 197.422,172.074 198.017,172.187 198.309 C 172.313 198.638,172.214 198.732,171.927 198.555 C 171.615 198.362,171.550 198.493,171.727 198.955 C 171.905 199.418,171.840 199.548,171.527 199.355 C 171.215 199.162,171.150 199.293,171.327 199.755 C 171.505 200.218,171.440 200.348,171.127 200.155 C 170.815 199.962,170.750 200.093,170.927 200.555 C 171.072 200.933,171.032 201.143,170.837 201.023 C 170.425 200.768,169.900 201.914,170.204 202.406 C 170.529 202.932,169.529 204.804,169.074 204.522 C 168.825 204.368,168.765 204.531,168.919 204.934 C 169.246 205.786,168.840 206.872,168.315 206.548 C 168.064 206.392,168.021 206.635,168.200 207.200 C 168.393 207.808,168.344 208.012,168.047 207.829 C 167.773 207.660,167.698 207.790,167.847 208.179 C 167.978 208.521,167.892 208.800,167.655 208.800 C 167.418 208.800,167.340 209.099,167.481 209.466 C 167.662 209.939,167.588 210.040,167.225 209.816 C 166.847 209.582,166.784 209.720,166.984 210.350 C 167.141 210.843,167.080 211.200,166.840 211.200 C 166.612 211.200,166.529 211.470,166.655 211.800 C 166.782 212.130,166.674 212.400,166.416 212.400 C 166.119 212.400,166.045 212.713,166.216 213.250 C 166.402 213.837,166.344 214.012,166.027 213.817 C 165.702 213.616,165.648 213.852,165.842 214.626 C 166.048 215.447,165.992 215.642,165.616 215.410 C 165.234 215.174,165.182 215.409,165.400 216.400 C 165.600 217.309,165.552 217.618,165.243 217.426 C 164.941 217.240,164.800 217.805,164.800 219.200 C 164.800 220.595,164.941 221.160,165.243 220.974 C 165.538 220.791,165.599 220.972,165.427 221.516 C 165.278 221.984,165.372 222.459,165.646 222.628 C 165.946 222.814,166.019 222.754,165.841 222.466 C 165.658 222.171,165.777 222.093,166.177 222.246 C 166.517 222.377,166.696 222.645,166.574 222.842 C 166.452 223.039,167.004 223.200,167.800 223.200 C 168.700 223.200,169.150 223.043,168.990 222.784 C 168.822 222.512,169.110 222.463,169.826 222.642 C 170.648 222.848,170.842 222.792,170.610 222.415 C 170.380 222.044,170.533 221.988,171.200 222.200 C 171.743 222.372,172.006 222.333,171.863 222.101 C 171.732 221.890,172.081 221.509,172.638 221.255 C 173.439 220.890,173.590 220.899,173.360 221.297 C 173.200 221.574,173.549 221.295,174.136 220.677 C 174.723 220.060,175.362 219.653,175.556 219.773 C 175.751 219.893,176.155 219.678,176.455 219.296 C 176.957 218.654,176.937 218.645,176.200 219.177 C 175.760 219.494,176.431 218.808,177.690 217.653 C 178.950 216.498,180.910 214.304,182.045 212.777 C 183.181 211.250,184.197 210.000,184.304 210.000 C 184.411 210.000,184.251 210.315,183.949 210.700 C 183.456 211.329,183.469 211.346,184.076 210.871 C 184.448 210.580,184.676 210.130,184.583 209.871 C 184.490 209.612,184.787 208.950,185.242 208.400 C 185.697 207.850,185.953 207.625,185.811 207.900 C 185.669 208.175,185.647 208.400,185.762 208.400 C 185.878 208.400,186.176 208.018,186.426 207.552 C 186.774 206.900,186.768 206.772,186.400 207.000 C 186.032 207.228,186.026 207.100,186.374 206.448 C 186.624 205.982,186.922 205.600,187.038 205.600 C 187.153 205.600,187.119 205.808,186.962 206.062 C 186.789 206.341,186.852 206.415,187.121 206.249 C 187.365 206.098,187.479 205.750,187.374 205.476 C 187.268 205.201,187.470 204.622,187.821 204.189 C 188.172 203.755,188.345 203.625,188.206 203.900 C 187.766 204.769,188.350 204.440,188.826 203.552 C 189.162 202.924,189.162 202.776,188.828 202.983 C 188.579 203.136,189.045 201.909,189.864 200.255 C 190.683 198.600,191.479 197.325,191.634 197.421 C 191.995 197.644,192.470 196.437,192.196 195.994 C 191.871 195.468,192.871 193.596,193.326 193.878 C 193.575 194.032,193.635 193.869,193.481 193.466 C 193.154 192.614,193.560 191.528,194.085 191.852 C 194.333 192.006,194.383 191.777,194.216 191.250 C 194.059 190.757,194.120 190.400,194.360 190.400 C 194.588 190.400,194.671 190.130,194.545 189.800 C 194.418 189.470,194.508 189.200,194.745 189.200 C 194.981 189.200,195.071 188.930,194.945 188.600 C 194.818 188.270,194.908 188.000,195.145 188.000 C 195.382 188.000,195.460 187.701,195.319 187.334 C 195.133 186.848,195.208 186.758,195.600 187.000 C 195.997 187.246,196.066 187.149,195.866 186.628 C 195.090 184.606,199.953 178.172,201.890 178.658 C 202.611 178.839,202.834 178.779,202.636 178.458 C 202.451 178.158,202.715 178.000,203.400 178.000 C 204.091 178.000,204.350 178.157,204.161 178.463 C 203.961 178.787,204.163 178.850,204.837 178.672 C 205.547 178.484,205.993 178.652,206.535 179.309 C 206.939 179.799,207.153 179.975,207.011 179.700 C 206.459 178.631,207.179 179.271,207.972 180.555 C 208.433 181.300,208.698 182.200,208.562 182.555 C 208.426 182.910,208.489 183.200,208.703 183.200 C 208.916 183.200,209.091 183.915,209.091 184.790 C 209.091 185.768,208.934 186.283,208.683 186.128 C 208.420 185.965,208.366 186.330,208.532 187.158 C 208.715 188.075,208.657 188.359,208.326 188.154 C 208.018 187.964,207.949 188.091,208.119 188.534 C 208.446 189.386,208.040 190.472,207.515 190.148 C 207.264 189.992,207.221 190.235,207.400 190.800 C 207.614 191.474,207.558 191.621,207.175 191.384 C 206.812 191.160,206.738 191.261,206.919 191.734 C 207.060 192.100,207.006 192.400,206.800 192.400 C 206.594 192.400,206.540 192.700,206.681 193.066 C 206.852 193.513,206.783 193.636,206.468 193.442 C 206.207 193.280,205.974 193.384,205.941 193.676 C 205.908 193.964,205.845 194.470,205.800 194.800 C 205.755 195.130,205.692 195.636,205.659 195.924 C 205.627 196.212,205.420 196.336,205.200 196.200 C 204.980 196.064,204.773 196.188,204.741 196.476 C 204.708 196.764,204.645 197.270,204.600 197.600 C 204.555 197.930,204.492 198.436,204.459 198.724 C 204.427 199.012,204.220 199.136,204.000 199.000 C 203.780 198.864,203.573 198.988,203.541 199.276 C 203.508 199.564,203.445 200.070,203.400 200.400 C 203.355 200.730,203.292 201.236,203.259 201.524 C 203.226 201.816,202.993 201.920,202.732 201.758 C 202.417 201.564,202.348 201.687,202.519 202.134 C 202.660 202.500,202.590 202.800,202.364 202.800 C 202.138 202.800,202.054 202.964,202.178 203.164 C 202.515 203.709,201.977 204.833,201.515 204.548 C 201.264 204.392,201.221 204.635,201.400 205.200 C 201.593 205.808,201.544 206.012,201.247 205.829 C 200.973 205.660,200.898 205.790,201.047 206.179 C 201.178 206.521,201.092 206.800,200.855 206.800 C 200.618 206.800,200.540 207.099,200.681 207.466 C 200.862 207.939,200.788 208.040,200.425 207.816 C 200.042 207.579,199.986 207.726,200.200 208.400 C 200.408 209.054,200.353 209.218,200.000 209.000 C 199.647 208.782,199.592 208.946,199.800 209.600 C 199.993 210.208,199.944 210.412,199.647 210.229 C 199.373 210.060,199.298 210.190,199.447 210.579 C 199.579 210.923,199.476 211.200,199.216 211.200 C 198.919 211.200,198.845 211.513,199.016 212.050 C 199.210 212.660,199.149 212.816,198.800 212.600 C 198.447 212.382,198.392 212.546,198.600 213.200 C 198.808 213.854,198.753 214.018,198.400 213.800 C 198.051 213.584,197.990 213.740,198.184 214.350 C 198.351 214.876,198.281 215.200,198.000 215.200 C 197.728 215.200,197.648 215.521,197.800 216.000 C 197.956 216.490,197.872 216.800,197.584 216.800 C 197.282 216.800,197.203 217.158,197.364 217.800 C 197.510 218.379,197.443 218.800,197.206 218.800 C 196.661 218.800,196.775 223.538,197.328 223.879 C 198.016 224.304,201.597 224.318,201.335 223.895 C 201.194 223.667,201.462 223.629,202.000 223.800 C 202.523 223.966,202.804 223.931,202.671 223.716 C 202.546 223.512,203.437 222.858,204.651 222.262 C 205.866 221.667,206.741 221.409,206.595 221.690 C 206.450 221.970,206.722 221.750,207.200 221.200 C 207.678 220.650,207.944 220.470,207.791 220.800 C 207.638 221.130,207.952 220.876,208.490 220.235 C 209.028 219.595,209.653 219.186,209.880 219.326 C 210.107 219.466,210.632 219.180,211.047 218.691 L 211.800 217.800 210.831 218.600 C 210.298 219.040,209.989 219.183,210.143 218.919 C 210.298 218.654,210.991 218.033,211.684 217.540 C 212.377 217.046,212.794 216.886,212.610 217.183 C 212.382 217.553,212.428 217.630,212.754 217.428 C 213.028 217.259,213.122 216.784,212.973 216.316 C 212.796 215.757,212.859 215.589,213.173 215.783 C 213.498 215.984,213.552 215.748,213.358 214.974 C 213.152 214.152,213.208 213.958,213.585 214.190 C 213.956 214.420,214.012 214.267,213.800 213.600 C 213.607 212.992,213.656 212.788,213.953 212.971 C 214.227 213.140,214.302 213.010,214.153 212.621 C 214.022 212.279,214.108 212.000,214.345 212.000 C 214.582 212.000,214.660 211.701,214.519 211.334 C 214.338 210.861,214.412 210.760,214.775 210.984 C 215.158 211.221,215.214 211.074,215.000 210.400 C 214.786 209.726,214.842 209.579,215.225 209.816 C 215.588 210.040,215.662 209.939,215.481 209.466 C 215.340 209.100,215.394 208.800,215.600 208.800 C 215.806 208.800,215.860 208.500,215.719 208.134 C 215.533 207.648,215.608 207.558,216.000 207.800 C 216.392 208.042,216.467 207.952,216.281 207.466 C 215.946 206.595,216.365 205.531,216.910 205.868 C 217.177 206.033,217.241 205.883,217.081 205.466 C 216.754 204.614,217.160 203.528,217.685 203.852 C 217.936 204.008,217.979 203.765,217.800 203.200 C 217.586 202.526,217.642 202.379,218.025 202.616 C 218.388 202.840,218.462 202.739,218.281 202.266 C 218.140 201.900,218.194 201.600,218.400 201.600 C 218.606 201.600,218.660 201.300,218.519 200.934 C 218.333 200.448,218.408 200.358,218.800 200.600 C 219.192 200.842,219.267 200.752,219.081 200.266 C 218.746 199.395,219.165 198.331,219.710 198.668 C 219.977 198.833,220.041 198.683,219.881 198.266 C 219.546 197.395,219.965 196.331,220.510 196.668 C 220.777 196.833,220.841 196.683,220.681 196.266 C 220.346 195.395,220.765 194.331,221.310 194.668 C 221.577 194.833,221.641 194.683,221.481 194.266 C 221.146 193.395,221.565 192.331,222.110 192.668 C 222.377 192.833,222.441 192.683,222.281 192.266 C 221.946 191.395,222.365 190.331,222.910 190.668 C 223.177 190.833,223.241 190.683,223.081 190.266 C 222.746 189.395,223.165 188.331,223.710 188.668 C 223.977 188.833,224.041 188.683,223.881 188.266 C 223.546 187.395,223.965 186.331,224.510 186.668 C 224.777 186.833,224.841 186.683,224.681 186.266 C 224.346 185.395,224.765 184.331,225.310 184.668 C 225.577 184.833,225.641 184.683,225.481 184.266 C 225.146 183.395,225.565 182.331,226.110 182.668 C 226.377 182.833,226.441 182.683,226.281 182.266 C 225.946 181.395,226.365 180.331,226.910 180.668 C 227.177 180.833,227.241 180.683,227.081 180.266 C 226.746 179.395,227.165 178.331,227.710 178.668 C 227.977 178.833,228.041 178.683,227.881 178.266 C 227.554 177.414,227.960 176.328,228.485 176.652 C 228.736 176.808,228.779 176.565,228.600 176.000 C 228.407 175.392,228.456 175.188,228.753 175.371 C 229.027 175.540,229.102 175.410,228.953 175.021 C 228.822 174.679,228.908 174.400,229.145 174.400 C 229.382 174.400,229.460 174.101,229.319 173.734 C 229.133 173.248,229.208 173.158,229.600 173.400 C 229.992 173.642,230.067 173.552,229.881 173.066 C 229.740 172.700,229.794 172.400,230.000 172.400 C 230.206 172.400,230.260 172.100,230.119 171.734 C 229.933 171.248,230.008 171.158,230.400 171.400 C 230.792 171.642,230.867 171.552,230.681 171.066 C 230.540 170.700,230.594 170.400,230.800 170.400 C 231.006 170.400,231.060 170.100,230.919 169.734 C 230.733 169.248,230.808 169.158,231.200 169.400 C 231.592 169.642,231.667 169.552,231.481 169.066 C 231.340 168.700,231.394 168.400,231.600 168.400 C 231.806 168.400,231.860 168.100,231.719 167.734 C 231.533 167.248,231.608 167.158,232.000 167.400 C 232.392 167.642,232.467 167.552,232.281 167.066 C 231.946 166.195,232.365 165.131,232.910 165.468 C 233.177 165.633,233.241 165.483,233.081 165.066 C 232.746 164.195,233.165 163.131,233.710 163.468 C 233.977 163.633,234.041 163.483,233.881 163.066 C 233.546 162.195,233.965 161.131,234.510 161.468 C 234.777 161.633,234.841 161.483,234.681 161.066 C 234.346 160.195,234.765 159.131,235.310 159.468 C 235.577 159.633,235.641 159.483,235.481 159.066 C 235.146 158.195,235.565 157.131,236.110 157.468 C 236.377 157.633,236.441 157.483,236.281 157.066 C 235.946 156.195,236.365 155.131,236.910 155.468 C 237.177 155.633,237.241 155.483,237.081 155.066 C 236.746 154.195,237.165 153.131,237.710 153.468 C 237.977 153.633,238.041 153.483,237.881 153.066 C 237.546 152.195,237.965 151.131,238.510 151.468 C 238.777 151.633,238.841 151.483,238.681 151.066 C 238.354 150.214,238.760 149.128,239.285 149.452 C 239.536 149.608,239.579 149.365,239.400 148.800 C 239.186 148.126,239.242 147.979,239.625 148.216 C 239.988 148.440,240.062 148.339,239.881 147.866 C 239.740 147.500,239.794 147.200,240.000 147.200 C 240.206 147.200,240.260 146.900,240.119 146.534 C 239.933 146.048,240.008 145.958,240.400 146.200 C 240.792 146.442,240.867 146.352,240.681 145.866 C 240.540 145.500,240.594 145.200,240.800 145.200 C 241.006 145.200,241.060 144.900,240.919 144.534 C 240.733 144.048,240.808 143.958,241.200 144.200 C 241.592 144.442,241.667 144.352,241.481 143.866 C 241.340 143.500,241.394 143.200,241.600 143.200 C 241.806 143.200,241.860 142.900,241.719 142.534 C 241.533 142.048,241.608 141.958,242.000 142.200 C 242.392 142.442,242.467 142.352,242.281 141.866 C 242.140 141.500,242.194 141.200,242.400 141.200 C 242.606 141.200,242.660 140.900,242.519 140.534 C 242.333 140.048,242.408 139.958,242.800 140.200 C 243.192 140.442,243.267 140.352,243.081 139.866 C 242.746 138.995,243.165 137.931,243.710 138.268 C 243.973 138.430,244.043 138.289,243.893 137.899 C 243.749 137.524,243.902 137.170,244.267 137.030 C 244.606 136.900,244.788 136.547,244.673 136.245 C 244.347 135.397,246.907 133.113,247.798 133.455 C 248.301 133.648,248.441 133.591,248.245 133.273 C 248.058 132.970,248.174 132.892,248.579 133.047 C 248.921 133.178,249.200 133.131,249.200 132.943 C 249.200 132.754,250.173 132.600,251.362 132.600 C 252.551 132.600,253.428 132.754,253.312 132.943 M107.791 138.900 L 104.600 142.200 107.900 139.009 C 110.965 136.046,111.382 135.600,111.091 135.600 C 111.030 135.600,109.545 137.085,107.791 138.900 M121.200 145.800 C 119.561 147.450,118.310 148.800,118.420 148.800 C 118.530 148.800,119.961 147.450,121.600 145.800 C 123.239 144.150,124.490 142.800,124.380 142.800 C 124.270 142.800,122.839 144.150,121.200 145.800 M302.800 183.800 C 303.546 184.570,304.247 185.200,304.357 185.200 C 304.467 185.200,303.946 184.570,303.200 183.800 C 302.454 183.030,301.753 182.400,301.643 182.400 C 301.533 182.400,302.054 183.030,302.800 183.800 M275.391 201.300 L 272.200 204.600 275.500 201.409 C 278.565 198.446,278.982 198.000,278.691 198.000 C 278.630 198.000,277.145 199.485,275.391 201.300 M316.175 202.900 L 315.000 204.200 316.300 203.025 C 317.015 202.379,317.600 201.794,317.600 201.725 C 317.600 201.416,317.270 201.688,316.175 202.900 M312.575 206.100 L 311.400 207.400 312.700 206.225 C 313.415 205.579,314.000 204.994,314.000 204.925 C 314.000 204.616,313.670 204.888,312.575 206.100 M246.987 209.700 L 244.600 212.200 247.100 209.813 C 248.475 208.499,249.600 207.374,249.600 207.313 C 249.600 207.017,249.205 207.378,246.987 209.700 M309.375 208.900 L 308.200 210.200 309.500 209.025 C 310.215 208.379,310.800 207.794,310.800 207.725 C 310.800 207.416,310.470 207.688,309.375 208.900 M322.000 210.600 C 321.028 211.590,320.323 212.400,320.433 212.400 C 320.543 212.400,321.428 211.590,322.400 210.600 C 323.372 209.610,324.077 208.800,323.967 208.800 C 323.857 208.800,322.972 209.610,322.000 210.600 M317.578 214.700 L 316.200 216.200 317.700 214.822 C 319.096 213.538,319.384 213.200,319.078 213.200 C 319.012 213.200,318.337 213.875,317.578 214.700 M112.575 216.500 L 111.400 217.800 112.700 216.625 C 113.912 215.530,114.184 215.200,113.875 215.200 C 113.806 215.200,113.221 215.785,112.575 216.500 M179.178 216.700 L 177.800 218.200 179.300 216.822 C 180.696 215.538,180.984 215.200,180.678 215.200 C 180.612 215.200,179.937 215.875,179.178 216.700 M117.387 225.700 L 115.000 228.200 117.500 225.813 C 119.822 223.595,120.183 223.200,119.887 223.200 C 119.826 223.200,118.701 224.325,117.387 225.700 M183.178 228.300 L 181.800 229.800 183.300 228.422 C 184.696 227.138,184.984 226.800,184.678 226.800 C 184.612 226.800,183.937 227.475,183.178 228.300 M213.200 234.525 C 213.200 234.594,213.785 235.179,214.500 235.825 L 215.800 237.000 214.625 235.700 C 213.530 234.488,213.200 234.216,213.200 234.525 M124.175 254.500 L 123.000 255.800 124.300 254.625 C 125.015 253.979,125.600 253.394,125.600 253.325 C 125.600 253.016,125.270 253.288,124.175 254.500 " stroke="none" fill="#000000" fill-rule="evenodd"></path></g></svg>