<svg id="svg" version="1.1" xmlns="http://www.w3.org/2000/svg" xmlns:xlink="http://www.w3.org/1999/xlink" width="400" height="400" viewBox="0, 0, 400,400"><g id="svgg"><path id="path0" d="M187.600 52.257 C 100.855 60.155,39.730 138.759,53.828 224.283 C 67.125 304.955,143.409 359.503,224.283 346.172 C 304.955 332.875,359.503 256.591,346.172 175.717 C 335.542 111.228,284.972 62.353,219.178 52.979 C 214.766 52.351,192.232 51.835,187.600 52.257 M88.000 156.000 L 88.000 166.400 98.200 166.400 L 108.400 166.400 108.400 156.000 L 108.400 145.600 114.600 145.600 L 120.800 145.600 120.800 172.800 L 120.800 200.000 114.600 200.000 L 108.400 200.000 108.400 188.600 L 108.400 177.200 98.200 177.200 L 88.000 177.200 88.000 188.600 L 88.000 200.000 81.800 200.000 L 75.600 200.000 75.600 172.800 L 75.600 145.600 81.800 145.600 L 88.000 145.600 88.000 156.000 M171.600 150.800 L 171.600 156.000 164.000 156.000 L 156.400 156.000 156.400 178.000 L 156.400 200.000 150.200 200.000 L 144.000 200.000 144.000 178.000 L 144.000 156.000 136.600 156.000 L 129.200 156.000 129.200 150.800 L 129.200 145.600 150.400 145.600 L 171.600 145.600 171.600 150.800 M200.492 153.600 C 203.582 164.058,204.969 169.233,206.573 176.285 C 207.313 179.538,208.017 181.930,208.137 181.600 C 208.258 181.270,209.189 177.761,210.207 173.803 C 211.225 169.845,213.239 162.915,214.684 158.403 C 216.128 153.891,217.610 149.210,217.978 148.000 L 218.647 145.800 226.898 145.692 L 235.149 145.584 235.364 147.292 C 235.483 148.231,236.126 159.530,236.793 172.400 C 237.460 185.270,238.107 196.745,238.232 197.900 L 238.458 200.000 232.247 200.000 L 226.036 200.000 225.841 198.700 C 225.572 196.915,224.788 173.714,224.795 167.756 C 224.805 158.128,224.590 158.021,222.159 166.452 C 220.993 170.493,218.263 179.470,216.092 186.400 L 212.146 199.000 207.087 199.112 L 202.029 199.224 201.423 197.112 C 198.778 187.894,194.207 170.612,193.090 165.600 C 191.645 159.120,191.203 158.730,191.196 163.933 C 191.194 165.620,190.836 174.200,190.400 183.000 C 189.964 191.800,189.606 199.225,189.604 199.500 C 189.601 199.877,188.171 200.000,183.800 200.000 L 178.000 200.000 178.000 198.275 C 178.000 197.327,178.720 185.345,179.600 171.650 C 180.480 157.954,181.200 146.487,181.200 146.166 C 181.200 145.672,182.476 145.600,189.694 145.692 L 198.188 145.800 200.492 153.600 M262.000 167.600 L 262.000 189.600 273.000 189.600 L 284.000 189.600 284.000 194.800 L 284.000 200.000 266.800 200.000 L 249.600 200.000 249.600 172.800 L 249.600 145.600 255.800 145.600 L 262.000 145.600 262.000 167.600 M326.800 152.800 L 326.800 158.000 316.627 158.000 C 305.090 158.000,306.259 157.589,305.809 161.800 C 305.668 163.120,305.461 164.515,305.349 164.900 C 305.166 165.533,305.524 165.601,309.073 165.606 C 322.078 165.625,329.624 172.751,328.672 184.113 C 328.048 191.558,322.128 197.870,313.766 200.009 C 307.426 201.630,292.834 200.320,291.400 198.000 C 291.242 197.745,293.090 189.093,293.431 188.485 C 293.467 188.422,294.914 188.853,296.648 189.443 C 306.837 192.909,315.603 189.984,315.599 183.120 C 315.594 177.378,311.103 174.996,300.300 175.005 C 296.835 175.008,293.995 174.918,293.989 174.805 C 293.983 174.692,294.737 168.525,295.665 161.100 L 297.352 147.600 312.076 147.600 L 326.800 147.600 326.800 152.800 M151.300 223.558 C 154.473 224.585,154.399 224.259,152.804 230.153 C 151.385 235.400,151.879 234.937,148.783 233.917 C 135.881 229.668,124.762 236.576,124.099 249.253 C 123.363 263.339,134.070 270.980,148.943 266.982 C 150.232 266.636,151.386 266.453,151.509 266.576 C 151.795 266.862,153.574 276.151,153.381 276.349 C 151.573 278.203,136.564 279.045,130.600 277.625 C 105.485 271.650,103.159 234.847,127.257 224.722 C 133.317 222.176,145.247 221.598,151.300 223.558 M189.680 222.824 C 193.053 223.499,196.844 224.908,196.650 225.414 C 196.554 225.665,195.905 227.922,195.209 230.430 C 194.513 232.938,193.890 235.044,193.824 235.109 C 193.758 235.175,192.286 234.750,190.552 234.165 C 182.178 231.336,174.800 233.026,174.800 237.772 C 174.800 240.519,177.175 242.341,184.208 244.989 C 194.506 248.865,198.611 253.549,198.589 261.400 C 198.559 272.296,190.797 278.400,176.971 278.400 C 170.977 278.400,162.683 276.817,161.269 275.402 C 161.044 275.177,163.161 265.911,163.601 265.199 C 163.753 264.952,164.787 265.168,166.309 265.765 C 176.687 269.832,185.600 268.296,185.600 262.440 C 185.600 259.444,183.902 257.884,178.174 255.615 C 165.533 250.608,162.200 247.058,162.200 238.600 C 162.200 226.707,174.319 219.750,189.680 222.824 M235.680 222.824 C 239.053 223.499,242.844 224.908,242.650 225.414 C 242.554 225.665,241.905 227.922,241.209 230.430 C 240.513 232.938,239.890 235.044,239.824 235.109 C 239.758 235.175,238.286 234.750,236.552 234.165 C 228.178 231.336,220.800 233.026,220.800 237.772 C 220.800 240.519,223.175 242.341,230.208 244.989 C 240.506 248.865,244.611 253.549,244.589 261.400 C 244.559 272.296,236.797 278.400,222.971 278.400 C 216.977 278.400,208.683 276.817,207.269 275.402 C 207.044 275.177,209.161 265.911,209.601 265.199 C 209.753 264.952,210.787 265.168,212.309 265.765 C 222.687 269.832,231.600 268.296,231.600 262.440 C 231.600 259.444,229.902 257.884,224.174 255.615 C 211.533 250.608,208.200 247.058,208.200 238.600 C 208.200 226.707,220.319 219.750,235.680 222.824 M277.716 225.148 C 289.881 228.522,292.006 243.124,281.134 248.634 L 279.040 249.694 280.789 250.285 C 292.253 254.161,292.778 269.610,281.647 275.543 C 275.030 279.070,263.541 279.463,255.600 276.435 C 251.747 274.966,251.854 275.686,254.248 267.323 L 254.843 265.247 256.722 266.059 C 265.936 270.043,276.223 268.395,276.444 262.899 C 276.678 257.098,272.610 254.471,263.300 254.413 L 261.200 254.400 261.200 250.059 L 261.200 245.718 265.100 245.451 C 272.101 244.970,275.200 243.119,275.200 239.417 C 275.200 234.165,266.514 232.691,258.750 236.625 C 256.516 237.757,256.767 238.024,255.432 233.100 C 254.851 230.955,254.282 228.959,254.169 228.663 C 253.826 227.770,259.631 225.511,264.400 224.683 C 267.388 224.163,275.142 224.435,277.716 225.148 " stroke="none" fill="#000000" fill-rule="evenodd"></path></g></svg>