<svg id="svg" xmlns="http://www.w3.org/2000/svg" xmlns:xlink="http://www.w3.org/1999/xlink" width="400" height="400" viewBox="0, 0, 400,400"><g id="svgg"><path id="path0" d="M187.600 52.257 C 100.855 60.155,39.730 138.759,53.828 224.283 C 67.125 304.955,143.409 359.503,224.283 346.172 C 304.955 332.875,359.503 256.591,346.172 175.717 C 335.542 111.228,284.972 62.353,219.178 52.979 C 214.766 52.351,192.232 51.835,187.600 52.257 M283.800 188.169 C 288.139 188.944,294.755 190.834,297.516 192.087 L 299.528 193.000 296.707 203.200 C 295.156 208.810,293.837 213.460,293.776 213.533 C 293.716 213.607,292.076 213.034,290.133 212.261 C 271.616 204.891,253.753 208.304,253.815 219.200 C 253.850 225.474,257.606 228.439,273.269 234.555 C 298.521 244.417,308.084 258.185,303.027 277.400 C 297.268 299.281,268.619 309.612,237.000 301.209 C 232.917 300.124,226.971 297.936,226.327 297.282 C 226.054 297.005,230.861 276.606,231.303 276.163 C 231.427 276.039,232.953 276.564,234.693 277.329 C 256.596 286.959,277.400 283.681,277.389 270.600 C 277.383 263.877,272.538 259.720,259.200 254.994 C 238.109 247.520,227.600 236.349,227.600 221.404 C 227.600 197.490,252.740 182.623,283.800 188.169 M204.697 229.700 L 204.558 270.600 203.532 275.222 C 199.177 294.840,186.681 304.030,164.410 303.992 C 156.358 303.979,145.600 302.146,145.600 300.788 C 145.600 300.020,147.902 283.162,148.223 281.575 L 148.431 280.550 151.315 281.306 C 160.604 283.743,170.270 282.297,174.267 277.873 C 178.930 272.712,178.905 272.972,179.087 227.700 L 179.243 188.800 192.039 188.800 L 204.835 188.800 204.697 229.700 " stroke="none" fill="#000000" fill-rule="evenodd"></path></g></svg>