<svg id="svg" version="1.1" xmlns="http://www.w3.org/2000/svg" xmlns:xlink="http://www.w3.org/1999/xlink" width="400" height="400" viewBox="0, 0, 400,400"><g id="svgg"><path id="path0" d="M187.600 52.257 C 100.855 60.155,39.730 138.759,53.828 224.283 C 67.125 304.955,143.409 359.503,224.283 346.172 C 304.955 332.875,359.503 256.591,346.172 175.717 C 335.542 111.228,284.972 62.353,219.178 52.979 C 214.766 52.351,192.232 51.835,187.600 52.257 M152.957 105.695 C 162.474 108.601,168.095 118.722,165.362 128.027 C 160.157 145.749,130.390 145.789,125.622 128.081 C 121.552 112.968,136.551 100.685,152.957 105.695 M264.400 154.982 C 275.941 157.454,285.950 165.258,290.586 175.400 C 295.627 186.427,296.098 191.653,295.920 234.600 L 295.800 263.400 277.600 263.400 L 259.400 263.400 259.200 230.600 L 259.000 197.800 257.893 194.670 C 254.597 185.354,250.118 182.000,240.972 182.000 C 233.105 182.000,227.443 185.258,223.230 192.209 C 220.560 196.616,220.656 195.238,220.497 231.100 L 220.353 263.600 202.195 263.600 L 184.037 263.600 184.118 210.000 L 184.200 156.400 201.900 156.400 C 211.635 156.400,219.735 156.399,219.900 156.399 C 220.065 156.398,220.290 159.639,220.400 163.600 C 220.630 171.899,220.560 171.758,222.895 168.585 C 231.641 156.704,247.766 151.419,264.400 154.982 M163.600 210.008 L 163.600 263.600 145.400 263.600 L 127.200 263.600 127.200 210.067 C 127.200 180.623,127.275 156.458,127.366 156.367 C 127.458 156.275,135.648 156.249,145.566 156.308 L 163.600 156.416 163.600 210.008 " stroke="none" fill="#000000" fill-rule="evenodd"></path></g></svg>