<svg id="svg" version="1.1" xmlns="http://www.w3.org/2000/svg" xmlns:xlink="http://www.w3.org/1999/xlink" width="400" height="400" viewBox="0, 0, 400,400"><g id="svgg"><path id="path0" d="M187.600 52.257 C 100.855 60.155,39.730 138.759,53.828 224.283 C 67.125 304.955,143.409 359.503,224.283 346.172 C 304.955 332.875,359.503 256.591,346.172 175.717 C 335.542 111.228,284.972 62.353,219.178 52.979 C 214.766 52.351,192.232 51.835,187.600 52.257 M207.800 94.009 C 238.997 96.906,265.719 114.667,278.092 140.729 C 290.108 166.038,287.305 189.383,267.903 225.600 C 258.065 243.965,246.903 261.080,230.636 282.747 C 219.802 297.176,200.618 320.910,199.973 320.681 C 197.549 319.821,164.690 278.126,152.940 261.000 C 127.792 224.347,114.440 193.664,114.407 172.451 C 114.336 126.484,158.456 89.427,207.800 94.009 M192.937 138.565 C 164.544 143.980,153.467 175.403,173.073 194.913 C 195.727 217.456,236.460 202.758,236.572 172.000 C 236.650 150.697,215.260 134.308,192.937 138.565 " stroke="none" fill="#000000" fill-rule="evenodd"></path></g></svg>