<svg id="svg" version="1.1" xmlns="http://www.w3.org/2000/svg" xmlns:xlink="http://www.w3.org/1999/xlink" width="400" height="400" viewBox="0, 0, 400,400"><g id="svgg"><path id="path0" d="M187.600 52.257 C 100.855 60.155,39.730 138.759,53.828 224.283 C 67.125 304.955,143.409 359.503,224.283 346.172 C 304.955 332.875,359.503 256.591,346.172 175.717 C 335.542 111.228,284.972 62.353,219.178 52.979 C 214.766 52.351,192.232 51.835,187.600 52.257 M222.979 77.641 C 258.020 82.908,284.018 113.255,283.996 148.864 C 283.969 191.337,248.013 224.242,205.800 220.426 C 156.724 215.988,127.096 164.291,147.479 118.662 C 150.044 112.919,152.042 111.318,155.047 112.599 C 158.089 113.896,158.496 116.635,156.299 121.013 C 138.615 156.252,158.623 199.893,197.000 209.789 C 228.173 217.827,260.361 200.659,271.224 170.200 C 289.872 117.916,236.746 68.655,186.456 91.598 C 184.115 92.666,181.930 93.574,181.600 93.617 C 177.412 94.159,174.714 90.080,177.109 86.828 C 179.305 83.845,192.885 78.867,202.200 77.630 C 203.960 77.396,205.940 77.128,206.600 77.034 C 208.532 76.757,219.905 77.179,222.979 77.641 M215.700 97.582 C 218.830 101.084,215.084 106.574,210.780 104.792 C 205.975 102.801,207.833 95.585,213.000 96.170 C 214.142 96.299,214.915 96.703,215.700 97.582 M167.009 97.031 C 170.473 98.675,170.222 104.005,166.625 105.192 C 162.089 106.689,158.690 101.455,161.888 97.898 C 163.282 96.347,164.967 96.062,167.009 97.031 M191.631 103.969 C 195.136 107.474,190.847 113.300,186.440 111.020 C 184.276 109.902,183.366 107.187,184.447 105.074 C 185.767 102.491,189.568 101.907,191.631 103.969 M239.631 103.969 C 241.294 105.632,241.303 108.358,239.651 110.010 C 235.825 113.837,230.110 109.614,232.600 104.800 C 233.845 102.393,237.609 101.948,239.631 103.969 M214.290 115.792 C 216.670 116.475,216.779 117.120,216.894 131.254 L 217.000 144.200 224.800 144.400 C 233.317 144.618,233.913 144.767,234.934 146.917 C 235.827 148.799,235.413 150.949,233.915 152.210 L 232.739 153.200 221.931 153.200 C 206.617 153.200,208.000 155.076,208.000 134.301 C 208.000 117.948,208.102 117.067,210.118 116.087 C 211.942 115.201,212.174 115.184,214.290 115.792 M173.516 121.047 C 177.446 123.589,174.970 129.640,170.239 129.053 C 167.882 128.761,166.600 127.274,166.600 124.833 C 166.600 121.005,170.311 118.973,173.516 121.047 M256.632 121.058 C 258.702 122.414,259.001 125.715,257.233 127.694 C 254.580 130.663,249.600 128.785,249.600 124.814 C 249.600 120.910,253.350 118.907,256.632 121.058 M166.314 144.830 C 169.885 146.075,169.404 153.022,165.731 153.244 C 163.046 153.407,161.631 152.838,160.668 151.207 C 158.387 147.347,161.960 143.312,166.314 144.830 M262.261 144.811 C 264.514 145.597,265.468 148.749,264.196 151.208 C 262.688 154.124,257.830 153.978,256.462 150.976 C 254.659 147.019,258.100 143.361,262.261 144.811 M174.163 169.978 C 175.169 170.984,175.400 171.542,175.400 172.966 C 175.400 178.295,167.562 179.069,166.581 173.837 C 165.736 169.333,170.893 166.708,174.163 169.978 M257.345 170.032 C 258.355 171.162,258.469 171.545,258.304 173.261 C 257.749 179.034,249.600 178.789,249.600 173.000 C 249.600 168.765,254.526 166.878,257.345 170.032 M189.863 186.400 C 192.347 186.400,193.858 191.670,191.900 193.504 C 188.088 197.074,182.432 193.552,184.389 188.826 C 185.083 187.150,187.296 185.836,188.733 186.248 C 189.026 186.331,189.535 186.400,189.863 186.400 M239.900 187.801 C 241.943 190.169,240.483 194.395,237.423 194.969 C 233.343 195.735,230.314 191.051,232.825 187.859 C 234.423 185.828,238.171 185.797,239.900 187.801 M215.631 193.969 C 217.791 196.130,216.958 200.290,214.181 201.206 C 210.025 202.578,206.489 198.577,208.558 194.844 C 209.851 192.512,213.697 192.036,215.631 193.969 M308.117 231.769 C 316.949 236.142,319.541 249.130,313.187 257.169 C 311.562 259.224,307.704 261.958,279.627 280.953 C 264.677 291.067,264.497 291.147,261.906 288.833 C 258.634 285.909,259.999 283.280,267.400 278.249 C 269.820 276.603,276.750 271.902,282.800 267.802 C 309.141 249.949,307.298 251.479,307.513 247.287 C 307.737 242.905,305.482 239.664,301.718 238.958 C 299.042 238.456,299.012 238.474,268.200 258.138 C 253.191 267.716,253.449 267.532,252.513 269.374 C 251.155 272.045,247.831 275.146,244.899 276.475 C 242.415 277.601,239.675 278.202,220.600 281.801 C 216.420 282.590,211.830 283.498,210.400 283.819 C 208.970 284.140,205.460 284.776,202.600 285.231 C 199.740 285.686,196.320 286.313,195.000 286.623 C 189.746 287.860,186.800 286.503,186.800 282.846 C 186.800 279.002,188.562 278.411,213.200 273.997 C 241.474 268.932,243.840 268.140,245.177 263.300 C 246.033 260.199,243.227 255.705,240.037 255.067 C 238.879 254.836,228.838 255.415,216.800 256.408 C 205.621 257.330,201.918 256.574,192.935 251.535 C 177.065 242.632,172.253 241.037,159.767 240.542 C 147.818 240.067,126.193 243.735,118.475 247.546 L 117.149 248.200 117.173 270.800 C 117.185 283.230,117.197 293.824,117.198 294.343 C 117.200 295.082,117.351 295.224,117.900 295.002 C 124.389 292.376,134.832 289.165,136.400 289.315 C 138.125 289.480,141.056 290.674,160.200 299.007 C 164.600 300.922,169.820 303.167,171.800 303.996 C 173.780 304.825,178.780 306.965,182.911 308.753 C 200.611 316.412,209.793 315.866,225.785 306.204 C 232.648 302.058,235.448 301.880,236.844 305.500 C 238.079 308.704,237.090 310.040,230.600 313.932 C 215.886 322.758,203.561 325.013,190.600 321.248 C 185.012 319.625,184.127 319.264,157.200 307.603 C 148.950 304.031,140.724 300.501,138.920 299.759 L 135.640 298.411 126.520 301.569 C 121.504 303.306,116.612 305.013,115.650 305.363 C 111.544 306.857,108.734 305.573,108.214 301.965 C 107.551 297.369,108.175 243.403,108.904 242.290 C 109.836 240.868,111.100 240.258,116.485 238.630 C 152.376 227.781,170.670 228.629,195.000 242.271 C 205.551 248.187,207.138 248.452,222.949 246.948 C 242.631 245.076,248.896 246.677,252.516 254.500 C 253.696 257.049,251.260 258.281,274.458 243.400 C 296.184 229.463,295.242 229.932,301.200 230.111 C 304.689 230.216,305.255 230.352,308.117 231.769 M251.741 292.825 C 253.686 294.355,253.814 298.210,251.969 299.705 C 248.766 302.300,244.016 299.803,244.541 295.800 C 244.976 292.481,249.125 290.767,251.741 292.825 " stroke="none" fill="#000000" fill-rule="evenodd"></path></g></svg>