<svg id="svg" version="1.1" xmlns="http://www.w3.org/2000/svg" xmlns:xlink="http://www.w3.org/1999/xlink" width="400" height="400" viewBox="0, 0, 400,400"><g id="svgg"><path id="path0" d="M187.600 52.257 C 100.855 60.155,39.730 138.759,53.828 224.283 C 67.125 304.955,143.409 359.503,224.283 346.172 C 304.955 332.875,359.503 256.591,346.172 175.717 C 335.542 111.228,284.972 62.353,219.178 52.979 C 214.766 52.351,192.232 51.835,187.600 52.257 M216.600 92.165 C 219.020 92.225,221.810 92.401,222.800 92.556 C 223.790 92.712,228.200 92.995,232.600 93.186 C 241.783 93.584,254.252 94.655,256.600 95.247 C 257.480 95.469,259.426 95.884,260.924 96.169 C 262.423 96.455,263.854 96.894,264.104 97.144 C 264.355 97.395,265.116 97.600,265.795 97.600 C 266.475 97.600,267.737 97.960,268.600 98.400 C 269.463 98.840,270.508 99.200,270.921 99.200 C 271.335 99.200,272.131 99.560,272.691 100.000 C 273.250 100.440,274.022 100.800,274.405 100.800 C 274.788 100.800,275.326 101.070,275.600 101.400 C 275.874 101.730,276.412 102.000,276.795 102.000 C 277.178 102.000,277.921 102.335,278.446 102.745 C 278.971 103.155,279.805 103.617,280.300 103.772 C 280.795 103.927,281.200 104.210,281.200 104.400 C 281.200 104.590,281.605 104.873,282.100 105.027 C 284.950 105.918,295.839 115.765,299.542 120.800 C 300.756 122.450,301.881 123.892,302.043 124.004 C 302.204 124.116,302.806 125.106,303.380 126.204 C 304.567 128.476,305.297 129.710,305.628 130.000 C 305.753 130.110,306.262 131.100,306.759 132.200 C 307.257 133.300,308.009 134.940,308.432 135.844 C 308.854 136.748,309.200 137.839,309.200 138.267 C 309.200 138.696,309.464 139.396,309.787 139.824 C 310.110 140.251,310.380 141.091,310.387 141.692 C 310.394 142.292,310.651 143.462,310.958 144.292 C 312.203 147.651,313.092 159.012,312.408 162.800 C 312.149 164.230,311.795 167.020,311.621 169.000 C 311.446 170.980,311.078 173.230,310.803 174.000 C 309.357 178.041,308.138 180.574,306.521 182.901 C 305.794 183.946,305.200 184.968,305.200 185.170 C 305.200 185.373,304.570 186.364,303.800 187.373 C 303.030 188.382,302.400 189.305,302.400 189.425 C 302.400 189.647,299.329 194.529,297.959 196.484 C 297.542 197.080,297.200 197.737,297.200 197.944 C 297.200 199.638,290.908 200.890,286.800 200.014 C 285.590 199.756,283.682 199.416,282.560 199.258 C 281.439 199.100,280.050 198.663,279.474 198.286 C 278.899 197.909,277.971 197.600,277.413 197.600 C 276.854 197.600,275.725 197.240,274.904 196.800 C 274.084 196.360,273.139 195.994,272.806 195.987 C 272.473 195.980,271.851 195.710,271.424 195.387 C 270.996 195.064,270.346 194.800,269.977 194.800 C 269.609 194.800,268.850 194.440,268.291 194.000 C 267.731 193.560,267.061 193.200,266.800 193.200 C 266.539 193.200,265.869 192.840,265.309 192.400 C 264.750 191.960,263.956 191.600,263.546 191.600 C 263.136 191.600,262.800 191.422,262.800 191.205 C 262.800 190.988,262.215 190.542,261.500 190.213 C 258.580 188.871,250.417 181.761,250.405 180.549 C 250.402 180.301,250.130 179.874,249.800 179.600 C 247.819 177.956,249.187 172.202,253.128 165.604 C 259.686 154.624,261.200 151.216,261.200 147.438 L 261.200 144.454 258.612 141.827 C 256.909 140.098,255.708 139.200,255.101 139.200 C 254.593 139.200,253.733 138.885,253.189 138.500 C 251.523 137.321,148.176 137.219,145.921 138.394 C 145.071 138.837,144.104 139.200,143.771 139.200 C 142.664 139.200,139.998 141.356,138.495 143.467 C 137.071 145.466,137.213 149.898,138.800 153.000 C 139.460 154.291,140.000 155.505,140.000 155.699 C 140.000 155.894,140.860 157.526,141.911 159.326 C 142.962 161.127,144.043 163.050,144.314 163.600 C 144.585 164.150,145.190 165.230,145.658 166.000 C 149.847 172.883,150.622 176.306,148.774 179.754 C 147.888 181.405,142.408 187.200,141.731 187.200 C 141.507 187.200,140.998 187.560,140.600 188.000 C 140.202 188.440,139.643 188.800,139.358 188.800 C 139.073 188.800,138.696 189.029,138.520 189.308 C 138.344 189.588,137.705 190.034,137.100 190.300 C 136.495 190.565,136.000 190.967,136.000 191.191 C 136.000 191.416,135.664 191.600,135.254 191.600 C 134.844 191.600,134.050 191.960,133.491 192.400 C 132.931 192.840,132.261 193.200,132.000 193.200 C 131.739 193.200,131.069 193.560,130.509 194.000 C 129.950 194.440,129.088 194.800,128.595 194.800 C 128.102 194.800,127.490 195.051,127.235 195.358 C 126.980 195.665,126.126 196.037,125.337 196.186 C 124.547 196.334,123.609 196.621,123.251 196.824 C 122.246 197.395,119.195 198.426,117.200 198.868 C 116.210 199.087,114.356 199.534,113.080 199.860 C 106.059 201.654,102.704 200.218,98.924 193.800 C 97.888 192.040,96.806 190.456,96.520 190.280 C 96.234 190.104,96.000 189.781,96.000 189.561 C 96.000 189.341,95.370 188.177,94.600 186.973 C 93.830 185.769,93.200 184.679,93.200 184.550 C 93.200 184.421,92.689 183.560,92.065 182.635 C 89.152 178.318,87.354 173.282,86.844 168.009 C 86.557 165.048,86.257 163.684,85.819 163.365 C 84.982 162.753,84.903 154.600,85.731 154.282 C 86.086 154.145,86.433 152.514,86.782 149.339 C 87.068 146.733,87.549 144.114,87.851 143.520 C 88.153 142.926,88.400 141.995,88.400 141.452 C 88.400 140.909,88.648 139.955,88.951 139.332 C 89.254 138.710,89.766 137.570,90.089 136.800 C 91.190 134.174,94.947 126.602,95.574 125.746 C 95.919 125.277,96.470 124.494,96.800 124.007 C 99.145 120.545,103.235 115.486,104.600 114.359 C 105.913 113.275,109.487 110.165,109.956 109.698 C 110.262 109.394,110.982 108.849,111.556 108.487 C 112.130 108.125,113.326 107.248,114.213 106.538 C 115.100 105.828,116.270 105.053,116.813 104.817 C 117.356 104.581,118.340 104.030,119.000 103.593 C 119.660 103.156,120.740 102.526,121.400 102.193 C 122.060 101.860,122.870 101.441,123.200 101.262 C 125.912 99.790,127.276 99.200,127.970 99.200 C 128.416 99.200,129.370 98.841,130.090 98.401 C 130.811 97.962,131.901 97.602,132.514 97.601 C 133.127 97.601,134.027 97.351,134.514 97.047 C 135.001 96.743,136.410 96.385,137.644 96.250 C 138.878 96.116,140.537 95.735,141.331 95.403 C 142.125 95.071,143.815 94.794,145.087 94.786 C 146.359 94.778,149.650 94.507,152.400 94.183 C 155.150 93.859,160.881 93.420,165.135 93.207 C 169.389 92.994,176.383 92.647,180.676 92.436 C 184.969 92.225,188.597 91.936,188.738 91.795 C 188.959 91.575,197.044 91.682,216.600 92.165 M236.400 159.434 C 236.400 160.204,235.293 164.937,234.724 166.600 C 232.100 174.268,232.227 179.192,235.212 185.518 C 235.865 186.903,236.400 188.195,236.400 188.389 C 236.400 188.584,236.627 188.981,236.905 189.271 C 237.183 189.562,237.712 190.272,238.081 190.850 C 239.557 193.158,243.774 197.663,246.313 199.643 C 247.791 200.796,249.144 201.978,249.320 202.269 C 249.496 202.561,249.813 202.800,250.024 202.800 C 250.235 202.800,251.296 203.424,252.381 204.187 C 253.466 204.949,254.801 205.685,255.348 205.823 C 255.895 205.960,256.439 206.326,256.559 206.636 C 256.678 206.946,257.058 207.200,257.404 207.200 C 257.749 207.200,258.520 207.522,259.116 207.916 C 260.844 209.058,261.671 209.523,263.800 210.552 C 267.006 212.101,269.663 213.200,270.202 213.200 C 270.477 213.200,270.926 213.470,271.200 213.800 C 271.474 214.130,272.264 214.400,272.955 214.400 C 273.646 214.400,274.884 214.760,275.704 215.200 C 276.525 215.640,277.448 216.000,277.756 216.000 C 278.708 216.000,278.800 216.970,278.810 227.133 C 278.815 232.936,278.998 237.659,279.253 238.600 C 279.491 239.480,279.922 246.140,280.211 253.400 C 280.500 260.660,280.917 267.526,281.138 268.658 C 281.924 272.692,281.901 300.777,281.110 302.525 C 279.710 305.620,276.430 308.241,273.587 308.538 C 270.339 308.878,127.260 308.803,124.508 308.460 C 121.577 308.096,117.200 303.644,117.200 301.029 C 117.200 300.517,116.930 299.451,116.600 298.662 C 115.824 296.806,115.820 290.996,116.592 287.800 C 117.006 286.085,117.183 282.719,117.210 276.000 C 117.232 270.830,117.428 265.250,117.646 263.600 C 117.864 261.950,118.213 255.470,118.421 249.200 C 118.630 242.930,118.998 237.260,119.239 236.600 C 119.483 235.931,119.774 231.184,119.895 225.869 L 120.114 216.337 121.157 215.966 C 121.731 215.762,122.678 215.326,123.262 214.997 C 123.846 214.669,124.949 214.400,125.713 214.400 C 126.477 214.400,127.326 214.130,127.600 213.800 C 127.874 213.470,128.301 213.194,128.549 213.186 C 128.797 213.179,129.720 212.825,130.600 212.400 C 131.480 211.975,132.493 211.621,132.851 211.614 C 133.209 211.606,133.711 211.348,133.967 211.039 C 134.223 210.731,134.919 210.356,135.514 210.207 C 136.109 210.058,136.815 209.754,137.083 209.531 C 137.621 209.085,141.866 206.763,143.900 205.803 C 144.615 205.465,145.200 205.051,145.200 204.882 C 145.200 204.714,145.695 204.362,146.300 204.102 C 147.569 203.556,148.803 202.786,149.391 202.173 C 149.616 201.939,150.790 200.969,152.000 200.019 C 156.791 196.257,162.104 189.435,163.853 184.800 C 165.865 179.464,166.332 174.679,165.219 170.800 C 163.774 165.768,163.402 164.807,161.960 162.379 C 161.102 160.935,160.400 159.539,160.400 159.277 C 160.400 158.911,169.256 158.800,198.400 158.800 C 232.826 158.800,236.400 158.860,236.400 159.434 M158.706 221.967 C 156.902 223.580,156.706 228.743,158.400 230.031 C 158.950 230.449,159.685 231.063,160.034 231.396 C 160.557 231.895,162.109 232.000,168.965 232.000 L 177.263 232.000 178.776 230.425 C 181.258 227.842,181.345 224.788,179.009 222.237 L 177.692 220.800 168.852 220.800 L 160.013 220.800 158.706 221.967 M190.198 221.106 C 187.103 223.367,186.612 227.885,189.184 230.431 L 190.769 232.000 199.011 232.000 C 207.230 232.000,207.257 231.997,208.591 230.980 C 211.636 228.657,212.002 224.338,209.350 222.010 L 207.972 220.800 199.286 220.806 C 194.509 220.809,190.419 220.944,190.198 221.106 M220.800 221.069 C 217.565 222.016,217.011 227.619,219.891 230.264 L 221.783 232.000 230.002 232.000 L 238.222 232.000 239.513 230.821 C 242.294 228.281,242.266 223.352,239.459 221.386 C 238.656 220.824,222.569 220.550,220.800 221.069 M163.200 239.197 C 162.650 239.380,161.748 239.628,161.196 239.748 C 157.441 240.566,155.704 246.313,158.325 249.247 C 160.708 251.913,170.604 253.038,175.985 251.253 C 182.408 249.122,182.265 241.465,175.767 239.520 C 173.231 238.760,165.133 238.552,163.200 239.197 M192.484 239.539 C 187.325 241.150,185.740 246.095,189.275 249.551 C 192.914 253.109,206.049 252.968,209.456 249.335 C 215.697 242.679,204.018 235.938,192.484 239.539 M223.110 239.480 C 215.864 241.382,216.196 249.689,223.584 251.369 C 235.119 253.993,243.801 249.841,241.183 242.954 C 239.794 239.302,230.556 237.526,223.110 239.480 M158.944 260.174 C 156.715 262.157,156.584 266.934,158.706 268.832 L 160.013 270.000 168.934 270.000 L 177.856 270.000 179.028 268.539 C 181.342 265.655,181.257 262.907,178.777 260.376 L 177.232 258.800 168.860 258.800 L 160.488 258.800 158.944 260.174 M189.027 260.541 C 186.657 263.433,187.177 267.513,190.194 269.694 C 190.417 269.856,194.570 269.991,199.422 269.994 L 208.243 270.000 209.597 268.604 C 211.715 266.418,211.623 262.676,209.394 260.394 L 207.838 258.800 199.146 258.800 L 190.454 258.800 189.027 260.541 M219.651 260.591 C 217.322 263.118,217.248 265.965,219.447 268.399 L 220.893 270.000 229.830 270.000 L 238.768 270.000 239.815 268.900 C 241.729 266.890,242.145 264.269,240.949 261.750 C 239.587 258.879,239.289 258.800,229.797 258.800 L 221.302 258.800 219.651 260.591 " stroke="none" fill="#000000" fill-rule="evenodd"></path></g></svg>