<svg id="svg" version="1.1" xmlns="http://www.w3.org/2000/svg" xmlns:xlink="http://www.w3.org/1999/xlink" width="400" height="400" viewBox="0, 0, 400,400"><g id="svgg"><path id="path0" d="M187.600 52.257 C 100.855 60.155,39.730 138.759,53.828 224.283 C 67.125 304.955,143.409 359.503,224.283 346.172 C 304.955 332.875,359.503 256.591,346.172 175.717 C 335.542 111.228,284.972 62.353,219.178 52.979 C 214.766 52.351,192.232 51.835,187.600 52.257 M197.000 184.345 C 217.477 188.134,228.236 200.091,228.181 219.000 C 228.110 243.445,211.691 256.920,181.900 256.981 L 172.401 257.000 172.400 277.300 L 172.400 297.600 159.600 297.600 L 146.800 297.600 146.800 241.643 C 146.800 194.060,146.884 185.653,147.360 185.471 C 148.286 185.115,158.245 183.995,163.800 183.621 C 173.103 182.994,191.918 183.405,197.000 184.345 M176.000 202.997 C 175.670 203.079,174.725 203.257,173.900 203.391 L 172.400 203.636 172.400 220.231 C 172.400 235.661,172.449 236.845,173.100 237.106 C 176.520 238.481,189.131 237.064,193.568 234.807 C 204.884 229.051,206.206 211.877,195.801 205.780 C 191.855 203.467,180.509 201.873,176.000 202.997 M288.104 214.789 C 292.782 215.782,298.802 217.894,298.794 218.538 C 298.787 219.146,294.488 235.645,294.284 235.849 C 294.197 235.936,292.885 235.444,291.368 234.756 C 281.373 230.224,269.860 230.443,267.394 235.212 C 264.836 240.159,267.727 242.847,280.722 247.608 C 295.334 252.960,301.742 259.979,302.309 271.251 C 303.209 289.172,288.481 299.928,264.200 299.081 C 254.446 298.740,239.923 295.282,240.015 293.322 C 240.050 292.584,244.302 275.564,244.502 275.365 C 244.621 275.245,245.772 275.678,247.060 276.326 C 261.418 283.554,277.351 282.538,277.379 274.393 C 277.393 270.395,275.210 268.613,266.600 265.597 C 246.880 258.690,239.146 248.489,242.799 234.204 C 246.820 218.484,266.266 210.150,288.104 214.789 " stroke="none" fill="#000000" fill-rule="evenodd"></path></g></svg>