<svg id="svg" version="1.1" xmlns="http://www.w3.org/2000/svg" xmlns:xlink="http://www.w3.org/1999/xlink" width="400" height="400" viewBox="0, 0, 400,400"><g id="svgg"><path id="path0" d="M187.600 52.257 C 100.855 60.155,39.730 138.759,53.828 224.283 C 67.125 304.955,143.409 359.503,224.283 346.172 C 304.955 332.875,359.503 256.591,346.172 175.717 C 335.542 111.228,284.972 62.353,219.178 52.979 C 214.766 52.351,192.232 51.835,187.600 52.257 M203.135 81.951 C 203.529 82.201,203.614 82.962,203.458 84.845 C 203.341 86.250,203.235 87.633,203.223 87.918 C 203.206 88.303,202.458 88.405,200.300 88.318 L 197.400 88.200 197.284 84.900 L 197.168 81.600 199.884 81.606 C 201.378 81.609,202.841 81.765,203.135 81.951 M189.767 83.300 C 189.868 83.795,190.035 85.208,190.140 86.439 L 190.330 88.678 187.386 89.052 C 184.028 89.477,184.253 89.697,183.761 85.511 L 183.496 83.256 184.848 83.036 C 189.537 82.273,189.559 82.274,189.767 83.300 M214.900 82.996 C 217.499 83.292,217.439 83.161,216.755 87.089 C 216.326 89.551,216.272 89.637,215.255 89.448 C 214.675 89.340,213.335 89.137,212.279 88.998 L 210.357 88.745 210.630 85.872 C 210.947 82.540,211.039 82.305,211.934 82.551 C 212.300 82.652,213.635 82.852,214.900 82.996 M176.794 87.855 L 177.463 90.709 174.530 91.492 L 171.597 92.275 170.798 89.594 C 169.735 86.023,169.681 86.171,172.300 85.476 C 175.907 84.518,176.027 84.581,176.794 87.855 M228.721 85.834 C 230.393 86.307,230.801 86.580,230.644 87.117 C 230.535 87.493,230.152 88.835,229.794 90.100 C 229.436 91.365,229.021 92.394,228.872 92.386 C 228.004 92.341,223.549 90.913,223.516 90.669 C 223.494 90.508,223.715 89.110,224.007 87.562 C 224.606 84.388,224.172 84.547,228.721 85.834 M163.840 91.400 C 164.345 92.720,164.768 94.006,164.779 94.257 C 164.797 94.658,159.640 97.024,159.416 96.718 C 159.369 96.653,158.766 95.375,158.075 93.877 L 156.820 91.154 159.310 90.002 C 162.551 88.502,162.755 88.565,163.840 91.400 M243.600 91.668 C 243.600 91.860,243.076 93.174,242.435 94.587 L 241.270 97.156 238.635 96.111 C 235.502 94.868,235.534 95.046,237.543 89.916 L 237.968 88.832 240.784 90.075 C 242.333 90.759,243.600 91.476,243.600 91.668 M151.698 97.157 L 153.197 99.908 150.770 101.354 C 147.867 103.083,147.963 103.074,147.161 101.697 C 146.809 101.094,146.120 99.930,145.629 99.112 L 144.735 97.624 147.230 96.012 C 150.329 94.009,149.928 93.907,151.698 97.157 M253.180 96.252 C 254.520 97.050,255.690 97.822,255.779 97.966 C 255.950 98.242,252.923 103.200,252.584 103.200 C 252.218 103.200,248.001 100.726,247.793 100.389 C 247.609 100.090,250.274 94.800,250.608 94.800 C 250.682 94.800,251.839 95.453,253.180 96.252 M140.385 104.424 C 141.320 105.757,142.021 106.891,141.942 106.943 C 141.864 106.996,140.847 107.819,139.682 108.772 L 137.563 110.505 136.599 109.599 C 135.451 108.521,133.414 105.651,133.641 105.431 C 137.562 101.632,138.344 101.515,140.385 104.424 M264.675 104.058 C 267.501 106.238,267.464 106.002,265.379 108.563 C 263.203 111.234,263.414 111.206,260.852 109.166 C 258.391 107.206,258.416 107.467,260.422 104.665 C 262.357 101.963,262.022 102.011,264.675 104.058 M204.708 109.803 C 215.037 112.238,220.155 119.776,220.185 132.600 C 220.207 141.951,218.358 146.827,213.055 151.406 L 210.802 153.351 211.667 154.272 C 213.002 155.692,215.648 156.800,217.707 156.800 C 223.709 156.800,229.300 159.920,231.683 164.600 C 232.132 165.480,232.558 166.267,232.631 166.349 C 232.817 166.557,236.303 164.481,236.615 163.975 C 236.756 163.747,235.686 162.473,234.235 161.144 C 225.703 153.325,224.811 135.223,232.514 126.211 C 241.737 115.421,259.683 118.039,265.911 131.082 L 267.400 134.200 267.531 141.926 C 267.683 150.909,267.199 153.313,264.391 157.518 C 262.932 159.702,262.051 160.626,259.240 162.911 L 258.365 163.622 259.482 164.552 C 261.354 166.109,262.327 166.451,266.357 166.976 C 274.745 168.066,280.037 172.688,281.229 179.962 C 281.762 183.216,281.704 200.935,281.156 202.137 C 280.302 204.011,280.504 204.000,247.403 204.000 L 216.045 204.000 214.922 203.036 C 213.801 202.072,213.800 202.066,213.670 196.236 L 213.541 190.400 200.000 190.400 L 186.459 190.400 186.330 196.236 C 186.200 202.066,186.199 202.072,185.078 203.036 L 183.955 204.000 152.597 204.000 C 119.496 204.000,119.698 204.011,118.844 202.137 C 118.150 200.613,118.269 182.484,118.996 179.052 C 120.410 172.377,125.961 167.737,133.400 167.011 C 137.050 166.655,138.431 166.206,140.202 164.799 L 141.658 163.642 140.772 162.921 C 133.712 157.177,132.272 153.537,132.469 141.926 L 132.600 134.200 134.089 131.082 C 140.317 118.039,158.263 115.421,167.486 126.211 C 175.189 135.223,174.297 153.325,165.765 161.144 C 164.314 162.473,163.244 163.747,163.385 163.975 C 163.697 164.481,167.183 166.557,167.369 166.349 C 167.442 166.267,167.868 165.480,168.317 164.600 C 170.700 159.920,176.291 156.800,182.293 156.800 C 184.352 156.800,186.998 155.692,188.333 154.272 L 189.198 153.351 186.945 151.406 C 177.024 142.841,177.024 121.765,186.945 113.923 C 192.195 109.773,198.438 108.325,204.708 109.803 M130.006 113.006 L 132.184 115.212 130.192 117.193 C 127.732 119.640,127.873 119.643,125.312 117.113 L 123.199 115.026 125.286 112.913 C 127.815 110.352,127.376 110.343,130.006 113.006 M275.197 113.397 L 277.367 115.595 275.852 117.147 C 273.138 119.927,272.703 119.995,270.611 117.967 C 268.395 115.819,268.392 116.019,270.676 113.373 C 272.951 110.739,272.570 110.737,275.197 113.397 M195.730 116.152 C 188.710 118.445,186.267 122.995,186.468 133.399 L 186.600 140.200 187.963 142.714 C 190.565 147.512,194.452 149.800,200.000 149.800 C 205.548 149.800,209.435 147.512,212.037 142.714 L 213.400 140.200 213.532 133.399 C 213.687 125.379,213.189 123.410,210.160 120.039 C 206.770 116.269,200.523 114.587,195.730 116.152 M120.544 122.475 C 121.675 123.396,122.754 124.278,122.942 124.436 C 123.130 124.594,122.424 125.798,121.373 127.111 L 119.463 129.498 117.032 127.700 C 114.260 125.651,114.278 125.809,116.512 122.948 C 118.513 120.385,118.047 120.440,120.544 122.475 M284.194 123.900 C 286.478 126.810,286.776 126.087,281.969 129.301 L 280.920 130.003 279.077 127.657 L 277.234 125.310 279.517 123.457 C 282.334 121.171,282.029 121.142,284.194 123.900 M148.120 126.321 C 144.125 127.748,141.300 130.350,139.492 134.268 C 138.005 137.488,138.150 148.884,139.718 152.076 C 145.884 164.634,163.888 161.663,166.072 147.728 C 168.352 133.176,159.265 122.340,148.120 126.321 M243.730 126.152 C 236.058 128.661,232.253 137.037,233.928 147.728 C 236.109 161.648,254.122 164.620,260.282 152.076 C 261.964 148.652,261.994 137.468,260.332 133.921 C 257.432 127.734,249.805 124.165,243.730 126.152 M112.862 133.609 C 114.230 134.493,115.413 135.280,115.489 135.356 C 115.668 135.535,112.777 140.400,112.492 140.400 C 112.068 140.400,107.200 137.555,107.200 137.308 C 107.200 137.050,110.129 132.020,110.287 132.007 C 110.334 132.003,111.493 132.724,112.862 133.609 M291.780 135.338 C 293.563 138.527,293.678 138.149,290.432 139.784 L 287.663 141.178 286.687 139.489 C 284.553 135.800,284.505 136.209,287.293 134.422 C 290.434 132.411,290.106 132.344,291.780 135.338 M107.064 145.719 L 109.527 147.000 108.499 149.600 C 107.934 151.030,107.436 152.249,107.392 152.310 C 107.349 152.370,105.955 151.920,104.294 151.309 L 101.275 150.199 102.493 147.299 C 103.887 143.982,103.787 144.016,107.064 145.719 M297.801 148.002 C 298.421 149.543,298.855 150.857,298.764 150.922 C 297.682 151.698,293.150 153.045,292.907 152.664 C 292.615 152.206,290.805 147.917,290.802 147.675 C 290.799 147.478,295.752 145.239,296.236 145.218 C 296.476 145.208,297.180 146.461,297.801 148.002 M195.200 155.954 C 195.200 156.138,194.390 157.159,193.400 158.222 C 191.133 160.656,191.098 160.503,194.281 162.070 C 198.127 163.963,201.873 163.963,205.719 162.070 C 208.817 160.544,208.829 160.515,207.079 158.740 C 206.352 158.003,205.497 157.019,205.179 156.553 C 204.651 155.782,204.388 155.735,202.227 156.029 C 200.922 156.206,199.347 156.272,198.727 156.175 C 198.107 156.079,197.060 155.915,196.400 155.810 C 195.740 155.706,195.200 155.771,195.200 155.954 M104.748 159.026 C 105.382 159.610,103.423 164.842,102.642 164.646 C 102.171 164.528,100.844 164.229,99.693 163.983 C 97.320 163.474,97.321 163.476,98.238 159.824 L 98.876 157.283 101.738 158.087 C 103.312 158.529,104.666 158.951,104.748 159.026 M302.072 161.027 C 302.462 162.552,302.786 163.903,302.791 164.030 C 302.800 164.248,296.702 165.697,296.619 165.496 C 296.402 164.976,295.215 159.853,295.295 159.779 C 295.561 159.530,300.643 158.089,300.981 158.167 C 301.191 158.215,301.682 159.502,302.072 161.027 M181.166 163.183 C 174.465 163.870,172.237 167.719,172.474 178.200 L 172.600 183.800 200.000 183.800 L 227.400 183.800 227.526 178.200 C 227.768 167.494,225.589 163.884,218.464 163.187 L 215.408 162.887 213.167 164.828 C 205.389 171.566,194.590 171.549,186.782 164.785 C 185.522 163.693,184.336 162.826,184.146 162.857 C 183.956 162.888,182.615 163.035,181.166 163.183 M145.863 168.223 C 143.635 170.758,143.696 171.026,146.797 172.361 C 150.902 174.127,156.933 173.614,159.978 171.241 L 160.956 170.479 159.078 168.573 C 158.045 167.526,157.200 166.504,157.200 166.302 C 157.200 166.099,156.634 166.061,155.928 166.216 C 154.466 166.537,149.498 166.547,148.484 166.230 C 148.010 166.083,147.205 166.695,145.863 168.223 M242.800 166.302 C 242.800 166.504,241.955 167.526,240.922 168.573 L 239.044 170.479 240.022 171.241 C 243.773 174.165,253.108 174.003,255.625 170.970 C 256.250 170.217,252.522 165.917,251.516 166.230 C 250.502 166.547,245.534 166.537,244.072 166.216 C 243.366 166.061,242.800 166.099,242.800 166.302 M99.753 171.429 L 102.105 171.705 101.843 174.529 C 101.520 177.999,101.833 177.753,98.177 177.411 L 95.117 177.124 95.388 174.862 C 95.811 171.330,96.013 170.752,96.746 170.964 C 97.106 171.068,98.459 171.277,99.753 171.429 M304.635 174.800 L 305.014 178.000 303.807 178.003 C 303.143 178.005,301.680 178.117,300.557 178.252 L 298.513 178.498 298.228 175.610 C 298.072 174.022,298.020 172.647,298.112 172.554 C 298.266 172.400,302.141 171.764,303.628 171.649 C 304.122 171.610,304.337 172.283,304.635 174.800 M133.200 173.590 C 126.398 174.470,124.806 177.488,124.802 189.500 L 124.800 197.600 152.200 197.600 L 179.600 197.600 179.600 194.000 L 179.600 190.400 174.219 190.400 C 166.058 190.400,166.446 190.824,166.380 181.837 C 166.325 174.168,166.454 174.475,164.018 176.225 C 156.253 181.804,145.982 181.305,139.267 175.024 C 137.209 173.099,137.132 173.081,133.200 173.590 M261.000 174.806 C 254.787 181.199,243.775 181.824,235.982 176.225 C 233.546 174.475,233.675 174.168,233.620 181.837 C 233.554 190.824,233.942 190.400,225.781 190.400 L 220.400 190.400 220.400 194.000 L 220.400 197.600 247.800 197.600 L 275.200 197.600 275.198 189.500 C 275.194 176.899,273.506 174.180,265.200 173.402 L 262.600 173.159 261.000 174.806 M101.200 187.816 L 101.200 190.832 97.900 190.716 L 94.600 190.600 94.482 187.700 L 94.365 184.800 97.782 184.800 L 101.200 184.800 101.200 187.816 M305.600 187.350 C 305.600 188.313,305.488 189.663,305.350 190.350 L 305.100 191.600 301.950 191.600 L 298.800 191.600 298.800 188.600 L 298.800 185.600 302.200 185.600 L 305.600 185.600 305.600 187.350 M101.780 199.300 C 101.898 200.015,102.041 201.311,102.098 202.180 L 102.200 203.761 100.400 204.066 C 99.410 204.233,98.033 204.472,97.340 204.596 L 96.081 204.821 95.812 202.311 C 95.664 200.930,95.457 199.496,95.352 199.125 C 95.153 198.419,95.992 198.223,99.882 198.067 C 101.486 198.003,101.574 198.060,101.780 199.300 M304.239 199.179 C 304.547 199.194,304.576 199.891,304.338 201.500 C 303.701 205.787,303.893 205.541,301.506 205.137 C 297.214 204.412,297.513 204.659,297.806 202.086 C 298.232 198.336,298.045 198.519,301.102 198.859 C 302.586 199.024,303.998 199.168,304.239 199.179 M145.977 211.455 C 147.661 211.792,148.574 213.264,148.657 215.775 L 148.724 217.800 168.062 218.000 C 181.785 218.142,187.632 218.336,188.200 218.668 C 188.640 218.926,194.743 224.911,201.762 231.968 C 208.781 239.026,214.671 244.800,214.851 244.800 C 215.508 244.800,255.505 233.920,274.600 228.547 C 289.532 224.345,296.089 224.846,301.078 230.569 C 305.674 235.842,307.125 246.270,303.475 247.794 C 302.162 248.342,279.616 256.152,253.200 265.210 C 244.950 268.038,232.440 272.353,225.400 274.799 C 204.342 282.113,193.952 285.600,193.219 285.600 C 192.838 285.600,188.133 284.157,182.763 282.393 L 173.000 279.186 160.783 279.214 L 148.565 279.242 148.723 280.592 C 149.277 285.336,147.814 286.000,136.813 286.000 L 128.400 286.000 128.400 287.540 C 128.400 292.704,128.088 292.800,111.373 292.800 C 96.067 292.800,95.547 292.714,94.809 290.058 C 94.211 287.905,94.253 215.340,94.854 213.618 C 95.694 211.206,95.400 211.233,121.250 211.216 C 134.148 211.207,145.275 211.315,145.977 211.455 M301.890 212.956 C 302.225 213.291,300.694 218.800,300.266 218.800 C 300.057 218.800,298.666 218.436,297.174 217.992 L 294.461 217.184 295.230 214.493 C 295.654 213.013,296.000 211.696,296.000 211.567 C 296.000 211.305,301.547 212.614,301.890 212.956 M101.200 251.793 L 101.200 286.000 111.602 286.000 L 122.004 286.000 121.902 251.900 L 121.800 217.800 111.500 217.693 L 101.200 217.586 101.200 251.793 M128.400 248.400 L 128.400 279.200 135.400 279.200 L 142.400 279.200 142.400 248.400 L 142.400 217.600 135.400 217.600 L 128.400 217.600 128.400 248.400 M148.800 248.400 L 148.800 272.400 160.750 272.400 C 170.758 272.400,172.984 272.505,174.450 273.046 C 175.412 273.401,180.054 274.913,184.765 276.406 L 193.330 279.121 202.565 275.944 C 207.644 274.197,215.940 271.355,221.000 269.628 C 226.060 267.902,235.150 264.787,241.200 262.706 C 247.250 260.625,260.660 256.024,271.000 252.481 C 281.340 248.939,291.780 245.332,294.200 244.466 L 298.600 242.893 298.723 241.473 C 299.131 236.745,295.036 232.256,289.825 231.718 C 288.175 231.547,286.494 231.849,281.576 233.197 C 275.310 234.914,261.695 238.623,241.400 244.141 C 235.240 245.815,227.050 248.047,223.200 249.100 L 216.200 251.014 215.924 253.509 C 215.018 261.702,206.628 266.539,198.515 263.546 C 196.422 262.774,195.299 261.796,186.800 253.341 L 177.400 243.990 179.728 241.734 L 182.056 239.478 191.328 248.698 C 202.351 259.659,203.766 260.310,207.882 256.321 C 212.139 252.194,211.443 250.917,197.076 236.500 L 185.018 224.400 166.909 224.400 L 148.800 224.400 148.800 248.400 " stroke="none" fill="#000000" fill-rule="evenodd"></path></g></svg>