<?xml version="1.0" standalone="no"?>
<!DOCTYPE svg PUBLIC "-//W3C//DTD SVG 20010904//EN"
 "http://www.w3.org/TR/2001/REC-SVG-20010904/DTD/svg10.dtd">
<svg version="1.0" xmlns="http://www.w3.org/2000/svg"
 width="1000.000000pt" height="1000.000000pt" viewBox="0 0 1000.000000 1000.000000"
 preserveAspectRatio="xMidYMid meet">

<g transform="translate(0.000000,1000.000000) scale(0.100000,-0.100000)"
fill="#000000" stroke="none">
<path d="M4765 8494 c-886 -70 -1660 -430 -2270 -1055 -557 -571 -876 -1249
-977 -2074 -7 -56 -12 -217 -12 -365 0 -268 7 -362 45 -588 96 -577 346 -1135
715 -1597 113 -141 408 -436 549 -549 456 -364 985 -604 1565 -710 231 -42
341 -51 620 -51 279 0 389 9 620 51 580 106 1108 345 1565 710 147 117 459
431 569 574 411 530 643 1103 728 1795 16 130 16 600 0 730 -42 345 -117 648
-232 935 -318 794 -936 1462 -1705 1840 -357 175 -704 279 -1125 335 -110 15
-546 27 -655 19z m-910 -2242 c434 -81 668 -290 726 -647 17 -109 7 -261 -25
-360 -61 -190 -201 -349 -392 -445 l-76 -39 34 -16 c106 -54 200 -158 262
-289 45 -96 73 -183 156 -496 78 -291 111 -408 141 -487 l19 -53 -334 0 -334
0 -20 48 c-32 74 -88 265 -153 526 -66 264 -103 359 -169 430 -77 84 -191 116
-407 116 l-93 0 0 -560 0 -560 -320 0 -320 0 0 1403 0 1404 93 11 c80 10 198
22 367 36 25 2 200 2 390 1 298 -3 360 -6 455 -23z m1915 -806 c0 -464 4 -867
10 -939 18 -220 68 -360 165 -465 87 -94 200 -142 336 -142 256 0 418 135 491
411 22 84 22 88 25 1017 l4 932 324 0 325 0 0 -882 c0 -702 -3 -905 -14 -989
-64 -473 -286 -786 -659 -927 -146 -55 -249 -73 -452 -79 -398 -12 -650 67
-862 270 -167 160 -266 370 -319 677 -15 82 -17 218 -21 1013 l-4 917 325 0
326 0 0 -814z"/>
<path d="M3310 5793 c-19 -2 -54 -6 -77 -9 l-43 -5 0 -386 0 -385 203 4 c218
5 274 16 373 74 131 77 199 230 174 391 -27 174 -134 274 -328 309 -70 12
-215 16 -302 7z"/>
</g>
</svg>
