<svg id="svg" version="1.1" xmlns="http://www.w3.org/2000/svg" xmlns:xlink="http://www.w3.org/1999/xlink" width="400" height="400" viewBox="0, 0, 400,400"><g id="svgg"><path id="path0" d="M188.400 52.866 C 185.650 53.053,182.770 53.304,182.000 53.424 C 181.230 53.543,179.970 53.682,179.200 53.733 C 178.430 53.784,177.565 53.971,177.277 54.150 C 176.990 54.329,176.315 54.365,175.777 54.230 C 175.167 54.077,174.800 54.157,174.800 54.442 C 174.800 54.739,174.371 54.814,173.580 54.656 C 172.824 54.505,172.453 54.562,172.604 54.806 C 172.738 55.023,172.512 55.200,172.103 55.200 C 170.361 55.200,153.428 59.733,149.400 61.277 C 101.834 79.515,68.846 116.363,56.595 164.942 C 55.660 168.650,54.813 171.530,54.713 171.342 C 54.613 171.154,54.595 171.250,54.674 171.555 C 54.753 171.860,54.325 175.100,53.723 178.755 C 52.066 188.817,52.066 211.183,53.723 221.245 C 54.325 224.900,54.753 228.140,54.674 228.445 C 54.595 228.750,54.613 228.846,54.713 228.658 C 54.813 228.470,55.660 231.350,56.595 235.058 C 68.846 283.637,101.834 320.485,149.400 338.723 C 150.980 339.329,158.962 341.713,163.000 342.786 C 164.760 343.254,166.380 343.685,166.600 343.745 C 166.820 343.805,168.299 344.095,169.886 344.389 C 171.473 344.683,172.679 345.073,172.566 345.255 C 172.453 345.438,172.909 345.478,173.580 345.344 C 174.371 345.186,174.800 345.261,174.800 345.558 C 174.800 345.843,175.167 345.923,175.777 345.770 C 176.315 345.635,176.990 345.671,177.277 345.850 C 177.565 346.029,178.430 346.216,179.200 346.267 C 179.970 346.318,181.230 346.455,182.000 346.573 C 189.207 347.675,210.793 347.675,218.000 346.573 C 218.770 346.455,220.030 346.318,220.800 346.267 C 221.570 346.216,222.435 346.029,222.723 345.850 C 223.010 345.671,223.685 345.635,224.223 345.770 C 224.833 345.923,225.200 345.843,225.200 345.558 C 225.200 345.261,225.629 345.186,226.420 345.344 C 227.176 345.495,227.547 345.438,227.396 345.194 C 227.262 344.977,227.483 344.800,227.886 344.800 C 228.290 344.800,230.855 344.254,233.588 343.587 C 236.320 342.920,238.830 342.479,239.165 342.608 C 239.501 342.737,239.645 342.711,239.485 342.551 C 239.325 342.391,240.590 341.833,242.297 341.310 C 250.053 338.934,251.750 338.329,257.200 335.990 C 301.170 317.123,331.734 281.337,343.405 235.058 C 344.340 231.350,345.187 228.470,345.287 228.658 C 345.387 228.846,345.405 228.750,345.326 228.445 C 345.247 228.140,345.675 224.900,346.277 221.245 C 347.934 211.183,347.934 188.817,346.277 178.755 C 345.675 175.100,345.247 171.860,345.326 171.555 C 345.405 171.250,345.387 171.154,345.287 171.342 C 345.187 171.530,344.340 168.650,343.405 164.942 C 331.154 116.363,298.166 79.515,250.600 61.277 C 249.020 60.671,241.038 58.287,237.000 57.214 C 235.240 56.746,233.620 56.315,233.400 56.255 C 233.180 56.195,231.701 55.905,230.114 55.611 C 228.527 55.317,227.321 54.927,227.434 54.745 C 227.547 54.562,227.091 54.522,226.420 54.656 C 225.629 54.814,225.200 54.739,225.200 54.442 C 225.200 54.157,224.833 54.077,224.223 54.230 C 223.685 54.365,223.010 54.329,222.723 54.150 C 222.435 53.971,221.570 53.784,220.800 53.733 C 220.030 53.682,218.770 53.548,218.000 53.434 C 211.793 52.518,197.550 52.245,188.400 52.866 M252.600 89.169 C 254.580 89.403,256.526 89.595,256.924 89.597 C 257.322 89.599,257.552 89.754,257.436 89.942 C 257.319 90.130,257.646 90.204,258.160 90.105 C 260.035 89.747,269.170 92.633,274.735 95.341 C 284.299 99.996,291.662 108.689,292.231 116.000 C 292.857 124.029,292.505 133.959,291.614 133.409 C 291.450 133.307,291.391 133.624,291.484 134.112 C 291.837 135.977,287.535 146.476,284.333 151.561 C 271.945 171.239,250.385 184.814,225.800 188.416 C 224.040 188.674,222.240 188.976,221.800 189.087 C 219.711 189.614,202.997 189.901,199.600 189.467 C 190.380 188.291,182.885 184.764,178.029 179.317 C 172.380 172.983,172.593 166.672,178.275 172.022 C 182.140 175.661,188.311 178.673,193.425 179.415 C 194.511 179.573,195.551 179.789,195.734 179.896 C 196.348 180.252,208.400 180.205,208.400 179.847 C 208.400 179.653,209.120 179.591,210.000 179.709 C 210.880 179.827,211.600 179.761,211.600 179.562 C 211.600 179.363,212.185 179.197,212.900 179.194 C 213.615 179.190,215.279 178.934,216.597 178.624 C 217.915 178.314,219.068 178.135,219.160 178.227 C 219.251 178.318,219.566 178.194,219.858 177.952 C 220.151 177.709,220.662 177.615,220.995 177.743 C 221.328 177.870,221.600 177.780,221.600 177.541 C 221.600 177.293,222.030 177.189,222.600 177.298 C 223.150 177.403,223.600 177.315,223.600 177.101 C 223.600 176.884,224.054 176.827,224.634 176.973 C 225.254 177.128,225.572 177.079,225.430 176.849 C 225.300 176.638,225.780 176.340,226.497 176.186 C 227.213 176.033,227.980 175.772,228.200 175.607 C 228.420 175.441,229.574 174.988,230.765 174.599 C 264.466 163.599,287.872 128.660,271.684 113.518 C 268.703 110.729,259.584 106.800,256.092 106.800 C 255.553 106.800,255.261 106.625,255.406 106.391 C 255.572 106.122,255.100 106.071,254.029 106.242 C 253.133 106.385,252.400 106.342,252.400 106.146 C 252.400 105.704,235.275 105.735,234.281 106.179 C 233.885 106.356,232.850 106.405,231.981 106.288 C 230.988 106.155,230.491 106.224,230.645 106.473 C 230.792 106.710,230.351 106.833,229.545 106.779 C 228.805 106.730,227.930 106.792,227.600 106.918 C 226.116 107.483,219.183 108.837,218.845 108.628 C 218.638 108.500,218.408 108.536,218.334 108.709 C 218.140 109.164,208.014 112.056,207.572 111.783 C 207.368 111.656,207.200 111.724,207.200 111.933 C 207.200 112.142,206.705 112.453,206.100 112.624 C 205.495 112.795,204.910 112.960,204.800 112.992 C 204.690 113.023,203.903 113.353,203.051 113.724 C 202.199 114.096,201.425 114.400,201.331 114.400 C 200.690 114.400,192.120 118.317,185.468 121.651 C 139.564 144.655,120.140 170.119,130.889 193.200 C 133.583 198.985,139.473 205.447,148.831 212.886 C 151.784 215.234,157.350 219.662,161.200 222.727 C 165.050 225.793,169.888 229.945,171.952 231.956 C 174.387 234.328,175.861 235.491,176.152 235.268 C 176.891 234.701,180.329 233.887,180.960 234.129 C 181.284 234.254,181.605 234.203,181.674 234.016 C 182.553 231.650,208.694 232.281,215.800 234.840 C 240.530 243.745,248.558 271.863,229.302 282.129 C 224.564 284.655,221.490 283.091,225.679 280.285 C 235.847 273.477,236.738 262.455,227.863 253.263 C 224.631 249.916,218.728 246.271,215.100 245.383 C 214.495 245.234,214.000 244.942,214.000 244.733 C 214.000 244.524,213.824 244.461,213.609 244.594 C 213.247 244.818,210.582 244.285,209.200 243.712 C 208.870 243.575,208.240 243.422,207.800 243.373 C 197.895 242.262,194.015 242.146,188.800 242.805 C 184.188 243.387,184.055 243.412,183.741 243.725 C 183.590 243.876,183.147 244.000,182.757 244.000 C 181.671 244.000,181.515 244.622,182.193 246.245 C 183.273 248.831,184.057 252.923,183.832 254.800 C 183.681 256.058,183.725 256.359,183.980 255.800 C 184.217 255.277,184.354 257.262,184.372 261.524 C 184.387 265.112,184.265 267.966,184.100 267.867 C 183.935 267.768,183.767 268.825,183.728 270.216 C 183.450 279.918,174.962 294.003,164.789 301.645 C 159.439 305.665,148.953 310.447,146.753 309.872 C 146.339 309.763,146.000 309.821,146.000 310.000 C 146.000 311.062,133.286 311.184,128.703 310.166 C 114.056 306.910,111.209 285.357,123.411 270.106 C 129.422 262.594,141.579 253.492,156.939 245.005 C 164.795 240.665,164.542 241.053,161.145 238.560 C 160.071 237.771,159.315 236.938,159.460 236.703 C 159.610 236.461,159.536 236.393,159.289 236.545 C 159.051 236.692,157.268 235.671,155.328 234.276 C 153.387 232.880,149.460 230.142,146.600 228.190 C 112.909 205.201,101.715 188.009,108.005 168.917 C 115.692 145.588,141.392 122.290,179.000 104.558 C 191.616 98.609,208.988 92.363,215.600 91.399 C 215.930 91.350,216.515 91.177,216.900 91.013 C 217.285 90.849,217.870 90.818,218.200 90.945 C 218.530 91.071,218.800 90.980,218.800 90.742 C 218.800 90.489,219.297 90.382,220.000 90.485 C 220.660 90.582,221.200 90.493,221.200 90.287 C 221.200 90.081,221.823 89.985,222.585 90.074 C 223.346 90.163,223.870 90.138,223.750 90.018 C 222.649 88.925,244.957 88.269,252.600 89.169 M170.441 249.036 C 170.385 249.637,168.446 250.471,167.870 250.141 C 167.612 249.993,167.531 250.017,167.692 250.195 C 167.853 250.372,165.603 251.932,162.692 253.662 C 144.510 264.464,134.318 276.395,133.347 288.013 C 133.010 292.042,135.057 296.000,137.478 296.000 C 137.791 296.000,137.963 296.136,137.861 296.301 C 137.758 296.467,138.902 296.602,140.403 296.601 C 141.904 296.601,143.050 296.518,142.950 296.418 C 142.851 296.318,143.813 296.023,145.089 295.762 C 159.713 292.779,172.555 275.192,172.078 258.800 C 171.997 256.010,170.579 247.555,170.441 249.036 " stroke="none" fill="#000000" fill-rule="evenodd"></path></g></svg>