<svg id="svg" version="1.1" xmlns="http://www.w3.org/2000/svg" xmlns:xlink="http://www.w3.org/1999/xlink" width="400" height="400" viewBox="0, 0, 400,400"><g id="svgg"><path id="path0" d="M187.600 52.257 C 100.855 60.155,39.730 138.759,53.828 224.283 C 67.125 304.955,143.409 359.503,224.283 346.172 C 304.955 332.875,359.503 256.591,346.172 175.717 C 335.542 111.228,284.972 62.353,219.178 52.979 C 214.766 52.351,192.232 51.835,187.600 52.257 M95.149 120.555 C 123.748 136.954,140.272 145.671,144.337 146.505 C 147.998 147.257,164.951 147.088,173.901 146.210 C 184.006 145.220,189.529 146.178,203.594 151.364 L 208.200 153.062 212.515 151.765 C 225.364 147.904,236.110 147.893,246.600 151.731 C 256.435 155.329,268.851 154.179,278.877 148.740 C 280.925 147.630,283.950 145.993,285.600 145.103 C 288.440 143.571,297.392 138.678,311.868 130.745 C 319.515 126.554,321.495 126.290,323.030 129.258 C 324.391 131.890,323.319 134.124,319.861 135.862 C 318.727 136.432,314.110 138.923,309.600 141.399 C 283.364 155.802,278.929 158.113,275.023 159.419 C 264.496 162.941,253.816 162.880,243.266 159.240 C 230.730 154.914,215.397 157.022,206.725 164.264 C 189.210 178.892,186.351 180.073,173.400 178.029 C 162.836 176.362,161.917 176.675,162.797 181.640 C 163.802 187.313,167.987 191.174,176.189 193.996 C 181.520 195.830,191.071 194.092,199.797 189.700 C 205.082 187.040,204.903 186.947,212.741 196.400 C 228.004 214.808,233.505 219.364,251.000 228.092 C 254.785 229.980,263.677 232.890,276.333 236.381 L 283.286 238.300 288.143 236.107 C 290.814 234.901,295.430 232.877,298.400 231.608 C 301.370 230.339,310.730 225.826,319.200 221.577 C 336.394 212.953,336.792 212.822,338.841 215.115 C 340.145 216.575,340.336 218.189,339.417 219.968 C 338.620 221.509,308.339 236.573,293.402 242.858 C 289.788 244.379,289.806 244.352,290.976 246.445 C 296.531 256.384,290.948 270.729,280.797 272.595 L 279.395 272.852 278.464 276.782 C 275.920 287.518,266.452 292.281,256.384 287.890 C 252.136 286.037,252.400 285.995,252.400 288.527 C 252.400 295.803,247.304 302.018,240.080 303.550 C 235.302 304.564,233.324 304.009,221.805 298.420 C 216.795 295.989,212.553 294.000,212.379 294.000 C 212.205 294.000,210.838 296.115,209.340 298.700 C 207.843 301.285,205.757 304.265,204.705 305.323 C 197.014 313.054,182.996 310.684,178.432 300.880 C 177.316 298.483,177.295 298.476,175.066 299.783 C 162.709 307.024,146.449 296.822,146.405 281.800 L 146.398 279.400 143.299 279.375 C 132.754 279.288,124.965 269.325,127.291 258.896 C 127.619 257.423,129.118 258.702,115.000 248.403 C 111.260 245.675,106.150 241.931,103.645 240.083 C 99.269 236.855,89.476 231.662,71.859 223.228 C 66.291 220.563,64.962 218.170,67.424 215.244 C 69.527 212.746,69.407 212.707,87.160 221.560 L 103.252 229.585 117.313 239.843 C 127.870 247.544,131.455 249.964,131.695 249.551 C 131.871 249.248,134.667 244.427,137.908 238.838 C 144.504 227.461,146.119 225.451,150.190 223.546 C 158.383 219.712,169.019 223.514,172.279 231.443 C 173.137 233.530,172.852 233.489,176.140 231.998 C 189.518 225.932,204.000 235.292,204.000 250.006 L 204.000 252.302 207.507 252.470 C 215.133 252.834,221.067 257.643,222.987 265.014 C 224.469 270.706,223.502 274.427,218.222 283.346 C 217.197 285.077,216.418 286.551,216.489 286.623 C 217.758 287.891,235.402 295.600,237.034 295.598 C 241.926 295.593,245.383 290.741,244.005 285.817 C 243.325 283.389,241.912 282.104,237.241 279.661 C 232.723 277.298,232.000 276.541,232.000 274.169 C 232.000 270.109,235.092 269.374,241.000 272.032 C 264.452 282.581,265.764 282.892,268.973 278.664 C 270.036 277.263,271.436 272.469,270.925 271.977 C 270.528 271.596,259.050 265.409,249.814 260.598 C 241.034 256.026,239.512 254.187,241.801 250.920 C 243.766 248.114,244.276 248.297,264.885 259.170 C 275.595 264.821,276.990 265.294,279.787 264.226 C 284.967 262.248,286.958 253.903,283.263 249.660 C 282.150 248.382,269.480 243.358,257.299 239.366 C 248.887 236.608,240.759 232.471,230.800 225.878 C 222.752 220.550,219.117 216.992,208.042 203.600 C 205.768 200.850,203.676 198.354,203.394 198.054 C 202.962 197.596,202.212 197.769,198.720 199.135 C 182.722 205.390,172.873 204.222,160.731 194.629 C 154.747 189.902,152.431 177.028,156.660 172.001 C 159.383 168.766,165.190 168.102,174.786 169.927 C 183.720 171.627,184.780 171.233,196.754 161.764 C 200.549 158.764,200.563 158.842,196.000 157.411 C 185.907 154.245,181.882 153.642,175.719 154.369 C 165.200 155.611,146.875 155.627,141.399 154.400 C 137.803 153.594,125.937 147.322,91.104 127.815 C 83.658 123.645,82.205 121.333,85.169 118.369 C 87.130 116.408,88.404 116.688,95.149 120.555 M154.191 230.748 C 151.547 231.949,150.492 233.394,143.694 245.125 C 135.055 260.029,135.029 260.083,135.029 262.594 C 135.029 270.383,144.795 274.275,149.703 268.442 C 150.255 267.786,152.777 263.683,155.307 259.325 C 166.409 240.203,166.270 240.500,165.573 237.250 C 164.381 231.691,158.948 228.588,154.191 230.748 M181.106 238.798 C 176.704 240.124,176.043 241.020,163.707 262.400 C 160.851 267.350,157.781 272.660,156.884 274.200 C 150.246 285.608,159.761 297.963,170.945 292.457 C 174.401 290.756,174.718 290.331,182.387 277.122 C 186.003 270.895,190.348 263.411,192.043 260.491 C 195.396 254.715,196.220 252.245,195.883 248.983 C 195.122 241.610,188.021 236.716,181.106 238.798 M205.487 260.870 C 201.882 261.639,201.165 262.385,196.710 270.000 C 184.722 290.493,184.143 291.688,184.798 294.589 C 186.292 301.216,193.782 303.982,198.681 299.716 C 200.465 298.163,205.600 289.157,205.600 287.582 C 205.600 285.946,206.184 284.932,207.526 284.238 C 208.859 283.549,215.011 273.006,215.420 270.711 C 216.423 265.077,210.991 259.695,205.487 260.870 " stroke="none" fill="#000000" fill-rule="evenodd"></path></g></svg>