<svg id="svg" version="1.1" xmlns="http://www.w3.org/2000/svg" xmlns:xlink="http://www.w3.org/1999/xlink" width="400" height="400" viewBox="0, 0, 400,400"><g id="svgg"><path id="path0" d="M187.600 52.257 C 100.855 60.155,39.730 138.759,53.828 224.283 C 67.125 304.955,143.409 359.503,224.283 346.172 C 304.955 332.875,359.503 256.591,346.172 175.717 C 335.542 111.228,284.972 62.353,219.178 52.979 C 214.766 52.351,192.232 51.835,187.600 52.257 M175.000 102.784 C 181.518 103.882,190.400 106.655,190.400 107.592 C 190.400 108.099,182.232 115.003,181.812 114.852 C 152.634 104.342,119.907 121.593,113.236 151.000 C 112.270 155.262,112.006 160.337,112.000 174.800 C 111.990 196.557,111.417 200.018,105.917 211.538 C 104.620 214.254,103.618 216.655,103.691 216.873 C 103.842 217.325,105.349 218.176,113.800 222.583 C 119.406 225.505,121.269 226.482,130.900 231.545 C 132.935 232.615,136.760 234.619,139.400 235.998 C 142.040 237.377,145.690 239.309,147.511 240.291 C 151.473 242.428,151.411 242.444,153.594 238.739 C 160.982 226.198,173.006 215.606,189.134 207.433 C 191.642 206.162,191.656 205.929,189.373 203.400 C 185.745 199.381,180.589 192.002,179.610 189.426 C 179.432 188.958,178.912 187.770,178.454 186.787 C 163.788 155.303,180.424 117.766,214.400 105.679 C 248.581 93.519,287.808 112.027,296.043 144.200 C 298.111 152.280,298.054 151.607,298.385 172.000 C 298.785 196.611,298.929 197.507,304.106 207.600 C 310.740 220.535,309.949 221.904,289.800 232.390 C 286.720 233.993,282.760 236.067,281.000 236.998 C 279.240 237.929,275.640 239.821,273.000 241.204 C 270.360 242.586,266.760 244.478,265.000 245.408 C 251.900 252.330,251.741 252.400,248.975 252.400 C 244.037 252.400,241.001 249.944,236.858 242.600 C 231.912 233.832,225.918 228.355,212.489 220.331 L 208.778 218.114 210.689 216.566 C 211.740 215.714,213.550 214.128,214.710 213.041 L 216.821 211.064 218.510 212.005 C 231.426 219.194,239.405 226.647,246.020 237.700 C 249.074 242.802,248.196 242.656,254.819 239.159 C 257.779 237.597,264.520 234.064,269.800 231.309 C 275.080 228.554,280.840 225.539,282.600 224.608 C 284.360 223.677,288.140 221.695,291.000 220.204 C 293.860 218.712,296.370 217.337,296.579 217.147 C 296.810 216.937,296.153 215.208,294.890 212.701 C 288.753 200.523,287.849 194.438,288.336 168.600 C 288.743 147.022,283.762 135.264,269.200 123.428 C 253.601 110.749,229.267 108.325,211.800 117.710 C 208.869 119.285,208.869 119.279,211.649 122.441 C 216.594 128.067,218.415 130.705,221.143 136.200 C 227.251 148.502,228.592 167.130,224.352 180.800 C 219.285 197.138,210.007 207.233,188.172 220.162 C 173.732 228.712,167.608 234.451,162.354 244.353 C 159.415 249.893,156.018 252.400,151.451 252.400 C 148.749 252.400,146.428 251.365,132.200 243.813 C 130.220 242.762,126.530 240.822,124.000 239.502 C 121.470 238.181,117.330 236.021,114.800 234.701 C 112.270 233.380,109.120 231.716,107.800 231.003 C 106.480 230.289,103.600 228.759,101.400 227.602 C 93.958 223.689,92.583 221.959,92.879 216.879 C 93.043 214.046,95.248 208.374,97.186 205.800 C 97.352 205.580,98.063 203.960,98.767 202.200 C 101.182 196.162,101.310 194.873,101.616 173.600 C 101.833 158.468,102.033 153.490,102.525 150.973 C 107.897 123.510,129.017 105.140,159.000 101.853 C 161.930 101.532,170.544 102.033,175.000 102.784 M194.627 134.100 C 194.372 134.958,184.327 162.134,183.796 163.400 C 182.294 166.981,180.326 172.859,180.552 173.085 C 180.813 173.346,187.894 171.827,189.400 171.187 C 189.840 171.000,191.010 170.665,192.000 170.444 C 195.457 169.670,198.339 168.885,198.826 168.584 C 199.178 168.366,199.258 168.551,199.108 169.241 C 198.722 171.024,196.314 179.794,195.990 180.600 C 195.813 181.040,195.486 182.120,195.263 183.000 C 195.041 183.880,194.561 185.590,194.199 186.800 C 193.836 188.010,193.362 189.810,193.146 190.800 C 192.930 191.790,192.595 192.960,192.402 193.400 C 190.107 198.622,192.551 196.241,196.610 189.300 C 202.095 179.923,203.511 177.521,210.147 166.340 C 213.366 160.918,216.000 156.283,216.000 156.040 C 216.000 155.481,215.685 155.496,211.800 156.243 C 210.040 156.582,207.340 157.095,205.800 157.383 C 204.260 157.672,201.947 158.121,200.661 158.382 C 197.543 159.013,197.527 159.130,201.219 154.158 C 213.894 137.092,216.000 134.208,216.000 133.922 C 216.000 133.349,194.797 133.526,194.627 134.100 M97.959 233.052 C 101.611 234.951,106.220 237.357,108.200 238.399 C 113.526 241.202,127.002 248.269,133.400 251.614 C 149.206 259.877,148.400 259.290,148.400 262.548 C 148.400 265.606,147.100 267.121,144.184 267.458 C 142.122 267.697,138.607 266.122,126.200 259.404 C 123.726 258.064,118.736 255.452,109.000 250.399 C 105.920 248.800,102.500 246.998,101.400 246.394 C 100.300 245.790,96.700 243.907,93.400 242.210 C 85.274 238.030,83.308 235.279,85.851 231.648 C 87.892 228.735,90.157 228.997,97.959 233.052 M312.829 230.464 C 316.680 232.629,315.894 237.581,311.331 239.903 C 310.049 240.556,307.110 242.080,304.800 243.291 C 302.490 244.502,298.440 246.617,295.800 247.993 C 293.160 249.369,289.560 251.258,287.800 252.192 C 280.723 255.949,269.848 261.650,263.075 265.155 C 257.011 268.293,254.230 268.361,252.411 265.417 C 250.592 262.475,251.847 259.520,255.800 257.435 C 257.120 256.739,261.260 254.576,265.000 252.628 C 268.740 250.681,273.060 248.420,274.600 247.604 C 276.140 246.788,279.380 245.078,281.800 243.803 C 284.220 242.529,287.640 240.725,289.400 239.796 C 310.955 228.411,309.914 228.826,312.829 230.464 M84.960 245.140 C 85.202 245.326,88.460 247.063,92.200 249.000 C 95.940 250.937,100.080 253.099,101.400 253.803 C 102.720 254.507,105.960 256.215,108.600 257.597 C 111.240 258.979,115.020 260.961,117.000 262.001 C 118.980 263.041,123.210 265.256,126.400 266.924 C 129.590 268.592,133.730 270.757,135.600 271.736 C 140.449 274.273,141.634 276.397,139.996 279.608 C 138.087 283.350,135.624 283.306,128.161 279.400 C 121.329 275.824,122.052 275.884,118.647 278.602 C 115.234 281.327,116.598 281.590,106.448 276.251 C 101.692 273.749,96.143 270.837,94.119 269.780 C 89.978 267.619,90.055 267.757,90.480 263.200 C 90.820 259.556,91.183 259.965,84.600 256.574 C 76.439 252.370,74.956 249.928,78.214 246.057 C 79.546 244.474,83.411 243.948,84.960 245.140 " stroke="none" fill="#000000" fill-rule="evenodd"></path></g></svg>