<svg id="svg" xmlns="http://www.w3.org/2000/svg" xmlns:xlink="http://www.w3.org/1999/xlink" width="400" height="400" viewBox="0, 0, 400,400"><g id="svgg"><path id="path0" d="M187.600 52.257 C 100.855 60.155,39.730 138.759,53.828 224.283 C 67.125 304.955,143.409 359.503,224.283 346.172 C 304.955 332.875,359.503 256.591,346.172 175.717 C 335.542 111.228,284.972 62.353,219.178 52.979 C 214.766 52.351,192.232 51.835,187.600 52.257 M281.389 196.390 C 285.989 197.385,293.484 199.735,294.555 200.517 C 295.166 200.965,290.404 220.859,289.438 221.889 C 289.392 221.939,287.925 221.363,286.177 220.610 C 268.298 212.907,249.600 216.350,249.600 227.346 C 249.600 233.470,253.620 236.449,271.000 243.201 C 290.897 250.932,299.017 260.128,299.507 275.483 C 300.260 299.102,282.352 312.683,251.493 311.894 C 239.314 311.582,221.600 307.488,221.600 304.984 C 221.600 304.526,226.215 285.294,226.613 284.091 C 226.745 283.694,227.115 283.727,228.291 284.241 C 251.312 294.291,271.300 292.363,273.010 279.927 C 273.966 272.975,268.884 268.441,253.800 262.789 C 232.217 254.702,223.200 244.804,223.200 229.200 C 223.200 211.989,235.310 199.428,255.400 195.801 C 260.422 194.894,276.118 195.250,281.389 196.390 M209.600 207.600 L 209.600 218.400 194.000 218.400 L 178.400 218.400 178.400 264.400 L 178.400 310.400 165.400 310.400 L 152.400 310.400 152.400 264.400 L 152.400 218.400 137.200 218.400 L 122.000 218.400 122.000 207.600 L 122.000 196.800 165.800 196.800 L 209.600 196.800 209.600 207.600 " stroke="none" fill="#000000" fill-rule="evenodd"></path></g></svg>