<?xml version="1.0" standalone="no"?>
<!DOCTYPE svg PUBLIC "-//W3C//DTD SVG 20010904//EN"
 "http://www.w3.org/TR/2001/REC-SVG-20010904/DTD/svg10.dtd">
<svg version="1.0" xmlns="http://www.w3.org/2000/svg"
 width="1000.000000pt" height="1000.000000pt" viewBox="0 0 1000.000000 1000.000000"
 preserveAspectRatio="xMidYMid meet">

<g transform="translate(0.000000,1000.000000) scale(0.100000,-0.100000)"
fill="#000000" stroke="none">
<path d="M4765 8494 c-886 -70 -1660 -430 -2270 -1055 -557 -571 -876 -1249
-977 -2074 -7 -56 -12 -217 -12 -365 0 -268 7 -362 45 -588 96 -577 346 -1135
715 -1597 113 -141 408 -436 549 -549 456 -364 985 -604 1565 -710 231 -42
341 -51 620 -51 279 0 389 9 620 51 580 106 1108 345 1565 710 147 117 459
431 569 574 411 530 643 1103 728 1795 16 130 16 600 0 730 -42 345 -117 648
-232 935 -318 794 -936 1462 -1705 1840 -357 175 -704 279 -1125 335 -110 15
-546 27 -655 19z m-1655 -3048 c0 -464 4 -867 10 -939 18 -220 68 -360 165
-465 87 -94 200 -142 336 -142 256 0 418 135 491 411 22 84 22 88 25 1017 l4
932 324 0 325 0 0 -882 c0 -702 -3 -905 -14 -989 -64 -473 -286 -786 -659
-927 -146 -55 -249 -73 -452 -79 -398 -12 -650 67 -862 270 -167 160 -266 370
-319 677 -15 82 -17 218 -21 1013 l-4 917 325 0 326 0 0 -814z m3724 797 c9
-31 866 -2797 871 -2811 4 -10 -67 -12 -346 -10 l-351 3 -94 310 c-52 171
-101 334 -109 363 l-16 52 -403 0 -403 0 -100 -362 -100 -363 -338 -3 c-336
-2 -337 -2 -332 18 3 12 198 651 434 1420 l428 1400 427 0 c398 0 427 -1 432
-17z"/>
<path d="M6341 5627 c-57 -245 -90 -373 -177 -683 -46 -166 -84 -304 -84 -308
0 -3 137 -6 305 -6 206 0 305 3 305 10 0 6 -45 165 -100 353 -56 188 -126 439
-157 557 -30 118 -56 216 -57 217 -2 2 -17 -61 -35 -140z"/>
</g>
</svg>
